<?xml version="1.0" encoding="UTF-8"?>
<svg version="1.1" xmlns="http://www.w3.org/2000/svg" width="500" height="500">
<path d="M0 0 C2.31 0 4.62 0 7 0 C7.31114746 1.12043701 7.62229492 2.24087402 7.94287109 3.39526367 C14.2882187 26.18542373 20.80991725 48.79352674 29 71 C29.3496582 71.94875 29.69931641 72.8975 30.05957031 73.875 C31.00633949 76.42167187 31.96581197 78.96274166 32.9375 81.5 C33.20796143 82.20640625 33.47842285 82.9128125 33.75708008 83.640625 C34.83936495 86.38492894 35.96742381 88.94652428 37.50390625 91.46875 C38.77457157 93.61859628 39.59379003 95.47178425 40.4296875 97.80078125 C41.99158202 102.12485888 43.96495743 106.13376668 46.125 110.1875 C46.51606934 110.92218506 46.90713867 111.65687012 47.31005859 112.41381836 C55.84768613 128.92176023 55.84768613 128.92176023 69 141 C69 141.66 69 142.32 69 143 C69.70125 143.2475 70.4025 143.495 71.125 143.75 C74 145 74 145 76.9375 147 C85.36176135 152.50155843 95.71667574 152.09627086 105.3359375 150.41796875 C123.94559115 145.28507939 139.51299335 133.57043972 153.2199707 120.40283203 C156.79596387 117 156.79596387 117 159 117 C159 116.34 159 115.68 159 115 C159.66 115 160.32 115 161 115 C161 114.34 161 113.68 161 113 C161.66 113 162.32 113 163 113 C163 112.34 163 111.68 163 111 C163.66 111 164.32 111 165 111 C165 110.34 165 109.68 165 109 C165.66 109 166.32 109 167 109 C167.26425781 108.40574219 167.52851563 107.81148438 167.80078125 107.19921875 C169.04418284 104.91897413 170.29184276 103.56934481 172.1875 101.8125 C176.25407762 97.88261406 179.62401433 93.52525739 183 89 C184.32 89.33 185.64 89.66 187 90 C186.37252595 96.75741289 184.75623572 102.99021452 182.875 109.5 C182.55934082 110.61036621 182.24368164 111.72073242 181.91845703 112.86474609 C180.19798938 118.897944 178.4393364 124.91952523 176.66650391 130.9375 C176.40530762 131.824375 176.14411133 132.71125 175.875 133.625 C175.60220215 134.55054688 175.3294043 135.47609375 175.04833984 136.4296875 C172.04314654 146.70898135 169.21044419 157.03545713 166.36578369 167.3600769 C164.67217135 173.50227219 162.97072188 179.6423032 161.27005005 185.782547 C160.10846496 189.97941719 158.94914095 194.17675271 157.80859375 198.37939453 C156.88523105 201.77749213 155.94562211 205.17054692 155 208.5625 C154.63745117 209.93148437 154.63745117 209.93148437 154.26757812 211.328125 C152.38833536 217.96013411 149.97521621 222.02050541 144.08203125 225.94140625 C134.66165667 230.61220129 125.22701406 233.60490478 115 236 C114.26136719 236.1762793 113.52273438 236.35255859 112.76171875 236.53417969 C56.34566257 249.69957283 -5.69465998 248.94753209 -63 243 C-64.44661113 242.85396973 -65.89322569 242.70797332 -67.33984375 242.56201172 C-127.21304829 236.42309839 -127.21304829 236.42309839 -142.96118164 221.09057617 C-145.97261679 216.52564293 -147.07920383 211.67007366 -148.4765625 206.41796875 C-148.79983521 205.24349182 -149.12310791 204.06901489 -149.45617676 202.85894775 C-150.33956607 199.64212965 -151.21233502 196.42277982 -152.08054352 193.20185471 C-152.99447419 189.82053662 -153.92092264 186.44265903 -154.84716797 183.06469727 C-155.22867061 181.67314214 -155.61017083 180.28158634 -155.9916687 178.89002991 C-156.18305294 178.19206865 -156.37443718 177.4941074 -156.57162094 176.7749958 C-157.16169362 174.62075136 -157.75006055 172.46604648 -158.33816528 170.31126404 C-161.00283925 160.55984173 -163.73518222 150.82922948 -166.5132637 141.10953331 C-167.15095341 138.87791064 -167.78729389 136.64590772 -168.42318726 134.41377258 C-168.83989068 132.95138148 -169.25660811 131.48899436 -169.67333984 130.02661133 C-169.87717978 129.31130155 -170.08101971 128.59599176 -170.29103661 127.85900593 C-171.30685982 124.29694356 -172.32618734 120.73594616 -173.35235596 117.17684937 C-174.13415134 114.46482717 -174.91098363 111.75148966 -175.6817627 109.03631592 C-176.38111368 106.5729582 -177.08782353 104.11167361 -177.80310059 101.65289307 C-178.10929321 100.56659607 -178.41548584 99.48029907 -178.73095703 98.36108398 C-179.13702682 96.94496071 -179.13702682 96.94496071 -179.55130005 95.50022888 C-180.01271955 92.92912458 -179.84982787 91.44237655 -179 89 C-174.18251449 89.83720851 -172.1766954 92.98138271 -169.25 96.625 C-165.3655854 101.32125076 -161.51724179 105.55286138 -156.79296875 109.4296875 C-154.8252426 111.1530555 -153.18875673 113.0038516 -151.5 115 C-147.98247812 119.11557929 -144.1798775 122.56774287 -140 126 C-138.99066406 126.84691406 -137.98132813 127.69382812 -136.94140625 128.56640625 C-120.73744072 141.90850073 -102.56874625 152.66426023 -80.96582031 151.22949219 C-70.97085405 150.06266801 -63.70101799 144.04551477 -57 137 C-56.27425781 136.24460937 -55.54851562 135.48921875 -54.80078125 134.7109375 C-36.00963208 113.45703449 -23.96220781 82.37283496 -16.703125 55.203125 C-16 53 -16 53 -14.62036133 49.92285156 C-12.81062305 45.72692929 -11.58231605 41.43103317 -10.37109375 37.03125 C-10.13592545 36.1921106 -9.90075714 35.35297119 -9.65846252 34.48840332 C-8.9136295 31.82683776 -8.17542658 29.16348768 -7.4375 26.5 C-6.93859683 24.71211513 -6.43925186 22.92435348 -5.93945312 21.13671875 C-5.0199449 17.84646323 -4.10326719 14.55544523 -3.18920898 11.26367188 C-2.14369285 7.5039762 -1.07695476 3.75080569 0 0 Z " fill="#F2BD02" transform="translate(247,161)"/>
<path d="M0 0 C5.08265486 2.5024956 8.10094257 6.72484047 10 12 C11.46622235 18.38854024 10.93819462 23.10247267 8 29 C5.16786965 33.16117477 2.53791902 35.82228864 -2 38 C-2.32137498 64.17475597 -1.48960579 90.01357392 2 116 C-9.82422934 124.08647903 -22.12240452 132.10818497 -36.875 132.1875 C-38.06867188 132.20167969 -39.26234375 132.21585938 -40.4921875 132.23046875 C-43.99924022 132.00004992 -46.73570089 131.26279461 -50 130 C-50 129.34 -50 128.68 -50 128 C-51.0209375 127.7215625 -51.0209375 127.7215625 -52.0625 127.4375 C-59.79790553 123.65208878 -64.34642556 115.95163589 -69 109 C-69.44988281 108.39542969 -69.89976562 107.79085937 -70.36328125 107.16796875 C-73.01935962 103.562639 -73.01935962 103.562639 -72.9375 101.18359375 C-71.53559115 97.91831439 -69.04650551 95.82693351 -66.5 93.4375 C-60.85342781 87.96261979 -55.84578521 82.20295306 -51 76 C-50.29230469 75.13246094 -49.58460938 74.26492187 -48.85546875 73.37109375 C-42.60027793 65.53878497 -37.01812016 57.25606957 -31.4375 48.9375 C-30.82347824 48.02750244 -30.82347824 48.02750244 -30.197052 47.09912109 C-29.019331 45.35031311 -27.85015473 43.59611037 -26.68359375 41.83984375 C-25.65576782 40.29864868 -25.65576782 40.29864868 -24.60717773 38.72631836 C-23.21631355 36.36694112 -22.34022011 34.69359696 -22 32 C-22.74426852 30.0858175 -22.74426852 30.0858175 -23.9375 28.25 C-26.112489 24.15010783 -26.85624302 20.60122511 -26 16 C-23.9959401 9.61272886 -21.06147725 4.53054347 -15.23828125 0.90234375 C-10.40165468 -1.04750047 -5.08799483 -0.7064938 0 0 Z " fill="#F2BD02" transform="translate(378,171)"/>
<path d="M0 0 C5.39383443 3.14724673 8.65073668 7.10846005 10.64453125 13.08984375 C10.76406894 15.0663856 10.81979321 17.04722831 10.83203125 19.02734375 C10.84621094 20.06761719 10.86039063 21.10789063 10.875 22.1796875 C10.64453125 25.08984375 10.64453125 25.08984375 9.5703125 27.15625 C8.24563697 29.92297737 8.68688385 31.1875001 9.64453125 34.08984375 C10.9944734 36.56762218 12.37384783 38.90946009 13.89453125 41.27734375 C14.33273193 41.96787842 14.77093262 42.65841309 15.22241211 43.36987305 C24.8069082 58.27297202 35.45215553 72.46732057 47.4296875 85.53125 C48.64453125 87.08984375 48.64453125 87.08984375 48.64453125 89.08984375 C49.30453125 89.08984375 49.96453125 89.08984375 50.64453125 89.08984375 C54.60505757 92.9582648 54.60505757 92.9582648 55.64453125 95.08984375 C55.12765659 105.87037246 44.98658147 115.88874039 37.64453125 123.08984375 C35.08540403 125.27302839 32.48618178 127.28871194 29.64453125 129.08984375 C29.06445312 129.46367187 28.484375 129.8375 27.88671875 130.22265625 C19.90004282 133.31157969 8.8895691 131.60721984 1.25 128.37109375 C-4.46636764 125.5600464 -10.05174417 122.62566014 -15.35546875 119.08984375 C-15.89337185 113.29412729 -14.81016655 107.62485893 -13.91796875 101.90234375 C-11.61736842 87.05301435 -11.10231003 72.33973931 -10.79296875 57.33984375 C-10.74968332 55.37108637 -10.70606619 53.40233625 -10.66210938 51.43359375 C-10.55607173 46.6524189 -10.4545223 41.87116818 -10.35546875 37.08984375 C-11.77714355 36.64850098 -11.77714355 36.64850098 -13.22753906 36.19824219 C-18.05210817 34.48863059 -20.44862581 31.17783132 -23.35546875 27.08984375 C-26.02786731 21.3964729 -26.13428287 15.90847507 -24.16796875 9.96484375 C-22.34672856 5.53201385 -19.65452556 2.4771211 -15.5234375 -0.015625 C-10.67180017 -2.01747175 -4.86979087 -1.88169365 0 0 Z " fill="#F1BD04" transform="translate(142.35546875,171.91015625)"/>
<path d="M0 0 C7.56520791 4.49891102 12.16579282 10.58745634 14.83984375 18.9453125 C17.16052438 29.68360985 15.93305969 39.89969548 10.09765625 49.24609375 C5.54862142 55.12980873 -0.4306584 58.80782436 -7.5 61 C-16.19238079 61.84053682 -23.14948077 59.49659302 -30.5 55 C-30.5 54.34 -30.5 53.68 -30.5 53 C-31.16 53 -31.82 53 -32.5 53 C-32.5 52.34 -32.5 51.68 -32.5 51 C-33.16 51 -33.82 51 -34.5 51 C-40.59083019 43.65976875 -41.99975605 35.37072166 -41.8125 26.08984375 C-40.96729078 17.73283759 -37.44062113 9.96768547 -31.5 4 C-22.51067842 -2.84007202 -10.51675284 -4.82895585 0 0 Z " fill="#F1BE04" transform="translate(263.5,93)"/>
<path d="M0 0 C6.20442174 4.23744021 9.25185903 10.3772641 11.15625 17.47265625 C12.23456633 25.87154233 10.89175566 34.36939775 6.15625 41.47265625 C5.49625 41.47265625 4.83625 41.47265625 4.15625 41.47265625 C3.49625 42.79265625 2.83625 44.11265625 2.15625 45.47265625 C1.49625 45.47265625 0.83625 45.47265625 0.15625 45.47265625 C0.15625 46.13265625 0.15625 46.79265625 0.15625 47.47265625 C-6.82482648 51.71605568 -12.70963973 53.75603393 -21.046875 52.01171875 C-28.19327753 49.94558196 -33.37417329 46.26906395 -37.21875 39.84765625 C-40.91102965 32.17907543 -41.57465676 21.75874494 -38.90234375 13.59765625 C-36.54977121 9.23175361 -33.58273913 5.74427174 -29.84375 2.47265625 C-28.6371875 1.38984375 -28.6371875 1.38984375 -27.40625 0.28515625 C-18.94227063 -5.70156087 -8.73295832 -4.96065195 0 0 Z " fill="#F2BE05" transform="translate(460.84375,195.52734375)"/>
<path d="M0 0 C3.25696199 1.93418862 4.97927993 4.21280576 7.1640625 7.28515625 C7.8240625 7.61515625 8.4840625 7.94515625 9.1640625 8.28515625 C14.43389937 15.68985405 13.89238578 24.65317662 13.1640625 33.28515625 C11.91950512 40.03250867 7.89349038 45.56835448 2.39453125 49.57421875 C-3.39424492 53.08027491 -9.13671672 53.99941141 -15.8359375 53.28515625 C-19.93151643 52.15887204 -23.29975877 50.64260874 -26.8359375 48.28515625 C-26.8359375 47.62515625 -26.8359375 46.96515625 -26.8359375 46.28515625 C-27.44308594 46.02863281 -28.05023438 45.77210938 -28.67578125 45.5078125 C-33.87557169 42.5647123 -36.78150218 35.37954512 -38.45703125 29.8359375 C-39.63196323 21.92634389 -37.45041129 13.85826353 -33.25 7.15234375 C-24.953536 -3.80265568 -12.05019991 -5.3365171 0 0 Z " fill="#F1BD05" transform="translate(65.8359375,194.71484375)"/>
<path d="M0 0 C1.32 0.33 2.64 0.66 4 1 C3.3699064 7.90615746 1.67186988 14.28619869 -0.25 20.9375 C-0.56138916 22.0318335 -0.87277832 23.12616699 -1.19360352 24.25366211 C-3.74223175 33.18465742 -6.34360783 42.10047415 -9 51 C-9.33 51 -9.66 51 -10 51 C-9.67 46.71 -9.34 42.42 -9 38 C-8.67 38 -8.34 38 -8 38 C-7.67 35.69 -7.34 33.38 -7 31 C-6.34 31 -5.68 31 -5 31 C-4.67 27.04 -4.34 23.08 -4 19 C-4.66 19.99 -5.32 20.98 -6 22 C-6.66 22 -7.32 22 -8 22 C-8 21.34 -8 20.68 -8 20 C-9.46224799 20.42423244 -10.91973412 20.86490245 -12.375 21.3125 C-13.59316406 21.67794922 -13.59316406 21.67794922 -14.8359375 22.05078125 C-17.33184629 22.91368185 -17.33184629 22.91368185 -19 26 C-19.99 26 -20.98 26 -22 26 C-22 25.34 -22 24.68 -22 24 C-21.34 24 -20.68 24 -20 24 C-20 23.34 -20 22.68 -20 22 C-19.34 22 -18.68 22 -18 22 C-18 21.34 -18 20.68 -18 20 C-17.34 20 -16.68 20 -16 20 C-15.60361328 19.10861328 -15.60361328 19.10861328 -15.19921875 18.19921875 C-13.95581716 15.91897413 -12.70815724 14.56934481 -10.8125 12.8125 C-6.74592238 8.88261406 -3.37598567 4.52525739 0 0 Z " fill="#EFBD06" transform="translate(430,250)"/>
<path d="M0 0 C0 0.33 0 0.66 0 1 C-52.16857266 8.760054 -105.56729705 9.20762081 -158 4 C-159.07588379 3.89413574 -160.15176758 3.78827148 -161.26025391 3.67919922 C-163.50718352 3.45627549 -165.75366675 3.22885492 -168 3 C-168 2.67 -168 2.34 -168 2 C-159.23812828 1.9433267 -150.50487779 2.0908234 -141.75 2.4375 C-140.64398438 2.47681641 -139.53796875 2.51613281 -138.3984375 2.55664062 C-120.76264284 3.23735716 -120.76264284 3.23735716 -119 5 C-116.50757534 5.12760843 -114.04483313 5.18848997 -111.55078125 5.203125 C-110.37385712 5.21337456 -110.37385712 5.21337456 -109.17315674 5.22383118 C-106.55289579 5.24121778 -103.93281575 5.24719904 -101.3125 5.25 C-100.41771942 5.25200409 -99.52293884 5.25400818 -98.6010437 5.256073 C-83.21529179 5.26442232 -67.9117721 4.59040929 -52.5625 3.5625 C-51.54338531 3.4951062 -50.52427063 3.4277124 -49.47427368 3.35827637 C-46.58774607 3.16411519 -43.70199123 2.96157147 -40.81640625 2.75390625 C-39.95057922 2.69342606 -39.0847522 2.63294586 -38.19268799 2.57063293 C-33.96131008 2.34055284 -33.96131008 2.34055284 -30 1 C-28.51311112 0.84826192 -27.02043444 0.75099689 -25.52734375 0.68359375 C-24.62693359 0.64169922 -23.72652344 0.59980469 -22.79882812 0.55664062 C-21.3824707 0.49766602 -21.3824707 0.49766602 -19.9375 0.4375 C-19.02033203 0.39431641 -18.10316406 0.35113281 -17.15820312 0.30664062 C-11.43295029 0.05101275 -5.73072643 -0.04105945 0 0 Z " fill="#F2D871" transform="translate(342,400)"/>
<path d="M0 0 C2.86882256 1.60206974 4.92533034 3.46513089 7 6 C6.67 6.66 6.34 7.32 6 8 C4.68 7.34 3.36 6.68 2 6 C2 5.01 2 4.02 2 3 C-0.97 3 -3.94 3 -7 3 C-7 4.32 -7 5.64 -7 7 C-8.32 7 -9.64 7 -11 7 C-11.33 6.34 -11.66 5.68 -12 5 C-12.66 5 -13.32 5 -14 5 C-14 5.66 -14 6.32 -14 7 C-13.34 7 -12.68 7 -12 7 C-11.375 8.875 -11.375 8.875 -11 11 C-11.66 11.66 -12.32 12.32 -13 13 C-15.625 12.625 -15.625 12.625 -18 12 C-18 11.34 -18 10.68 -18 10 C-18.99 10.66 -19.98 11.32 -21 12 C-21 12.99 -21 13.98 -21 15 C-20.34 15.33 -19.68 15.66 -19 16 C-19.33 14.68 -19.66 13.36 -20 12 C-19.01 12.33 -18.02 12.66 -17 13 C-16.67 13.99 -16.34 14.98 -16 16 C-17.32 16.99 -18.64 17.98 -20 19 C-20.66 18.67 -21.32 18.34 -22 18 C-22.08159574 22.16138263 -21.98248524 25.9472484 -21 30 C-21.66 30.33 -22.32 30.66 -23 31 C-25.92960265 25.1407947 -27.27261422 20.08468114 -25.2734375 13.66796875 C-23.05569408 8.23179281 -20.33438935 4.07752419 -15.23828125 0.90234375 C-10.4142278 -1.04243172 -5.07268466 -0.73874048 0 0 Z " fill="#EFBE0F" transform="translate(378,171)"/>
<path d="M0 0 C0.33 0.66 0.66 1.32 1 2 C0.67 2.66 0.34 3.32 0 4 C-0.99 4 -1.98 4 -3 4 C-2.979375 4.886875 -2.95875 5.77375 -2.9375 6.6875 C-2.99286219 9.62169631 -3.3305734 12.15493696 -4 15 C-5.65 15 -7.3 15 -9 15 C-9 22.26 -9 29.52 -9 37 C-8.34 37 -7.68 37 -7 37 C-6.731875 37.804375 -6.46375 38.60875 -6.1875 39.4375 C-5.795625 40.283125 -5.40375 41.12875 -5 42 C-4.01 42.33 -3.02 42.66 -2 43 C-1.05078125 45.06640625 -1.05078125 45.06640625 -0.3125 47.5625 C-0.06113281 48.38878906 0.19023437 49.21507812 0.44921875 50.06640625 C0.63097656 50.70449219 0.81273437 51.34257812 1 52 C0.34 52 -0.32 52 -1 52 C-1 51.34 -1 50.68 -1 50 C-1.66 50 -2.32 50 -3 50 C-3 49.34 -3 48.68 -3 48 C-3.66 48 -4.32 48 -5 48 C-11.09083019 40.65976875 -12.49975605 32.37072166 -12.3125 23.08984375 C-11.45457621 14.60712229 -7.80825936 7.20654 -2 1 C-1.34 0.67 -0.68 0.34 0 0 Z " fill="#ECCC4E" transform="translate(234,96)"/>
<path d="M0 0 C1.47973345 0.43557916 2.95874785 0.87360096 4.4375 1.3125 C5.36175781 1.58320313 6.28601563 1.85390625 7.23828125 2.1328125 C10 3 10 3 12.10546875 3.8671875 C20.93429837 7.45336587 32.05329381 7.59782212 40.875 4 C41.63554687 3.62875 42.39609375 3.2575 43.1796875 2.875 C45 2 45 2 47 2 C46.67 3.32 46.34 4.64 46 6 C43.69 6 41.38 6 39 6 C39 6.66 39 7.32 39 8 C35.78687747 10.14208169 35.15797594 10.2299413 31.5078125 10.046875 C30.63769531 10.00433594 29.76757812 9.96179688 28.87109375 9.91796875 C27.51177734 9.83482422 27.51177734 9.83482422 26.125 9.75 C25.22652344 9.71003906 24.32804687 9.67007812 23.40234375 9.62890625 C18.90335174 9.38302338 15.08696774 9.08623458 11 7 C10.67 7.66 10.34 8.32 10 9 C7.67843403 9.40729228 5.3431213 9.74438677 3 10 C3 10.66 3 11.32 3 12 C2.34 12 1.68 12 1 12 C2.29299694 9.11562221 3.65941363 7.12780579 6 5 C4.02 4.34 2.04 3.68 0 3 C0 2.01 0 1.02 0 0 Z " fill="#EABF15" transform="translate(133,306)"/>
<path d="M0 0 C0.99 0.33 1.98 0.66 3 1 C2.98952637 1.83208984 2.97905273 2.66417969 2.96826172 3.52148438 C2.742352 24.44243989 3.41315726 45.13681627 5 66 C4.01 66 3.02 66 2 66 C0.14547747 43.95288377 -0.24810823 22.11216918 0 0 Z " fill="#E6BC2D" transform="translate(373,208)"/>
<path d="M0 0 C0 0.33 0 0.66 0 1 C-26.16143328 4.50785524 -51.57778641 6.20262434 -78 6 C-78 5.67 -78 5.34 -78 5 C-77.14222458 4.94695457 -77.14222458 4.94695457 -76.26712036 4.89283752 C-70.32992662 4.5248266 -64.39313499 4.15078423 -58.45654297 3.77319336 C-56.23919302 3.63296377 -54.02174432 3.49428665 -51.80419922 3.35717773 C-48.62179939 3.16014493 -45.43979323 2.95758159 -42.2578125 2.75390625 C-41.26194122 2.6934462 -40.26606995 2.63298615 -39.24002075 2.57069397 C-38.31921722 2.51070724 -37.3984137 2.45072052 -36.44970703 2.38891602 C-35.6369632 2.33784195 -34.82421936 2.28676788 -33.98684692 2.23414612 C-31.92811454 2.10549808 -31.92811454 2.10549808 -30 1 C-28.51311112 0.84826192 -27.02043444 0.75099689 -25.52734375 0.68359375 C-24.62693359 0.64169922 -23.72652344 0.59980469 -22.79882812 0.55664062 C-21.3824707 0.49766602 -21.3824707 0.49766602 -19.9375 0.4375 C-18.56174805 0.37272461 -18.56174805 0.37272461 -17.15820312 0.30664062 C-11.43295029 0.05101275 -5.73072643 -0.04105945 0 0 Z " fill="#ECC84C" transform="translate(342,400)"/>
<path d="M0 0 C1.98 0.99 1.98 0.99 4 2 C4 2.66 4 3.32 4 4 C4.70125 4.2475 5.4025 4.495 6.125 4.75 C9 6 9 6 11.9375 8 C17.43775188 11.59200123 22.40622321 12.31001471 28.875 12.1875 C29.93074219 12.17783203 29.93074219 12.17783203 31.0078125 12.16796875 C35.74717479 12.09775598 40.32854125 11.77857646 45 11 C44 13 44 13 42.26269531 13.60522461 C39.75687432 14.04241845 37.33878809 14.2129563 34.796875 14.31640625 C33.8171875 14.35830078 32.8375 14.40019531 31.828125 14.44335938 C30.81234375 14.48267578 29.7965625 14.52199219 28.75 14.5625 C27.203125 14.62727539 27.203125 14.62727539 25.625 14.69335938 C23.0834613 14.79925682 20.54182804 14.90133443 18 15 C18 14.34 18 13.68 18 13 C13.28597226 12.28091102 9.66492218 11.80044858 5 13 C4.01 13 3.02 13 2 13 C3 10 3 10 4 9 C3.566875 8.1646875 3.566875 8.1646875 3.125 7.3125 C1.9586747 4.91505355 0.9660119 2.48403061 0 0 Z " fill="#EDC943" transform="translate(312,300)"/>
<path d="M0 0 C2.97 0.495 2.97 0.495 6 1 C6.33 8.92 6.66 16.84 7 25 C7.33 25 7.66 25 8 25 C7.91304042 27.60578866 7.80618592 30.2081279 7.6875 32.8125 C7.66494141 33.55048828 7.64238281 34.28847656 7.61914062 35.04882812 C7.39631722 39.52555298 7.29680635 40.70319365 4 44 C4 30.14 4 16.28 4 2 C2.68 1.34 1.36 0.68 0 0 Z " fill="#ECC22B" transform="translate(128,207)"/>
<path d="M0 0 C3.21422633 0.28751107 4.09344717 1.09917158 6.359375 3.50390625 C7.14828125 4.51324219 7.9371875 5.52257812 8.75 6.5625 C9.54921875 7.57441406 10.3484375 8.58632813 11.171875 9.62890625 C11.77515625 10.41136719 12.3784375 11.19382812 13 12 C10 13 10 13 7 12 C5.8125 8.9375 5.8125 8.9375 5 6 C4.34 6 3.68 6 3 6 C3.66264086 12.06264222 3.66264086 12.06264222 5 18 C5.66 18 6.32 18 7 18 C7 21.63 7 25.26 7 29 C4.63876944 24.27753889 3.27096688 19.55830631 1.8125 14.5 C1.52697266 13.54996094 1.24144531 12.59992188 0.94726562 11.62109375 C0.68236328 10.70457031 0.41746094 9.78804688 0.14453125 8.84375 C-0.09934326 8.01037109 -0.34321777 7.17699219 -0.59448242 6.31835938 C-1.02642334 3.84893677 -0.79276895 2.35426303 0 0 Z " fill="#EECB4B" transform="translate(68,250)"/>
<path d="M0 0 C1.32 0.99 2.64 1.98 4 3 C3.34 3 2.68 3 2 3 C2 3.66 2 4.32 2 5 C3.16917969 5.12117188 4.33835938 5.24234375 5.54296875 5.3671875 C7.09118671 5.53608401 8.63936161 5.70537568 10.1875 5.875 C10.95642578 5.95363281 11.72535156 6.03226562 12.51757812 6.11328125 C16.65780704 6.57528104 20.19233501 7.1839193 24 9 C24 9.33 24 9.66 24 10 C15.10748271 9.80553143 6.57979091 8.28653514 -2.125 6.5625 C-3.2399585 6.34505127 -4.35491699 6.12760254 -5.50366211 5.90356445 C-6.55690674 5.68917725 -7.61015137 5.47479004 -8.6953125 5.25390625 C-9.64422363 5.06127197 -10.59313477 4.8686377 -11.57080078 4.67016602 C-14 4 -14 4 -17 2 C-11.39 2 -5.78 2 0 2 C0 1.34 0 0.68 0 0 Z " fill="#EDCF56" transform="translate(148,392)"/>
<path d="M0 0 C2.85850649 1.61344738 4.92692877 3.46708387 7 6 C6.67 6.66 6.34 7.32 6 8 C4.68 7.34 3.36 6.68 2 6 C2 5.01 2 4.02 2 3 C-0.97 3 -3.94 3 -7 3 C-7 4.32 -7 5.64 -7 7 C-8.32 7 -9.64 7 -11 7 C-11.33 6.34 -11.66 5.68 -12 5 C-14.31 5.33 -16.62 5.66 -19 6 C-19 6.99 -19 7.98 -19 9 C-19.99 9 -20.98 9 -22 9 C-21.10703222 5.42812886 -20.06280717 4.05164145 -17.1875 1.6875 C-11.82965418 -1.04196863 -5.82047239 -1.00781078 0 0 Z " fill="#ECC32C" transform="translate(378,171)"/>
<path d="M0 0 C1.98 0 3.96 0 6 0 C2.64830203 2.79866781 -1.00424457 4.46149512 -5 6.125 C-5.61617188 6.38925781 -6.23234375 6.65351563 -6.8671875 6.92578125 C-12.51811033 9.31469069 -16.72701773 10.15444633 -22.875 10.1875 C-24.06867188 10.20167969 -25.26234375 10.21585937 -26.4921875 10.23046875 C-29.99924022 10.00004992 -32.73570089 9.26279461 -36 8 C-36 7.34 -36 6.68 -36 6 C-36.66 5.67 -37.32 5.34 -38 5 C-35.36 5.33 -32.72 5.66 -30 6 C-30 6.66 -30 7.32 -30 8 C-27.68715544 7.85973717 -25.37472409 7.71264442 -23.0625 7.5625 C-21.77472656 7.48128906 -20.48695313 7.40007812 -19.16015625 7.31640625 C-16.13976043 7.35080812 -16.13976043 7.35080812 -15 6 C-12.66702567 5.95907063 -10.33294775 5.95758277 -8 6 C-8 5.34 -8 4.68 -8 4 C-6.35 4 -4.7 4 -3 4 C-3 3.34 -3 2.68 -3 2 C-2.01 2 -1.02 2 0 2 C0 1.34 0 0.68 0 0 Z " fill="#ECCA45" transform="translate(364,293)"/>
<path d="M0 0 C0.98120464 3.05263664 0.98120464 4.94736336 0 8 C0.99 8.33 1.98 8.66 3 9 C3 12.3 3 15.6 3 19 C2.34 19 1.68 19 1 19 C1 18.34 1 17.68 1 17 C-0.32 17 -1.64 17 -3 17 C-3.33 18.32 -3.66 19.64 -4 21 C-4.66 21 -5.32 21 -6 21 C-6 22.32 -6 23.64 -6 25 C-6.66 25 -7.32 25 -8 25 C-6.43790056 18.11256157 -4.62481836 11.5678852 -1.8671875 5.05859375 C-1.16941356 3.40216642 -0.56838719 1.70516157 0 0 Z " fill="#EEC73A" transform="translate(234,207)"/>
<path d="M0 0 C2 1 2 1 3.10546875 3.07421875 C4.2085287 6.68204367 4.34176895 10.07524778 4.3125 13.8125 C4.30903564 14.52301514 4.30557129 15.23353027 4.30200195 15.96557617 C4.17832799 21.92174137 3.64713838 27.1982842 -0.60546875 31.69921875 C-1.06566406 32.12847656 -1.52585937 32.55773437 -2 33 C-1.4140625 26.84765625 -1.4140625 26.84765625 -1 25 C-0.34 24.67 0.32 24.34 1 24 C1 19.71 1 15.42 1 11 C-1.475 10.01 -1.475 10.01 -4 9 C-4.33 6.69 -4.66 4.38 -5 2 C-4.34 2 -3.68 2 -3 2 C-3 3.98 -3 5.96 -3 8 C-1.68 8 -0.36 8 1 8 C0.67 5.36 0.34 2.72 0 0 Z " fill="#ECC73F" transform="translate(75,206)"/>
<path d="M0 0 C0 3.8532561 -0.93642513 5.88141263 -3.5859375 8.66796875 C-4.17632812 9.16941406 -4.76671875 9.67085938 -5.375 10.1875 C-5.96023438 10.69667969 -6.54546875 11.20585937 -7.1484375 11.73046875 C-9.11526746 13.0790336 -10.70866411 13.44792973 -13 14 C-13.309375 14.61875 -13.61875 15.2375 -13.9375 15.875 C-15.84431052 19.68862105 -19.36622446 20.75146057 -23.1875 22.25 C-26 23 -26 23 -28 22 C-27.21238281 21.47792969 -26.42476563 20.95585937 -25.61328125 20.41796875 C-16.55463581 14.2966829 -7.75081419 7.75081419 0 0 Z " fill="#EECB41" transform="translate(402,280)"/>
<path d="M0 0 C2.375 -0.125 2.375 -0.125 5 0 C5.66 0.66 6.32 1.32 7 2 C10.21738914 1.7020936 13.17993238 1.27335587 16.25 0.25 C17.11625 0.12625 17.11625 0.12625 18 0 C18.40347656 0.48597656 18.80695313 0.97195313 19.22265625 1.47265625 C21.82037075 3.70497794 23.82746352 3.29588827 27.1875 3.1875 C28.81751953 3.14689453 28.81751953 3.14689453 30.48046875 3.10546875 C31.72763672 3.05326172 31.72763672 3.05326172 33 3 C29.47786974 6.39601818 26.10452281 6.50437536 21.4375 6.4375 C20.73093262 6.43282715 20.02436523 6.4281543 19.29638672 6.42333984 C12.43730255 6.23190182 5.01589849 5.01589849 0 0 Z " fill="#ECCB48" transform="translate(139,297)"/>
<path d="M0 0 C2.33418198 2.33418198 3.03275506 4.24910024 4.25 7.3125 C6.59557569 13.12025777 9.21984143 18.75208805 11.9609375 24.3828125 C12.30382812 25.24648438 12.64671875 26.11015625 13 27 C12.67 27.66 12.34 28.32 12 29 C11.34 28.34 10.68 27.68 10 27 C10 26.01 10 25.02 10 24 C9.38125 23.9175 8.7625 23.835 8.125 23.75 C6 23 6 23 4.75 20.9375 C4.5025 20.298125 4.255 19.65875 4 19 C3.34 19.33 2.68 19.66 2 20 C2.33 19.01 2.66 18.02 3 17 C3.66 17 4.32 17 5 17 C4.6390625 16.10796875 4.278125 15.2159375 3.90625 14.296875 C3.21015625 12.54117188 3.21015625 12.54117188 2.5 10.75 C2.0359375 9.58984375 1.571875 8.4296875 1.09375 7.234375 C0 4 0 4 0 0 Z " fill="#E9BE19" transform="translate(278,240)"/>
<path d="M0 0 C1.32 0.33 2.64 0.66 4 1 C4 4.3 4 7.6 4 11 C4.66 11 5.32 11 6 11 C8.29612756 20.41002278 8.29612756 20.41002278 8 25 C8.66 25 9.32 25 10 25 C10 28.3 10 31.6 10 35 C8.18846142 31.37692285 7.12245437 28.22070124 6.0546875 24.3359375 C5.87994904 23.70265533 5.70521057 23.06937317 5.525177 22.41690063 C5.15850761 21.0844706 4.79386997 19.75147997 4.43115234 18.41796875 C3.87460586 16.37355217 3.31085292 14.33122382 2.74609375 12.2890625 C0 2.28326232 0 2.28326232 0 0 Z " fill="#EECD50" transform="translate(75,280)"/>
<path d="M0 0 C3.7555327 7.51106539 2.35277582 15.12469745 -0.1484375 22.90625 C-1 25 -1 25 -3 28 C-3.66 28 -4.32 28 -5 28 C-5.66 29.32 -6.32 30.64 -7 32 C-7.66 32 -8.32 32 -9 32 C-9 32.66 -9 33.32 -9 34 C-9.66 33.67 -10.32 33.34 -11 33 C-10.3125 30.5625 -10.3125 30.5625 -9 28 C-6.375 27.1875 -6.375 27.1875 -4 27 C-4 26.01 -4 25.02 -4 24 C-3.34 24 -2.68 24 -2 24 C-1.34 16.08 -0.68 8.16 0 0 Z " fill="#EFD467" transform="translate(470,209)"/>
<path d="M0 0 C1.99609375 1.38671875 1.99609375 1.38671875 3.99609375 4.38671875 C0.13611099 3.86509946 -1.3133714 3.0772536 -4.00390625 0.38671875 C-9.55405258 -1.04967475 -15.31925391 -1.22911859 -21.00390625 -0.61328125 C-23.95053866 1.28995888 -23.95053866 1.28995888 -26.00390625 3.38671875 C-28.31640625 3.13671875 -28.31640625 3.13671875 -30.00390625 2.38671875 C-20.89271798 -5.65256502 -10.39673745 -5.53938171 0 0 Z " fill="#EDD059" transform="translate(461.00390625,195.61328125)"/>
<path d="M0 0 C2 1 2 1 2.78125 2.8203125 C3.0184375 3.58085937 3.255625 4.34140625 3.5 5.125 C3.7371875 5.87007813 3.974375 6.61515625 4.21875 7.3828125 C6.02340872 13.42841922 7.66153052 19.48926872 9.125 25.625 C9.30675781 26.36234375 9.48851563 27.0996875 9.67578125 27.859375 C10.57953458 31.65106192 11.23298342 35.07034632 11 39 C8.99625338 35.42074962 7.92942392 31.64175463 6.8359375 27.71484375 C6.63900299 27.01734512 6.44206848 26.3198465 6.23916626 25.60121155 C5.8254241 24.13175359 5.41371093 22.66172302 5.00390625 21.19116211 C4.37574614 18.94017377 3.73910564 16.69170585 3.1015625 14.44335938 C2.70001039 13.01316405 2.29895175 11.58283007 1.8984375 10.15234375 C1.7078476 9.48041489 1.51725769 8.80848602 1.32089233 8.11619568 C0.54284634 5.3058535 0 2.9329772 0 0 Z " fill="#EACC51" transform="translate(85,315)"/>
<path d="M0 0 C0.99 0.33 1.98 0.66 3 1 C3 1.66 3 2.32 3 3 C3.99 3.33 4.98 3.66 6 4 C6 4.99 6 5.98 6 7 C6.66 7 7.32 7 8 7 C8 7.99 8 8.98 8 10 C9.32 9.67 10.64 9.34 12 9 C11.67 10.32 11.34 11.64 11 13 C12.32 13 13.64 13 15 13 C15.99 15.64 16.98 18.28 18 21 C9.83181945 17.62900485 4.18994167 8.43376748 0 1 C0 0.67 0 0.34 0 0 Z " fill="#EDC531" transform="translate(308,277)"/>
<path d="M0 0 C2 1 2 1 3.1875 4 C4.66601198 9.77211076 4.06393269 15.4543555 1.3125 20.75 C-1.20136131 24.28299427 -3.55441562 26.41581171 -7 29 C-7.33 28.01 -7.66 27.02 -8 26 C-7.01 26 -6.02 26 -5 26 C-5 24.68 -5 23.36 -5 22 C-4.01 22 -3.02 22 -2 22 C-2 21.01 -2 20.02 -2 19 C-1.34 19 -0.68 19 0 19 C1.59843905 12.60624381 1.28130809 6.40654045 0 0 Z " fill="#EDD058" transform="translate(385,179)"/>
<path d="M0 0 C0.69100079 2.14978023 1.11158705 3.56509664 0.54296875 5.78125 C-1.37844773 13.6327936 -0.04160324 20.72660094 3 28 C2.67 28.99 2.34 29.98 2 31 C1.36967867 29.79443396 0.7460503 28.58536811 0.125 27.375 C-0.22304688 26.70210937 -0.57109375 26.02921875 -0.9296875 25.3359375 C-3.40115586 19.9420029 -4.27488931 16.28888833 -3.25 10.375 C-3.06953125 9.26898438 -2.8890625 8.16296875 -2.703125 7.0234375 C-2.08518991 4.3663166 -1.35207466 2.34894326 0 0 Z " fill="#ECD25A" transform="translate(31,205)"/>
<path d="M0 0 C1.6498275 0.42218816 3.29483665 0.86324425 4.9375 1.3125 C6.31228516 1.67794922 6.31228516 1.67794922 7.71484375 2.05078125 C8.46894531 2.36402344 9.22304687 2.67726563 10 3 C10.33 3.99 10.66 4.98 11 6 C11.66 6.33 12.32 6.66 13 7 C12.34 7 11.68 7 11 7 C10.67 7.66 10.34 8.32 10 9 C7.67843403 9.40729228 5.3431213 9.74438677 3 10 C3 10.66 3 11.32 3 12 C2.34 12 1.68 12 1 12 C2.29299694 9.11562221 3.65941363 7.12780579 6 5 C4.02 4.34 2.04 3.68 0 3 C0 2.01 0 1.02 0 0 Z " fill="#EABD0A" transform="translate(133,306)"/>
<path d="M0 0 C0.33 0.99 0.66 1.98 1 3 C0.67 3.66 0.34 4.32 0 5 C-0.66 5 -1.32 5 -2 5 C-2 5.99 -2 6.98 -2 8 C-3.32 8.33 -4.64 8.66 -6 9 C-6.12375 9.598125 -6.2475 10.19625 -6.375 10.8125 C-7 13 -7 13 -9 16 C-9.99 16.33 -10.98 16.66 -12 17 C-12.66 17.99 -13.32 18.98 -14 20 C-14.99 20 -15.98 20 -17 20 C-17 19.34 -17 18.68 -17 18 C-16.34 18 -15.68 18 -15 18 C-15 17.34 -15 16.68 -15 16 C-14.34 16 -13.68 16 -13 16 C-13 15.34 -13 14.68 -13 14 C-12.34 14 -11.68 14 -11 14 C-10.7421875 13.41347656 -10.484375 12.82695312 -10.21875 12.22265625 C-8.90493528 9.82662877 -7.4781599 8.31088448 -5.5 6.4375 C-3.27903267 4.32475777 -1.72257583 2.58386374 0 0 Z " fill="#EFCB45" transform="translate(425,256)"/>
<path d="M0 0 C1.32 0.33 2.64 0.66 4 1 C4 1.66 4 2.32 4 3 C4.99 3.33 5.98 3.66 7 4 C7 4.66 7 5.32 7 6 C7.66 6 8.32 6 9 6 C9 6.66 9 7.32 9 8 C15.6 8.66 22.2 9.32 29 10 C29 10.33 29 10.66 29 11 C21.34456839 12.9138579 15.03804066 12.40197974 8 9 C7.01 8.34 6.02 7.68 5 7 C5 6.34 5 5.68 5 5 C4.360625 4.731875 3.72125 4.46375 3.0625 4.1875 C1 3 1 3 0 0 Z " fill="#EDCF5B" transform="translate(34,236)"/>
<path d="M0 0 C0.33 0.66 0.66 1.32 1 2 C0.67 2.66 0.34 3.32 0 4 C-0.99 4 -1.98 4 -3 4 C-2.979375 4.886875 -2.95875 5.77375 -2.9375 6.6875 C-2.99286219 9.62169631 -3.3305734 12.15493696 -4 15 C-5.65 15 -7.3 15 -9 15 C-9 17.64 -9 20.28 -9 23 C-9.33 23 -9.66 23 -10 23 C-10.83258206 15.75345241 -9.6057668 11.26866847 -5.703125 5.12890625 C-3.98434568 2.9804321 -2.2710025 1.53539517 0 0 Z " fill="#ECC733" transform="translate(234,96)"/>
<path d="M0 0 C0.33 0 0.66 0 1 0 C1.66 10.56 2.32 21.12 3 32 C2.01 32 1.02 32 0 32 C0 21.44 0 10.88 0 0 Z " fill="#EECC53" transform="translate(375,242)"/>
<path d="M0 0 C0.66 0 1.32 0 2 0 C1.29791463 6.33654266 -0.34372204 12.30812246 -2.0625 18.4375 C-2.34416016 19.45521484 -2.62582031 20.47292969 -2.91601562 21.52148438 C-3.60682444 24.01542128 -4.30157818 26.50818649 -5 29 C-5.33 29 -5.66 29 -6 29 C-6.33805843 21.05562688 -4.57666809 14.15193961 -1.6640625 6.796875 C-0.84070313 4.56896141 -0.36620466 2.34370985 0 0 Z " fill="#ECCA4C" transform="translate(409,333)"/>
<path d="M0 0 C2.30055997 3.45083995 2.27010256 4.87175728 2.25 8.9375 C2.25515625 9.97777344 2.2603125 11.01804688 2.265625 12.08984375 C2.00140319 14.98462676 1.30910896 16.47224895 0 19 C0.31126713 22.68203915 0.31126713 22.68203915 1 26 C-0.9375 25.3125 -0.9375 25.3125 -3 24 C-3.9375 21.5625 -3.9375 21.5625 -4 19 C-3.52046875 18.62101562 -3.0409375 18.24203125 -2.546875 17.8515625 C-0.08992747 14.91067076 -0.42483833 11.48756833 -0.3125 7.8125 C-0.27833984 7.06291016 -0.24417969 6.31332031 -0.20898438 5.54101562 C-0.12665706 3.69453162 -0.06164719 1.84729006 0 0 Z " fill="#E9C949" transform="translate(151,182)"/>
<path d="M0 0 C2.33203125 1.52734375 2.33203125 1.52734375 4 3 C2.33710938 2.93039063 2.33710938 2.93039063 0.640625 2.859375 C-0.82288968 2.82184898 -2.28643356 2.78544971 -3.75 2.75 C-4.84441406 2.69972656 -4.84441406 2.69972656 -5.9609375 2.6484375 C-9.56477804 2.58291313 -11.55396072 2.65623724 -14.453125 4.890625 C-16.02541978 6.9105925 -16.02541978 6.9105925 -17 9 C-17.99 9 -18.98 9 -20 9 C-19.08651532 5.34606128 -18.06236171 4.04909326 -15.0625 1.6875 C-10.36810808 -0.73859331 -5.14784963 -0.8750556 0 0 Z " fill="#E8C84D" transform="translate(140,171)"/>
<path d="M0 0 C2.98487101 4.47730651 4.1372911 9.43966539 5.6875 14.5625 C6.02072266 15.62919922 6.35394531 16.69589844 6.69726562 17.79492188 C7.00728516 18.81263672 7.31730469 19.83035156 7.63671875 20.87890625 C8.06537231 22.27991577 8.06537231 22.27991577 8.50268555 23.70922852 C9 26 9 26 8 28 C5.22470464 24.08935654 4.33318429 20.52612678 3.52734375 15.890625 C3.35332031 15.26671875 3.17929687 14.6428125 3 14 C2.34 13.67 1.68 13.34 1 13 C0.5859375 10.05859375 0.5859375 10.05859375 0.375 6.4375 C0.30023438 5.23996094 0.22546875 4.04242188 0.1484375 2.80859375 C0.09945313 1.88175781 0.05046875 0.95492187 0 0 Z " fill="#ECCC52" transform="translate(260,186)"/>
<path d="M0 0 C1.69420767 4.0660984 0.1186342 7.35459085 -1.3125 11.25 C-3.14492377 16.4598323 -4.78974516 21.60886482 -6 27 C-6.33 27 -6.66 27 -7 27 C-6.67 22.71 -6.34 18.42 -6 14 C-5.67 14 -5.34 14 -5 14 C-4.67 11.69 -4.34 9.38 -4 7 C-3.34 7 -2.68 7 -2 7 C-1.34 4.69 -0.68 2.38 0 0 Z " fill="#EECC51" transform="translate(427,274)"/>
<path d="M0 0 C0.33 0.66 0.66 1.32 1 2 C0.67 2.99 0.34 3.98 0 5 C-0.66 5 -1.32 5 -2 5 C-2.33 6.98 -2.66 8.96 -3 11 C-4.32 11 -5.64 11 -7 11 C-7 12.65 -7 14.3 -7 16 C-8.5625 14.75 -8.5625 14.75 -10 13 C-9.71896715 8.92502363 -7.27380557 6.96646167 -4.4375 4.25 C-3.61121094 3.45078125 -2.78492188 2.6515625 -1.93359375 1.828125 C-1.29550781 1.22484375 -0.65742188 0.6215625 0 0 Z " fill="#EEC941" transform="translate(315,261)"/>
<path d="M0 0 C2.64 0.33 5.28 0.66 8 1 C8 1.66 8 2.32 8 3 C8.75925781 2.97679687 9.51851563 2.95359375 10.30078125 2.9296875 C11.29464844 2.91164063 12.28851563 2.89359375 13.3125 2.875 C14.29863281 2.85179687 15.28476562 2.82859375 16.30078125 2.8046875 C19 3 19 3 22 5 C19.79194476 5.0544452 17.58349446 5.09299283 15.375 5.125 C14.14523437 5.14820313 12.91546875 5.17140625 11.6484375 5.1953125 C8.05683959 5.0030428 5.33338825 4.30258556 2 3 C2 2.34 2 1.68 2 1 C1.34 0.67 0.68 0.34 0 0 Z " fill="#EACC55" transform="translate(326,298)"/>
<path d="M0 0 C5.17591092 5.17591092 4.23607697 12.97476145 4.265625 19.79296875 C4.01664342 22.7990552 3.57783544 24.47671554 2 27 C2.02320313 26.09378906 2.04640625 25.18757813 2.0703125 24.25390625 C2.16453862 17.89364283 2.16033926 12.01676653 0.4375 5.8671875 C0 4 0 4 0 0 Z " fill="#E9C945" transform="translate(275,106)"/>
<path d="M0 0 C1.32 0.99 2.64 1.98 4 3 C3.34 3 2.68 3 2 3 C2 3.66 2 4.32 2 5 C-4.7281627 5.22262303 -10.53991163 4.95021536 -17 3 C-13.39006828 1.86519473 -10.0157673 1.89984233 -6.25 1.9375 C-4.49429688 1.95103516 -4.49429688 1.95103516 -2.703125 1.96484375 C-1.81109375 1.97644531 -0.9190625 1.98804688 0 2 C0 1.34 0 0.68 0 0 Z " fill="#ECC532" transform="translate(148,392)"/>
<path d="M0 0 C3.72619658 4.62048376 7.36230673 9.30982806 11 14 C10.01 14.33 9.02 14.66 8 15 C7.401875 14.236875 6.80375 13.47375 6.1875 12.6875 C4.21870682 10.08344661 4.21870682 10.08344661 2.3125 8.625 C0.22759765 6.04369233 0.30385501 3.22086315 0 0 Z " fill="#ECC93F" transform="translate(299,283)"/>
<path d="M0 0 C1.35276714 2.70553429 0.5907217 4.04639151 0 7 C-0.28812605 12.18626886 0.40989163 16.13029312 2 21 C1.34 21.33 0.68 21.66 0 22 C-2.86695351 16.26609298 -4.39370038 11.22915978 -2.3203125 4.9375 C-1.61130836 3.26289973 -0.8132617 1.62652339 0 0 Z " fill="#ECD467" transform="translate(355,180)"/>
<path d="M0 0 C0 0.33 0 0.66 0 1 C-0.72445313 1.02578125 -1.44890625 1.0515625 -2.1953125 1.078125 C-8.44118143 1.44454931 -12.10182639 2.10657995 -17 6 C-17.66 6 -18.32 6 -19 6 C-19 6.99 -19 7.98 -19 9 C-19.99 9 -20.98 9 -22 9 C-21.10703222 5.42812886 -20.06280717 4.05164145 -17.1875 1.6875 C-11.89597825 -1.11588067 -5.80365718 -0.31418294 0 0 Z " fill="#EBD268" transform="translate(378,171)"/>
<path d="M0 0 C1.03115279 3.26913624 0.9638984 5.86041348 0.5625 9.25 C0.46066406 10.14203125 0.35882813 11.0340625 0.25390625 11.953125 C0.12822266 12.96632812 0.12822266 12.96632812 0 14 C0.66 14 1.32 14 2 14 C2.33 16.64 2.66 19.28 3 22 C-0.12395702 19.44403516 -1.03166757 16.87332971 -2 13 C-2.34609632 8.15465145 -1.7636118 4.51925525 0 0 Z " fill="#EACA4A" transform="translate(119,180)"/>
<path d="M0 0 C8.44646925 6.15034169 8.44646925 6.15034169 12 10 C10.35 10.66 8.7 11.32 7 12 C7 10.35 7 8.7 7 7 C5.35 6.67 3.7 6.34 2 6 C2 5.34 2 4.68 2 4 C1.34 4 0.68 4 0 4 C0 2.68 0 1.36 0 0 Z " fill="#EBCA40" transform="translate(106,287)"/>
<path d="M0 0 C0.9435441 2.53899138 1.16906025 3.60909275 0.07421875 6.140625 C-0.61220703 7.18476563 -0.61220703 7.18476563 -1.3125 8.25 C-1.76238281 8.95640625 -2.21226562 9.6628125 -2.67578125 10.390625 C-3.11277344 10.92171875 -3.54976563 11.4528125 -4 12 C-4.66 12 -5.32 12 -6 12 C-6 12.66 -6 13.32 -6 14 C-6.99 14.33 -7.98 14.66 -9 15 C-7.61219205 11.10993227 -5.7847773 8.03441292 -3.375 4.6875 C-2.74335938 3.80449219 -2.11171875 2.92148438 -1.4609375 2.01171875 C-0.97882813 1.34785156 -0.49671875 0.68398437 0 0 Z " fill="#EBC93F" transform="translate(348,218)"/>
<path d="M0 0 C1.98 0 3.96 0 6 0 C6.33 0.66 6.66 1.32 7 2 C9.54941373 2.31241371 12.00361513 2.51303421 14.5625 2.625 C15.62887695 2.68300781 15.62887695 2.68300781 16.71679688 2.7421875 C18.47742425 2.83671783 20.23867728 2.91945817 22 3 C22 3.33 22 3.66 22 4 C14.56144476 5.80328612 7.93074236 5.24227862 1 2 C0.67 1.34 0.34 0.68 0 0 Z " fill="#EFD062" transform="translate(432,243)"/>
<path d="M0 0 C1.32 0.33 2.64 0.66 4 1 C3.44854729 6.23880078 2.57077907 10.97350697 1 16 C0.67 16 0.34 16 0 16 C0.14148989 14.3954444 0.28835686 12.79136233 0.4375 11.1875 C0.51871094 10.29417969 0.59992188 9.40085937 0.68359375 8.48046875 C1 6 1 6 2 3 C0.68 3.99 -0.64 4.98 -2 6 C-2.66 5.67 -3.32 5.34 -4 5 C-2.68 3.35 -1.36 1.7 0 0 Z " fill="#EBD26C" transform="translate(430,250)"/>
<path d="M0 0 C0.66 0 1.32 0 2 0 C2.6875 2.25 2.6875 2.25 3 5 C1.5625 7.3125 1.5625 7.3125 0 9 C-1.65 8.67 -3.3 8.34 -5 8 C-4.01 6.02 -3.02 4.04 -2 2 C-1.34 2 -0.68 2 0 2 C0 1.34 0 0.68 0 0 Z " fill="#F1C41D" transform="translate(406,276)"/>
<path d="M0 0 C0.33 0.66 0.66 1.32 1 2 C2.32 2 3.64 2 5 2 C4.67 4.64 4.34 7.28 4 10 C3.34 10 2.68 10 2 10 C1.67 8.35 1.34 6.7 1 5 C0.01 6.485 0.01 6.485 -1 8 C-1.66 8 -2.32 8 -3 8 C-2.74438677 5.6568787 -2.40729228 3.32156597 -2 1 C-1.34 0.67 -0.68 0.34 0 0 Z " fill="#EFC324" transform="translate(425,264)"/>
<path d="M0 0 C0.33 0 0.66 0 1 0 C0.67 3.3 0.34 6.6 0 10 C-0.99 10 -1.98 10 -3 10 C-3.33 11.65 -3.66 13.3 -4 15 C-4.66 15 -5.32 15 -6 15 C-4.36041242 9.76727367 -2.61047965 4.84803364 0 0 Z " fill="#EECA46" transform="translate(216,255)"/>
<path d="M0 0 C0.99 0.144375 1.98 0.28875 3 0.4375 C9.96446221 1.32067456 16.99473922 1.60042809 24 2 C24 2.33 24 2.66 24 3 C20.93781928 3.27646774 17.8783422 3.52190671 14.8125 3.75 C13.94818359 3.83121094 13.08386719 3.91242188 12.19335938 3.99609375 C5.69679834 4.44413244 5.69679834 4.44413244 1.88671875 2.015625 C1.26410156 1.35046875 0.64148438 0.6853125 0 0 Z " fill="#EAC852" transform="translate(144,311)"/>
<path d="M0 0 C5.94183297 1.43423554 8.08147048 3.17719443 12 8 C12.66 8.33 13.32 8.66 14 9 C13.67 9.66 13.34 10.32 13 11 C6.23076923 7.55384615 6.23076923 7.55384615 5.0625 4.75 C5.041875 4.1725 5.02125 3.595 5 3 C3.35 2.67 1.7 2.34 0 2 C0 1.34 0 0.68 0 0 Z " fill="#ECCD4F" transform="translate(61,194)"/>
<path d="M0 0 C1.29683623 3.89050869 0.41347964 5.68528522 -0.8125 9.5625 C-1.16957031 10.71878906 -1.52664063 11.87507813 -1.89453125 13.06640625 C-3 16 -3 16 -5 18 C-5.042721 16.33388095 -5.04063832 14.66617115 -5 13 C-4.67 12.67 -4.34 12.34 -4 12 C-3.63239269 9.67182036 -3.29758419 7.3381615 -3 5 C-2.34 5 -1.68 5 -1 5 C-0.67 3.35 -0.34 1.7 0 0 Z " fill="#ECCC4E" transform="translate(402,363)"/>
<path d="M0 0 C0.99 0.33 1.98 0.66 3 1 C3 1.66 3 2.32 3 3 C3.99 3.33 4.98 3.66 6 4 C6 4.99 6 5.98 6 7 C6.66 7 7.32 7 8 7 C8.66 9.31 9.32 11.62 10 14 C5.7850053 10.14629056 2.75158756 6.01140202 0 1 C0 0.67 0 0.34 0 0 Z " fill="#EDCD4B" transform="translate(308,277)"/>
<path d="M0 0 C2.46477712 2.30193899 4.31755197 4.75988654 6.1875 7.5625 C6.71730469 8.34753906 7.24710938 9.13257813 7.79296875 9.94140625 C9 12 9 12 9 14 C7.68 14 6.36 14 5 14 C4.71125 12.865625 4.4225 11.73125 4.125 10.5625 C3.75375 9.386875 3.3825 8.21125 3 7 C2.34 6.67 1.68 6.34 1 6 C0.375 2.9375 0.375 2.9375 0 0 Z " fill="#ECCB4C" transform="translate(152,208)"/>
<path d="M0 0 C2.31 0 4.62 0 7 0 C7 0.66 7 1.32 7 2 C5.35 2 3.7 2 2 2 C1.01 4.97 0.02 7.94 -1 11 C-2.13757948 6.44968209 -1.4283779 4.36915594 0 0 Z " fill="#EBC94B" transform="translate(247,161)"/>
<path d="M0 0 C0 0.33 0 0.66 0 1 C-0.95261719 1.03738281 -1.90523438 1.07476562 -2.88671875 1.11328125 C-4.14097656 1.17902344 -5.39523438 1.24476562 -6.6875 1.3125 C-7.92886719 1.37050781 -9.17023438 1.42851563 -10.44921875 1.48828125 C-14.11162091 2.01608618 -15.90145709 3.11553694 -19 5 C-21.3125 4.6875 -21.3125 4.6875 -23 4 C-15.58521483 -0.84230868 -8.5168236 -0.39922611 0 0 Z " fill="#EBCE63" transform="translate(258,91)"/>
<path d="M0 0 C3.63559661 3.43361902 6.36113346 6.7973607 9 11 C8.67 11.66 8.34 12.32 8 13 C7.34 11.68 6.68 10.36 6 9 C5.34 9 4.68 9 4 9 C4 8.34 4 7.68 4 7 C3.01 7 2.02 7 1 7 C0.67 4.69 0.34 2.38 0 0 Z " fill="#EBCC4A" transform="translate(161,222)"/>
<path d="M0 0 C0.66 0.33 1.32 0.66 2 1 C2.4140625 3.06640625 2.4140625 3.06640625 2.625 5.5625 C2.69976562 6.38878906 2.77453125 7.21507812 2.8515625 8.06640625 C2.92503906 9.02353516 2.92503906 9.02353516 3 10 C1.68 10 0.36 10 -1 10 C-0.67 6.7 -0.34 3.4 0 0 Z " fill="#E7BE11" transform="translate(73,204)"/>
<path d="M0 0 C1.65 0 3.3 0 5 0 C5.309375 1.11375 5.61875 2.2275 5.9375 3.375 C6.82326483 6.7945155 6.82326483 6.7945155 8 9 C4.20620942 7.50958227 2.31656242 5.30937488 0 2 C0 1.34 0 0.68 0 0 Z " fill="#EAC93F" transform="translate(424,234)"/>
<path d="M0 0 C0.61328125 1.796875 0.61328125 1.796875 1 4 C-0.8125 7.25 -0.8125 7.25 -3 10 C-3.66 10 -4.32 10 -5 10 C-5 10.66 -5 11.32 -5 12 C-5.66 12 -6.32 12 -7 12 C-5.61735163 9.13132769 -4.07851447 6.43975968 -2.375 3.75 C-1.92898437 3.04359375 -1.48296875 2.3371875 -1.0234375 1.609375 C-0.68570313 1.07828125 -0.34796875 0.5471875 0 0 Z " fill="#ECCB4A" transform="translate(204,279)"/>
<path d="M0 0 C0.66 0 1.32 0 2 0 C1.84518205 2.70931419 1.51827919 4.46584039 -0.40234375 6.4453125 C-1.89771708 7.67679642 -3.4462924 8.8429837 -5 10 C-5.33 9.01 -5.66 8.02 -6 7 C-5.01 7 -4.02 7 -3 7 C-3 5.68 -3 4.36 -3 3 C-2.01 3 -1.02 3 0 3 C0 2.01 0 1.02 0 0 Z " fill="#EBC741" transform="translate(383,198)"/>
<path d="M0 0 C-0.875 3.875 -0.875 3.875 -2 5 C-4.67058851 5.14115161 -7.32432238 5.04247107 -10 5 C-3.63636364 0 -3.63636364 0 0 0 Z " fill="#EBD045" transform="translate(374,303)"/>
<path d="M0 0 C3.28788824 3.11016455 5.83735988 6.01618925 8 10 C7.01 10.495 7.01 10.495 6 11 C5.67 10.34 5.34 9.68 5 9 C4.01 8.67 3.02 8.34 2 8 C1.26953125 6.15234375 1.26953125 6.15234375 0.8125 3.9375 C0.65394531 3.20402344 0.49539062 2.47054687 0.33203125 1.71484375 C0.22246094 1.14894531 0.11289063 0.58304688 0 0 Z " fill="#EECC4D" transform="translate(178,245)"/>
<path d="M0 0 C1 3 1 3 0.3125 5 C-1.17477001 7.26631621 -2.75769234 8.50512823 -5 10 C-5.66 9.67 -6.32 9.34 -7 9 C-4.69 6.03 -2.38 3.06 0 0 Z " fill="#EDCB3F" transform="translate(331,242)"/>
<path d="M0 0 C1.1875 1.5 1.1875 1.5 2 4 C1.39095434 6.85144105 0.49729165 9.49304042 -1 12 C-1.99 12.33 -2.98 12.66 -4 13 C-3.52140759 11.39566191 -3.04210442 9.79153584 -2.5625 8.1875 C-2.29566406 7.29417969 -2.02882812 6.40085938 -1.75390625 5.48046875 C-1.19612127 3.64526945 -0.60655425 1.81966274 0 0 Z " fill="#EDCD51" transform="translate(225,232)"/>
<path d="M0 0 C0.33 0 0.66 0 1 0 C1 3.3 1 6.6 1 10 C0.34 10 -0.32 10 -1 10 C-1.66 11.98 -2.32 13.96 -3 16 C-4.57159226 12.85681547 -3.04018399 10.07066611 -2.0625 6.875 C-1.86720703 6.21628906 -1.67191406 5.55757812 -1.47070312 4.87890625 C-0.98695014 3.25066448 -0.49430925 1.62506818 0 0 Z " fill="#F1D158" transform="translate(244,172)"/>
<path d="M0 0 C2.74277578 3.19990508 4.6302836 6.00499382 6 10 C5.01 9.67 4.02 9.34 3 9 C3 9.66 3 10.32 3 11 C2.34 11 1.68 11 1 11 C0.67 7.37 0.34 3.74 0 0 Z " fill="#EDC83E" transform="translate(293,273)"/>
<path d="M0 0 C0.99 0.66 1.98 1.32 3 2 C2.54663921 6.87362847 1.2910841 9.39042389 -2 13 C-2 11.35 -2 9.7 -2 8 C-1.34 8 -0.68 8 0 8 C0 5.36 0 2.72 0 0 Z " fill="#ECCB52" transform="translate(195,265)"/>
<path d="M0 0 C0.33 1.32 0.66 2.64 1 4 C0.34 4 -0.32 4 -1 4 C-1 4.66 -1 5.32 -1 6 C-1.99 6.66 -2.98 7.32 -4 8 C-5.32 7.67 -6.64 7.34 -8 7 C-5.36 4.69 -2.72 2.38 0 0 Z " fill="#EECC4C" transform="translate(188,300)"/>
<path d="M0 0 C1.125 3.75 1.125 3.75 0 6 C-0.66 6 -1.32 6 -2 6 C-2 6.66 -2 7.32 -2 8 C-3.65 8.33 -5.3 8.66 -7 9 C-6.02180976 7.68677212 -5.0424189 6.37443848 -4.0625 5.0625 C-3.51722656 4.33160156 -2.97195312 3.60070312 -2.41015625 2.84765625 C-1 1 -1 1 0 0 Z " fill="#EFCD49" transform="translate(196,291)"/>
<path d="M0 0 C3.87747431 1.93873716 4.83478703 8.51305651 6.1875 12.5 C6.455625 13.325 6.72375 14.15 7 15 C3.41399008 12.60932672 2.63830224 10.94681904 1 7 C0.3125 3.125 0.3125 3.125 0 0 Z " fill="#ECD772" transform="translate(284,254)"/>
<path d="M0 0 C2.5 2.3125 2.5 2.3125 5 5 C5 5.99 5 6.98 5 8 C2.5625 7.25 2.5625 7.25 0 6 C-0.875 4 -0.875 4 -1 2 C-0.67 1.34 -0.34 0.68 0 0 Z " fill="#ECC940" transform="translate(269,98)"/>
<path d="M0 0 C1.09054687 0.02320313 2.18109375 0.04640625 3.3046875 0.0703125 C4.40039062 0.08835937 5.49609375 0.10640625 6.625 0.125 C7.46804688 0.14820313 8.31109375 0.17140625 9.1796875 0.1953125 C9.1796875 0.5253125 9.1796875 0.8553125 9.1796875 1.1953125 C7.59882702 1.56035853 6.01484843 1.91191756 4.4296875 2.2578125 C3.54796875 2.45503906 2.66625 2.65226562 1.7578125 2.85546875 C-0.80710278 3.19357122 -2.39122889 3.00689885 -4.8203125 2.1953125 C-2.8203125 0.1953125 -2.8203125 0.1953125 0 0 Z " fill="#ECCB4D" transform="translate(348.8203125,396.8046875)"/>
<path d="M0 0 C-0.33 1.32 -0.66 2.64 -1 4 C-4.63 4.33 -8.26 4.66 -12 5 C-8.45976076 2.63984051 -4.36489861 0 0 0 Z " fill="#EED34F" transform="translate(180,308)"/>
<path d="M0 0 C3.24299151 2.38957269 5.50902342 4.2047869 7 8 C4.03 7.505 4.03 7.505 1 7 C0.67 4.69 0.34 2.38 0 0 Z " fill="#ECC63C" transform="translate(74,255)"/>
<path d="M0 0 C0.99 0 1.98 0 3 0 C3 1.98 3 3.96 3 6 C2.01 6 1.02 6 0 6 C-0.33 7.32 -0.66 8.64 -1 10 C-1.66 10 -2.32 10 -3 10 C-2.690625 9.278125 -2.38125 8.55625 -2.0625 7.8125 C-1.07439461 5.19692691 -0.4712246 2.74881018 0 0 Z " fill="#ECCB42" transform="translate(356,202)"/>
<path d="M0 0 C1.7074998 1.28062485 3.37373596 2.61767557 5 4 C5 4.66 5 5.32 5 6 C5.66 6 6.32 6 7 6 C7 6.66 7 7.32 7 8 C5.68 8 4.36 8 3 8 C3 6.68 3 5.36 3 4 C1.68 4.33 0.36 4.66 -1 5 C-0.67 3.35 -0.34 1.7 0 0 Z " fill="#EDCD4C" transform="translate(186,255)"/>
<path d="M0 0 C0.66 0 1.32 0 2 0 C2.53229326 1.26607607 3.05044544 2.53810412 3.5625 3.8125 C3.85253906 4.52019531 4.14257812 5.22789062 4.44140625 5.95703125 C5 8 5 8 4 11 C3.32591692 9.73308493 2.66099503 8.46129251 2 7.1875 C1.62875 6.47980469 1.2575 5.77210938 0.875 5.04296875 C0 3 0 3 0 0 Z " fill="#EBCC4B" transform="translate(29,225)"/>
<path d="M0 0 C1.72357119 2.58535679 2.44735018 4.03811614 3.1875 6.9375 C3.36667969 7.60652344 3.54585938 8.27554688 3.73046875 8.96484375 C4.03268678 11.24680888 3.68756692 12.82026659 3 15 C0.73045369 11.59568053 0.63450051 9.83475798 0.375 5.8125 C0.30023438 4.72582031 0.22546875 3.63914063 0.1484375 2.51953125 C0.09945312 1.68808594 0.05046875 0.85664063 0 0 Z " fill="#E8C848" transform="translate(254,164)"/>
<path d="M0 0 C1.64846769 0.44876616 3.29373455 0.90930488 4.9375 1.375 C5.85402344 1.63023437 6.77054688 1.88546875 7.71484375 2.1484375 C10 3 10 3 11 5 C7.37 4.34 3.74 3.68 0 3 C0 2.01 0 1.02 0 0 Z " fill="#EDCD57" transform="translate(133,306)"/>
<path d="M0 0 C2.11386464 2.11386464 2.97008322 3.79267603 4.1875 6.5 C4.55230469 7.2940625 4.91710937 8.088125 5.29296875 8.90625 C5.52628906 9.5971875 5.75960938 10.288125 6 11 C5.67 11.66 5.34 12.32 5 13 C0.87010523 8.73688282 0.38728235 5.71241466 0 0 Z " fill="#EED15E" transform="translate(278,240)"/>
<path d="M0 0 C0.33 1.32 0.66 2.64 1 4 C-0.3125 5.75 -0.3125 5.75 -2 7 C-2.66 7 -3.32 7 -4 7 C-4 7.66 -4 8.32 -4 9 C-4.66 8.67 -5.32 8.34 -6 8 C-4.02 5.36 -2.04 2.72 0 0 Z " fill="#ECCC4E" transform="translate(338,233)"/>
<path d="M0 0 C0.33 0.99 0.66 1.98 1 3 C1.66 3.33 2.32 3.66 3 4 C-3.75 8 -3.75 8 -6 8 C-5.67 7.01 -5.34 6.02 -5 5 C-3.68 5 -2.36 5 -1 5 C-0.67 3.35 -0.34 1.7 0 0 Z " fill="#EEC93C" transform="translate(265,144)"/>
<path d="M0 0 C-0.33 0.66 -0.66 1.32 -1 2 C-4.47325181 3.1577506 -7.36067448 3.06866652 -11 3 C-7.48550811 -0.37391222 -4.73940561 -0.27342725 0 0 Z " fill="#EAC737" transform="translate(356,299)"/>
<path d="M0 0 C-1.09068668 3.77545388 -1.9083091 6.47043472 -5 9 C-4.4140625 2.84765625 -4.4140625 2.84765625 -4 1 C-2 0 -2 0 0 0 Z " fill="#ECCE58" transform="translate(78,230)"/>
<path d="M0 0 C0.33 0.66 0.66 1.32 1 2 C0.360625 2.61875 -0.27875 3.2375 -0.9375 3.875 C-3.03883584 5.82597612 -3.03883584 5.82597612 -4 8 C-4.99 8 -5.98 8 -7 8 C-5.98823563 4.59679258 -5.35156418 3.24274669 -2.375 1.1875 C-1.59125 0.795625 -0.8075 0.40375 0 0 Z " fill="#EECD59" transform="translate(127,172)"/>
<path d="M0 0 C1.32 0.33 2.64 0.66 4 1 C4 3.31 4 5.62 4 8 C1 6 1 6 0.3125 2.875 C0.209375 1.92625 0.10625 0.9775 0 0 Z " fill="#EDC938" transform="translate(75,280)"/>
<path d="M0 0 C1.2380014 3.57644848 0.74926071 6.33694766 0 10 C-0.66 10 -1.32 10 -2 10 C-2.6875 8.375 -2.6875 8.375 -3 6 C-1.5625 2.75 -1.5625 2.75 0 0 Z " fill="#EBCB4B" transform="translate(425,204)"/>
<path d="M0 0 C0.66 0.33 1.32 0.66 2 1 C1.67 1.99 1.34 2.98 1 4 C-1.5625 5.1875 -1.5625 5.1875 -4 6 C-4 6.66 -4 7.32 -4 8 C-4.66 7.67 -5.32 7.34 -6 7 C-4.02 4.69 -2.04 2.38 0 0 Z " fill="#EED562" transform="translate(38,196)"/>
<path d="M0 0 C5.75 1.625 5.75 1.625 8 5 C5.69 4.67 3.38 4.34 1 4 C0.67 2.68 0.34 1.36 0 0 Z " fill="#ECCE58" transform="translate(261,93)"/>
<path d="M0 0 C0.33 0 0.66 0 1 0 C1 2.64 1 5.28 1 8 C-0.98 8.99 -0.98 8.99 -3 10 C-2.01 6.7 -1.02 3.4 0 0 Z " fill="#EFD252" transform="translate(220,245)"/>
<path d="M0 0 C2.66735273 2.48952921 4.55746343 4.63408134 6 8 C4.125 7.6875 4.125 7.6875 2 7 C0 4 0 4 0 0 Z " fill="#EBC644" transform="translate(172,237)"/>
<path d="M0 0 C0.66 0 1.32 0 2 0 C1.67 1.65 1.34 3.3 1 5 C0.34 5 -0.32 5 -1 5 C-1 5.66 -1 6.32 -1 7 C-1.66 6.67 -2.32 6.34 -3 6 C-1.125 1.125 -1.125 1.125 0 0 Z " fill="#EFC738" transform="translate(462,236)"/>
<path d="M0 0 C0.66 0 1.32 0 2 0 C2.66 2.97 3.32 5.94 4 9 C2.68 8.34 1.36 7.68 0 7 C-0.93580311 4.12060581 -1.37245106 2.74490212 0 0 Z " fill="#EEC830" transform="translate(148,199)"/>
<path d="M0 0 C3.36720387 1.39332574 4.9859524 2.9789286 7 6 C6.67 6.66 6.34 7.32 6 8 C5.01 7.34 4.02 6.68 3 6 C3 5.01 3 4.02 3 3 C2.01 3 1.02 3 0 3 C0 2.01 0 1.02 0 0 Z " fill="#EBCC54" transform="translate(144,174)"/>
<path d="M0 0 C1.33332095 2.6666419 0.67102033 4.16680303 0 7 C-0.66 7 -1.32 7 -2 7 C-2 7.66 -2 8.32 -2 9 C-2.66 9 -3.32 9 -4 9 C-2.94124926 5.59687262 -1.99097846 2.98646769 0 0 Z " fill="#EED14F" transform="translate(209,270)"/>
<path d="M0 0 C1.32 0.33 2.64 0.66 4 1 C-0.75 5 -0.75 5 -3 5 C-3 4.01 -3 3.02 -3 2 C-2.01 2 -1.02 2 0 2 C0 1.34 0 0.68 0 0 Z " fill="#EDCA4E" transform="translate(175,295)"/>
<path d="" fill="#FFFFFF" transform="translate(0,0)"/>
<path d="" fill="#FFFFFF" transform="translate(0,0)"/>
<path d="" fill="#FFFFFF" transform="translate(0,0)"/>
<path d="" fill="#FFFFFF" transform="translate(0,0)"/>
<path d="" fill="#FFFFFF" transform="translate(0,0)"/>
<path d="" fill="#FFFFFF" transform="translate(0,0)"/>
<path d="" fill="#FFFFFF" transform="translate(0,0)"/>
<path d="" fill="#FFFFFF" transform="translate(0,0)"/>
<path d="" fill="#FFFFFF" transform="translate(0,0)"/>
<path d="" fill="#FFFFFF" transform="translate(0,0)"/>
<path d="" fill="#FFFFFF" transform="translate(0,0)"/>
<path d="" fill="#FFFFFF" transform="translate(0,0)"/>
<path d="" fill="#FFFFFF" transform="translate(0,0)"/>
<path d="" fill="#FFFFFF" transform="translate(0,0)"/>
<path d="" fill="#FFFFFF" transform="translate(0,0)"/>
<path d="" fill="#FFFFFF" transform="translate(0,0)"/>
<path d="" fill="#FFFFFF" transform="translate(0,0)"/>
<path d="" fill="#FFFFFF" transform="translate(0,0)"/>
<path d="" fill="#FFFFFF" transform="translate(0,0)"/>
<path d="" fill="#FFFFFF" transform="translate(0,0)"/>
<path d="" fill="#FFFFFF" transform="translate(0,0)"/>
<path d="" fill="#FFFFFF" transform="translate(0,0)"/>
<path d="" fill="#FFFFFF" transform="translate(0,0)"/>
<path d="" fill="#FFFFFF" transform="translate(0,0)"/>
<path d="" fill="#FFFFFF" transform="translate(0,0)"/>
<path d="" fill="#FFFFFF" transform="translate(0,0)"/>
<path d="" fill="#FFFFFF" transform="translate(0,0)"/>
<path d="" fill="#FFFFFF" transform="translate(0,0)"/>
<path d="" fill="#FFFFFF" transform="translate(0,0)"/>
<path d="" fill="#FFFFFF" transform="translate(0,0)"/>
<path d="" fill="#FFFFFF" transform="translate(0,0)"/>
<path d="" fill="#FFFFFF" transform="translate(0,0)"/>
<path d="" fill="#FFFFFF" transform="translate(0,0)"/>
<path d="" fill="#FFFFFF" transform="translate(0,0)"/>
<path d="" fill="#FFFFFF" transform="translate(0,0)"/>
<path d="" fill="#FFFFFF" transform="translate(0,0)"/>
<path d="" fill="#FFFFFF" transform="translate(0,0)"/>
<path d="" fill="#FFFFFF" transform="translate(0,0)"/>
<path d="" fill="#FFFFFF" transform="translate(0,0)"/>
<path d="" fill="#FFFFFF" transform="translate(0,0)"/>
<path d="" fill="#FFFFFF" transform="translate(0,0)"/>
<path d="" fill="#FFFFFF" transform="translate(0,0)"/>
<path d="" fill="#FFFFFF" transform="translate(0,0)"/>
<path d="" fill="#FFFFFF" transform="translate(0,0)"/>
<path d="" fill="#FFFFFF" transform="translate(0,0)"/>
<path d="" fill="#FFFFFF" transform="translate(0,0)"/>
<path d="" fill="#FFFFFF" transform="translate(0,0)"/>
<path d="" fill="#FFFFFF" transform="translate(0,0)"/>
<path d="" fill="#FFFFFF" transform="translate(0,0)"/>
<path d="" fill="#FFFFFF" transform="translate(0,0)"/>
<path d="" fill="#FFFFFF" transform="translate(0,0)"/>
<path d="" fill="#FFFFFF" transform="translate(0,0)"/>
<path d="" fill="#FFFFFF" transform="translate(0,0)"/>
<path d="" fill="#FFFFFF" transform="translate(0,0)"/>
<path d="" fill="#FFFFFF" transform="translate(0,0)"/>
<path d="" fill="#FFFFFF" transform="translate(0,0)"/>
<path d="" fill="#FFFFFF" transform="translate(0,0)"/>
<path d="" fill="#FFFFFF" transform="translate(0,0)"/>
<path d="" fill="#FFFFFF" transform="translate(0,0)"/>
<path d="" fill="#FFFFFF" transform="translate(0,0)"/>
<path d="" fill="#FFFFFF" transform="translate(0,0)"/>
<path d="" fill="#FFFFFF" transform="translate(0,0)"/>
<path d="" fill="#FFFFFF" transform="translate(0,0)"/>
</svg>
