<?xml version="1.0" encoding="UTF-8"?>
<svg version="1.1" xmlns="http://www.w3.org/2000/svg" width="223" height="166">
<path d="M0 0 C8.25 0 16.5 0 25 0 C27.25 5.625 27.25 5.625 27.24050903 9.01802063 C27.24325836 9.78216782 27.24600769 10.546315 27.24884033 11.33361816 C27.24164978 12.15720825 27.23445923 12.98079834 27.22705078 13.8293457 C27.22734283 14.70789719 27.22763489 15.58644867 27.22793579 16.49162292 C27.22654595 19.38644393 27.21100096 22.28100538 27.1953125 25.17578125 C27.19158114 27.18645589 27.18873475 29.19713234 27.18673706 31.20780945 C27.17911028 36.49322553 27.15946992 41.77853125 27.1373291 47.06390381 C27.11685015 52.45990506 27.10773096 57.85592419 27.09765625 63.25195312 C27.07622318 73.83468384 27.0420987 84.41733273 27 95 C43.73330784 94.9628301 60.46635671 94.90296484 77.19947338 94.81609726 C84.96900465 94.77629172 92.73843441 94.74390699 100.50805664 94.72900391 C107.28025617 94.71599516 114.05223249 94.68905064 120.82430631 94.64538693 C124.409962 94.62275428 127.99534221 94.60709037 131.58107567 94.60811615 C135.58455866 94.60900027 139.58722804 94.57877157 143.59057617 94.54589844 C144.77884506 94.5509288 145.96711395 94.55595917 147.19139099 94.56114197 C153.46852214 94.53168611 153.46852214 94.53168611 159.15058899 92.15338135 C162.34030128 88.43940597 163.51628564 86.03954021 163.37890625 81.06640625 C162.69957324 77.36159013 160.71036697 75.47468289 158 73 C153.88616322 71.31314206 150.42830923 70.75557585 146.00146484 70.77636719 C144.83940521 70.77586365 143.67734558 70.77536011 142.48007202 70.77484131 C141.23625763 70.78211243 139.99244324 70.78938354 138.7109375 70.796875 C136.73180666 70.78902442 134.75267523 70.78113708 132.77355385 70.77118301 C127.91908422 70.74869546 123.06490648 70.74420554 118.21044922 70.77001953 C115.48232889 70.78361072 112.75509227 70.78105425 110.02700806 70.76153564 C107.46926032 70.74390843 104.91121657 70.74903248 102.35360718 70.78094482 C91.61386483 70.66170288 83.14915228 67.49327698 75.5 59.8125 C68.86051984 51.58561813 66.44364743 41.48095511 67.21875 31.05859375 C68.16463604 23.9371633 70.40824619 18.19646077 74 12 C74.66 12 75.32 12 76 12 C76.66 10.68 77.32 9.36 78 8 C78.66 8 79.32 8 80 8 C80 7.34 80 6.68 80 6 C88.43421483 0.836195 95.18263674 -0.29664061 104.98413086 -0.22705078 C106.60963364 -0.22748886 106.60963364 -0.22748886 108.26797485 -0.22793579 C111.83368055 -0.2265475 115.39917475 -0.21100968 118.96484375 -0.1953125 C121.44348537 -0.1915806 123.92212847 -0.18873446 126.40077209 -0.18673706 C132.91256815 -0.17911461 139.42427446 -0.15947795 145.93603516 -0.1373291 C152.58559475 -0.11575462 159.23518054 -0.10772896 165.88476562 -0.09765625 C178.92321529 -0.07623083 191.96160286 -0.04249807 205 0 C205 7.72196541 198.24137768 13.52025675 193.06655884 18.84429932 C181.67727378 29.70506171 169.18687788 29.56424872 154.1554451 29.30529022 C150.48913968 29.20465091 146.82722281 29.03942267 143.16363525 28.86798096 C137.56600561 28.63115769 131.96419914 28.5535433 126.36272621 28.45615005 C122.01446432 28.37832877 117.67164472 28.27664089 113.32626343 28.09759521 C112.5330217 28.06990555 111.73977997 28.04221588 110.92250061 28.01368713 C109.45015176 27.96143377 107.97815153 27.89735934 106.50697327 27.81877136 C102.13180743 27.68053744 99.43724672 28.23802826 96 31 C94.77610387 34.51870138 94.66459743 36.22476178 96.1491394 39.65608215 C97.78689118 42.22311305 97.78689118 42.22311305 100.54006958 42.6257782 C102.06155106 42.62672234 102.06155106 42.62672234 103.61376953 42.62768555 C104.76571808 42.64087326 105.91766663 42.65406097 107.10452271 42.66764832 C108.35135834 42.65744156 109.59819397 42.6472348 110.8828125 42.63671875 C112.84505294 42.65257889 114.80729335 42.66844831 116.76952934 42.68484974 C119.52359987 42.70171624 122.27745277 42.69593201 125.03155518 42.69030762 C129.82514562 42.68387871 134.61860867 42.7067981 139.41207886 42.7389679 C141.96194434 42.75381133 144.5119037 42.75772899 147.0617981 42.74919128 C156.19328794 42.77829097 164.0024897 43.43182945 172.0625 48.125 C173.00222656 48.66382813 173.94195312 49.20265625 174.91015625 49.7578125 C175.59980469 50.16773438 176.28945312 50.57765625 177 51 C177 51.66 177 52.32 177 53 C177.59683594 53.24621094 178.19367188 53.49242187 178.80859375 53.74609375 C184.74367986 57.14210559 187.5721723 64.68559148 189.45703125 70.95703125 C189.63621094 71.63121094 189.81539062 72.30539063 190 73 C190.185625 73.639375 190.37125 74.27875 190.5625 74.9375 C192.69539871 84.99259391 190.59377489 95.13506554 185.43359375 103.84765625 C183.25060737 107.12510992 180.91915618 110.33766108 178 113 C177.34 113 176.68 113 176 113 C176 113.66 176 114.32 176 115 C174.48329636 115.79955001 172.96138002 116.58921388 171.4375 117.375 C170.59058594 117.81585938 169.74367187 118.25671875 168.87109375 118.7109375 C163.30118354 121.21171351 158.2126742 122.25013862 152.1219635 122.24050903 C151.4666977 122.24221788 150.8114319 122.24392673 150.13630956 122.24568737 C147.96063156 122.2489577 145.78526829 122.2380197 143.60961914 122.22705078 C142.04210416 122.22648613 140.47458865 122.22680427 138.90707397 122.22793579 C134.66584152 122.22850822 130.42472283 122.21677177 126.18351674 122.20278788 C121.74592116 122.19026213 117.30832281 122.18910856 112.87071228 122.18673706 C104.47379448 122.18052771 96.07692892 122.16412427 87.6800341 122.14403808 C76.32884131 122.11747592 64.97763416 122.10670203 53.62641811 122.09503365 C35.75090629 122.07624329 17.87550472 122.03639397 0 122 C0 81.74 0 41.48 0 0 Z " fill="#0A0A0A" transform="translate(14,6)"/>
<path d="M0 0 C46.2 0 92.4 0 140 0 C140 4 140 4 137.953125 6.21875 C136.61507812 7.34796875 136.61507812 7.34796875 135.25 8.5 C131.41219541 11.77156316 131.41219541 11.77156316 127.796875 15.28125 C126 17 126 17 124 17 C124 17.66 124 18.32 124 19 C123.34 19 122.68 19 122 19 C122 19.66 122 20.32 122 21 C121.34 21 120.68 21 120 21 C120 21.66 120 22.32 120 23 C113.54116121 27.7387727 107.82487214 27.5464977 99.99633789 27.45410156 C98.69809082 27.45468567 97.39984375 27.45526978 96.06225586 27.45587158 C92.51917062 27.45701484 88.97663187 27.43356952 85.43367314 27.40557575 C81.7248078 27.38049665 78.01592863 27.37821499 74.30699158 27.37347412 C67.29120132 27.36106337 60.27566169 27.32826777 53.25998157 27.28807616 C45.26968026 27.24329902 37.2793667 27.22135652 29.28897107 27.20129442 C12.85916756 27.15953323 -3.57038419 27.08921851 -20 27 C-20.66 25.68 -21.32 24.36 -22 23 C-20.88200014 21.66079162 -19.75538103 20.32877444 -18.625 19 C-17.68527344 17.88625 -17.68527344 17.88625 -16.7265625 16.75 C-15.87191406 15.88375 -15.87191406 15.88375 -15 15 C-14.34 15 -13.68 15 -13 15 C-13 14.34 -13 13.68 -13 13 C-12.34 13 -11.68 13 -11 13 C-11 12.34 -11 11.68 -11 11 C-10.34 11 -9.68 11 -9 11 C-8.773125 10.443125 -8.54625 9.88625 -8.3125 9.3125 C-6.62449964 6.33840412 -4.53323483 4.27991135 -2 2 C-1.34 2 -0.68 2 0 2 C0 1.34 0 0.68 0 0 Z " fill="#101010" transform="translate(23,137)"/>
<path d="M0 0 C-1.48440748 4.7006237 -1.48440748 4.7006237 -3.9375 6.125 C-4.618125 6.41375 -5.29875 6.7025 -6 7 C-6.53625 7.53625 -7.0725 8.0725 -7.625 8.625 C-8.07875 9.07875 -8.5325 9.5325 -9 10 C-9.66 10 -10.32 10 -11 10 C-11 9.34 -11 8.68 -11 8 C-10.34 8 -9.68 8 -9 8 C-8.34 6.68 -7.68 5.36 -7 4 C-6.34 4 -5.68 4 -5 4 C-5 3.34 -5 2.68 -5 2 C-2 0 -2 0 0 0 Z " fill="#606060" transform="translate(99,10)"/>
<path d="" fill="#FFFFFF" transform="translate(0,0)"/>
<path d="" fill="#FFFFFF" transform="translate(0,0)"/>
<path d="" fill="#FFFFFF" transform="translate(0,0)"/>
<path d="" fill="#FFFFFF" transform="translate(0,0)"/>
<path d="" fill="#FFFFFF" transform="translate(0,0)"/>
<path d="" fill="#FFFFFF" transform="translate(0,0)"/>
<path d="" fill="#FFFFFF" transform="translate(0,0)"/>
</svg>
