<?xml version="1.0" encoding="UTF-8"?>
<svg version="1.1" xmlns="http://www.w3.org/2000/svg" width="821" height="202">
<path d="M0 0 C6.38645569 5.34657197 7.15357822 11.25468936 7.953125 19.203125 C8.50785009 31.80330919 2.4976792 42.95688865 -5.8203125 52.09375 C-10.64172496 56.83943347 -14.68996312 58.45568489 -21.3125 58.5625 C-23.8125 57.4375 -23.8125 57.4375 -25.3125 55.5625 C-26.0625 53.1875 -26.0625 53.1875 -25.3125 50.5625 C-23.69140625 49.41015625 -23.69140625 49.41015625 -21.625 48.25 C-15.65222348 44.8777598 -13.22249092 40.24697323 -11.0625 33.875 C-10.69125 32.2353125 -10.69125 32.2353125 -10.3125 30.5625 C-10.03792969 29.42361328 -10.03792969 29.42361328 -9.7578125 28.26171875 C-8.68571499 21.76330311 -8.76009214 14.74426239 -12.625 9.3125 C-17.2142357 6.32416048 -20.83208921 6.19094673 -26.3125 6.5625 C-41.28215501 11.27516917 -48.90586561 24.51207175 -55.875 37.5625 C-65.5085895 56.13178409 -74.01264491 77.27020897 -72.3125 98.5625 C-72.24160156 99.65175781 -72.17070313 100.74101563 -72.09765625 101.86328125 C-71.245057 110.01566284 -68.88758289 116.44225218 -63.3125 122.5625 C-58.21410905 126.42415255 -52.95203473 128.30836373 -46.546875 127.93359375 C-43.34763712 127.40225179 -40.38584323 126.45900646 -37.35546875 125.31640625 C-35.35915012 124.57971505 -33.383941 124.04195713 -31.3125 123.5625 C-31.3125 122.9025 -31.3125 122.2425 -31.3125 121.5625 C-29.64583333 120.5625 -27.97916667 119.5625 -26.3125 118.5625 C-23.87447123 116.37606892 -23.87447123 116.37606892 -21.3125 113.5625 C-20.69117188 113.0159375 -20.06984375 112.469375 -19.4296875 111.90625 C-13.51624837 106.24014103 -11.66095225 100.31412326 -9.46118164 92.66040039 C-6.69826797 83.11263386 -2.24782393 73.85294594 4.6875 66.5625 C5.3475 66.5625 6.0075 66.5625 6.6875 66.5625 C6.6875 65.9025 6.6875 65.2425 6.6875 64.5625 C7.3475 64.5625 8.0075 64.5625 8.6875 64.5625 C8.6875 63.9025 8.6875 63.2425 8.6875 62.5625 C10.76953125 61.08984375 10.76953125 61.08984375 13.5 59.5 C14.39332031 58.97277344 15.28664062 58.44554688 16.20703125 57.90234375 C21.81662095 54.87228191 27.449229 54.76292466 33.6875 55.5625 C40.02668566 58.18311107 42.97222411 63.07853513 45.77734375 69.09765625 C48.7538768 77.15856765 48.48398317 85.52261088 45.6875 93.5625 C49.06611193 92.708646 51.83935967 91.59137831 54.6875 89.5625 C56.3204797 86.71893802 57.35612823 83.87816742 58.4609375 80.79296875 C62.21065046 70.91713238 68.8771182 61.94850673 78.4609375 57.18359375 C85.03836017 54.59767552 90.77057908 53.20874122 97.5 56 C99.23175786 56.84890091 100.96247987 57.69998994 102.6875 58.5625 C106.70151241 48.66493516 110.39620089 39.01988258 112.6875 28.5625 C118.34848655 3.89946861 118.34848655 3.89946861 126.6875 -1.4375 C129.75 -2.5625 129.75 -2.5625 132.6875 -2.4375 C135.5625 -0.5 135.5625 -0.5 137.6875 2.5625 C139.54298381 13.90156776 132.90510025 27.1931902 129.31253052 37.83609009 C128.60140009 39.94498685 127.89573163 42.05565086 127.19116211 44.16674805 C124.96002602 50.84405205 122.70980502 57.51409275 120.41378784 64.16938782 C110.73772729 91.2169783 110.73772729 91.2169783 107.6875 119.5625 C111.89204601 119.5625 112.27897651 119.51550946 115.1875 116.9375 C115.7546875 116.45023437 116.321875 115.96296875 116.90625 115.4609375 C121.27906494 110.80043737 123.15515053 106.60333197 124.375 100.375 C126.53785575 90.41160295 131.06793987 81.58868279 135.6875 72.5625 C136.3475 72.5625 137.0075 72.5625 137.6875 72.5625 C138.0278125 71.7271875 138.0278125 71.7271875 138.375 70.875 C140.07714768 67.8759779 142.16427762 65.91750755 144.6875 63.5625 C145.22761719 63.05203125 145.76773437 62.5415625 146.32421875 62.015625 C151.98047466 56.88050727 157.90813322 53.83075403 165.6875 53.5625 C171.68205026 54.54934365 175.90722796 56.73497364 179.59375 61.609375 C182.16431014 66.19966097 181.80701285 70.32753389 181.3125 75.4375 C179.12306379 82.88746078 172.47030904 88.83881587 165.9375 92.625 C163.54205416 93.87151904 161.65266278 94.56889354 158.984375 95.05859375 C158.22640625 95.22488281 157.4684375 95.39117187 156.6875 95.5625 C156.3575 96.2225 156.0275 96.8825 155.6875 97.5625 C153.52282539 98.18919199 151.32885476 98.71677374 149.125 99.1875 C147.92746094 99.44789062 146.72992188 99.70828125 145.49609375 99.9765625 C144.56925781 100.16992188 143.64242188 100.36328125 142.6875 100.5625 C141.58250787 107.17913962 141.21097469 111.68837102 144.6875 117.5625 C147.51307732 120.82278152 151.02673707 121.42151872 155.1875 121.75 C162.35383691 121.21252473 168.35226358 116.64513745 173.09375 111.5234375 C177.13173914 106.55512733 180.47692849 101.09181761 183.6875 95.5625 C184.6775 95.8925 185.6675 96.2225 186.6875 96.5625 C187.24318774 104.82533503 182.57110226 110.084763 177.48828125 116.21484375 C169.18727348 125.11956117 158.77536728 132.17630511 146.43359375 133.50390625 C138.71399572 133.66862029 133.91968739 131.79250176 128.28515625 126.44921875 C126.21362772 124.00289044 125.29865053 121.69464645 124.6875 118.5625 C123.96046875 119.19865234 123.96046875 119.19865234 123.21875 119.84765625 C121.80964182 121.08062591 120.399406 122.31230756 118.98828125 123.54296875 C117.47721167 124.86932354 115.97428509 126.20502458 114.48046875 127.55078125 C113.78566406 128.17339844 113.09085938 128.79601562 112.375 129.4375 C111.73949219 130.01242188 111.10398437 130.58734375 110.44921875 131.1796875 C106.80422329 134.04072606 103.1464231 133.94037484 98.6875 133.5625 C93.8097989 131.12364945 91.59900091 128.65983576 89.6875 123.5625 C89.6875 122.2425 89.6875 120.9225 89.6875 119.5625 C89.03265625 120.14257812 88.3778125 120.72265625 87.703125 121.3203125 C71.349355 135.31803089 71.349355 135.31803089 62.3125 134.75 C57.85892698 133.29107091 55.9179204 131.94674995 52.6875 128.5625 C48.23457701 119.43867876 49.52166052 109.11767418 51.6875 99.5625 C48.3875 100.2225 45.0875 100.8825 41.6875 101.5625 C41.3575 103.2125 41.0275 104.8625 40.6875 106.5625 C35.24872249 117.42284371 26.82472961 128.26867569 15.0625 132.5625 C7.48323226 134.58009842 1.88481054 134.08406838 -5.0390625 130.3984375 C-9.17023225 127.06226949 -10.61726173 122.4589789 -12.3125 117.5625 C-12.6425 116.9025 -12.9725 116.2425 -13.3125 115.5625 C-13.869375 116.20316406 -14.42625 116.84382813 -15 117.50390625 C-27.85789057 132.07763019 -27.85789057 132.07763019 -35.3125 134.5625 C-35.6425 135.2225 -35.9725 135.8825 -36.3125 136.5625 C-46.68665163 142.01716306 -58.24342003 143.02833065 -69.45703125 139.6015625 C-72.10249051 138.64389945 -74.71495754 137.64271592 -77.3125 136.5625 C-77.3125 135.9025 -77.3125 135.2425 -77.3125 134.5625 C-77.90160156 134.30339844 -78.49070313 134.04429687 -79.09765625 133.77734375 C-86.58752867 129.66914212 -90.56843785 121.3009849 -93.3125 113.5625 C-93.87136985 111.16970909 -94.14856607 109.021509 -94.3125 106.5625 C-95.09173828 107.64917969 -95.09173828 107.64917969 -95.88671875 108.7578125 C-111.30923197 130.13837611 -111.30923197 130.13837611 -124.3125 133.5625 C-128.97264232 133.72047093 -131.53462884 132.67489849 -135.125 129.875 C-139.23991001 125.99074638 -140.21362097 122.61873428 -140.484375 116.98828125 C-140.4429364 112.0179196 -139.33628138 107.42468575 -138.125 102.625 C-137.90013916 101.71057129 -137.67527832 100.79614258 -137.44360352 99.85400391 C-135.32029233 91.34449991 -132.94959812 82.92636564 -130.3125 74.5625 C-129.97347656 73.47839844 -129.63445312 72.39429687 -129.28515625 71.27734375 C-127.2674086 65.25651441 -125.16493245 59.88215614 -119.4765625 56.45703125 C-117.00549963 55.43559913 -114.84506715 55.08222323 -112.1875 54.8125 C-111.31867188 54.71453125 -110.44984375 54.6165625 -109.5546875 54.515625 C-107.3125 54.5625 -107.3125 54.5625 -105.3125 56.5625 C-105.42400905 62.24946139 -107.09725836 67.16273226 -108.94042969 72.50878906 C-111.26118973 79.2887935 -113.40809855 86.12068932 -115.50268555 92.97332764 C-115.91446508 94.31435739 -116.3304208 95.65411257 -116.75073242 96.99249268 C-119.93696502 107.09199912 -119.93696502 107.09199912 -120.3125 117.5625 C-115.90760755 118.10187459 -113.76192812 117.83715052 -109.9375 115.5 C-105.76139848 111.61679248 -103.12649373 106.55504473 -100.42041016 101.59350586 C-99.46109805 99.87150418 -98.39427798 98.2103246 -97.3125 96.5625 C-96.3225 96.5625 -95.3325 96.5625 -94.3125 96.5625 C-94.27382812 95.48548828 -94.27382812 95.48548828 -94.234375 94.38671875 C-92.77087059 67.67776322 -83.72516561 41.10592771 -66.3125 20.5625 C-65.56097656 19.6653125 -64.80945313 18.768125 -64.03515625 17.84375 C-48.49631218 -0.02714808 -22.03988275 -15.36403421 0 0 Z M22.6875 65.5625 C19.88181738 70.37224164 19.23983585 73.92833317 20.1171875 79.42578125 C21.68979622 85.31767831 25.79162531 89.26527827 30.6875 92.5625 C33.46560134 92.67588288 33.46560134 92.67588288 35.6875 91.5625 C38.26937646 86.39874707 37.49610604 77.32857314 35.8984375 71.86328125 C34.26348472 68.48729097 32.82533906 66.65439271 29.6875 64.5625 C25.79290926 64.35168149 25.79290926 64.35168149 22.6875 65.5625 Z M84.3984375 69.70703125 C73.79438598 81.25090674 68.60107839 92.61771258 68.6875 108.5625 C69.13048644 111.68998424 69.82357644 114.51335803 70.6875 117.5625 C72.48992219 118.32819854 72.48992219 118.32819854 74.6875 118.5625 C87.0624842 111.49472552 93.50673282 95.4581093 97.31640625 82.40820312 C98.58966832 77.5106915 99.18865885 73.57408852 98.6875 68.5625 C96.91595348 66.03659152 96.91595348 66.03659152 94.6875 64.5625 C90.58224241 64.5625 87.23499318 67.0495755 84.3984375 69.70703125 Z M155.6875 70.5625 C151.05237304 75.91789349 146.77548377 81.74175302 144.6875 88.5625 C145.08125568 90.70719867 145.08125568 90.70719867 145.6875 92.5625 C154.81148278 88.45889052 160.89486954 85.62819998 164.625 76 C165.5842376 72.84517411 165.74525325 71.78018533 164.875 68.5 C164.483125 67.860625 164.09125 67.22125 163.6875 66.5625 C160.70512769 66.5625 157.9342467 68.80977982 155.6875 70.5625 Z M12.6875 83.5625 C7.15552126 93.48627866 4.48768787 103.11813815 5.6875 114.5625 C6.96283243 117.68706446 7.88346355 118.97287327 10.5625 120.9375 C13.34106954 121.75472633 14.90712504 121.35041041 17.6875 120.5625 C19.9384805 119.1132425 19.9384805 119.1132425 21.9375 117.25 C22.62328125 116.65574219 23.3090625 116.06148437 24.015625 115.44921875 C25.79200969 113.44456032 26.29477845 112.17871858 26.6875 109.5625 C27.3475 109.5625 28.0075 109.5625 28.6875 109.5625 C30.39611128 105.60837332 30.39611128 105.60837332 30.1875 101.4375 C27.40059531 97.95386913 23.87412537 95.95804179 19.6875 94.5625 C18.5625 92.625 18.5625 92.625 17.6875 90.5625 C17.3575 89.9025 17.0275 89.2425 16.6875 88.5625 C16.0275 88.5625 15.3675 88.5625 14.6875 88.5625 C14.3575 86.9125 14.0275 85.2625 13.6875 83.5625 C13.3575 83.5625 13.0275 83.5625 12.6875 83.5625 Z " fill="#F7F6F6" transform="translate(149.3125,15.4375)"/>
<path d="M0 0 C2.55541273 3.83311909 2.58324555 6.57221528 2 11 C0.78101454 15.84111367 -0.75443376 20.57210301 -2.3125 25.3125 C-3.12285356 27.82886104 -3.9314742 30.34578087 -4.73828125 32.86328125 C-5.12846436 34.07878662 -5.51864746 35.29429199 -5.9206543 36.54663086 C-7.41597262 41.3309054 -8.72505839 46.15325148 -10 51 C-10.51035388 52.89229572 -11.02209415 54.78421802 -11.53515625 56.67578125 C-11.78716797 57.60583984 -12.03917969 58.53589844 -12.29882812 59.49414062 C-12.55083984 60.42419922 -12.80285156 61.35425781 -13.0625 62.3125 C-13.31837891 63.26189453 -13.57425781 64.21128906 -13.83789062 65.18945312 C-14.87486243 69.00945467 -15.92903312 72.78756779 -17.18359375 76.54296875 C-18.10510746 78.88480887 -18.10510746 78.88480887 -18 81 C-17.34 81 -16.68 81 -16 81 C-15.938125 80.443125 -15.87625 79.88625 -15.8125 79.3125 C-14.66276667 76.04018205 -12.47751734 74.4070332 -10 72 C-9.22140625 71.175 -8.4428125 70.35 -7.640625 69.5 C-0.68286298 62.223909 4.91664055 56.85333438 15.3125 56.4375 C18.98860366 56.43269464 20.4391534 56.5249186 23.2734375 58.92578125 C26.25833637 62.5117118 27.09959822 63.86602029 26.67578125 68.69140625 C26.125815 72.67001924 25.11355689 76.36109741 23.875 80.1875 C23.66270752 80.85531494 23.45041504 81.52312988 23.23168945 82.21118164 C21.9226776 86.29412927 20.53504979 90.34565403 19.11328125 94.390625 C18.6349585 95.77084839 18.6349585 95.77084839 18.14697266 97.17895508 C17.52233676 98.97482301 16.88587018 100.76663379 16.23583984 102.5534668 C14.24868273 108.27852925 13.68812269 112.93979578 14 119 C17.7871944 120.08205554 19.47004957 120.25956756 23.0625 118.5 C28.89875746 113.53297237 31.60859525 108.28025158 33.4375 100.9375 C37.81148454 85.0716611 44.18145939 69.81212281 58.11328125 60.05078125 C62.16973829 57.79159503 65.88233402 56.69101304 70.5 56.25 C71.4178125 56.15203125 72.335625 56.0540625 73.28125 55.953125 C77.64143961 56.02830068 80.41857699 57.61238466 84 60 C87.32240324 59.6758631 88.60776303 59.39223697 91 57 C93.4375 56.625 93.4375 56.625 96 57 C98.73602497 59.24744909 99.07834563 61.31338253 99.9375 64.75 C100.79073051 75.33702343 95.9427446 86.49838663 92.10546875 96.12109375 C88.91340861 104.43398535 88.75353672 112.14101424 89 121 C94.94056366 120.42476936 97.16501284 117.00677298 100.859375 112.6640625 C108.67995409 102.93115203 112.10765091 91.94896757 114.5 79.8125 C116.00892403 72.34417374 117.73957448 64.07784169 123.44140625 58.6953125 C126.8747723 56.42037988 128.95993935 56.41235481 133 57 C135.4375 58.4375 135.4375 58.4375 137 61 C137.8676479 67.83272719 136.21097686 73.21701929 134.0703125 79.69140625 C132.79009422 83.64886932 131.82708489 87.63992597 130.86328125 91.68359375 C130.19475412 94.25182693 129.46653756 96.75700427 128.66796875 99.28515625 C128.31786743 100.40809082 128.31786743 100.40809082 127.96069336 101.55371094 C127.49837944 103.02307829 127.02451492 104.48887798 126.53735352 105.95019531 C125.03965275 110.74238545 124.94536032 114.08049173 126 119 C130.01050912 118.74474116 132.39487665 118.47825737 135.58984375 115.953125 C147.78734671 101.90874555 155.49349379 87.09002388 159.28515625 68.89453125 C160.29312372 64.81308919 161.85020515 61.60610749 164 58 C167.09173752 56.45413124 169.59429552 56.70640479 173 57 C175.4375 58.4375 175.4375 58.4375 177 61 C178.86919053 74.78528019 172.08185928 90.34385625 167.81835938 103.18164062 C166.28284702 107.82959808 164.85553814 112.38644477 163.8828125 117.1875 C163.44582031 119.0746875 163.44582031 119.0746875 163 121 C162.01 121.495 162.01 121.495 161 122 C160.86722656 122.80695313 160.73445312 123.61390625 160.59765625 124.4453125 C157.7380454 141.45345545 147.7974438 165.55493542 133.484375 175.80078125 C126.79814351 179.99468992 120.98625334 182.28622943 113 182.3125 C111.824375 182.32925781 110.64875 182.34601563 109.4375 182.36328125 C104.77260765 181.87028694 101.56801553 180.01709116 97.6875 177.5 C94.88285287 173.34496721 94.81390764 168.92480151 95 164 C95.94931799 159.46361616 97.43133839 155.85299241 100 152 C100.66 152 101.32 152 102 152 C102 151.34 102 150.68 102 150 C110.99786149 144.6517384 118.48762956 141.55266509 129 142 C129 144.3125 129 144.3125 128 147 C126.08768058 147.79130459 124.16494207 148.56776062 122.1953125 149.203125 C116.62149763 151.22636029 112.3792372 154.74794915 109.64453125 160.01953125 C108.46821692 163.63402436 108.69394826 167.25086612 109 171 C111.88587213 172.47993442 113.98933679 173.26842927 117.19140625 172.41796875 C124.56786406 169.28515841 130.09655291 165.15631966 134 158 C137.20866293 149.89904111 139.18923127 141.50512585 141 133 C139.948125 133.33 138.89625 133.66 137.8125 134 C134.61126643 134.83966782 132.2588992 135.19750904 129 135 C129 134.34 129 133.68 129 133 C128.34 133.33 127.68 133.66 127 134 C121.40887025 134.58147749 116.62407089 134.46805317 112 131 C109.40446241 127.22275423 107.44808683 123.3442605 106 119 C105.05640625 119.99580078 105.05640625 119.99580078 104.09375 121.01171875 C91.96755852 133.5214193 91.96755852 133.5214193 83.8125 135 C79.63806358 135 78.16711342 134.63926119 75 132 C71.34196213 128.23744676 70.17258547 124.98348826 69 120 C68.47792969 120.56847656 67.95585938 121.13695312 67.41796875 121.72265625 C53.55569518 136.26469105 53.55569518 136.26469105 44.125 136.625 C40.33499233 136.24734799 37.83675058 135.67915333 35 133 C33.11525234 129.75781635 31.51225303 126.42991858 30 123 C29.43152344 123.45890625 28.86304688 123.9178125 28.27734375 124.390625 C25.87780652 126.29743589 23.44953154 128.15792073 21 130 C20.41605469 130.44730469 19.83210937 130.89460937 19.23046875 131.35546875 C14.17211547 134.76462656 8.85224519 134.99685821 3 134 C-0.77065149 132.36000185 -3.18976748 130.23296253 -5.4375 126.8125 C-7.55744719 116.21276403 -4.28522292 106.98847958 -1 97 C-0.66274902 95.97148926 -0.32549805 94.94297852 0.02197266 93.88330078 C2.3158656 86.91130312 4.64479121 79.95150892 7 73 C-9.2905116 80.21609328 -19.09737007 98.31900558 -25.57421875 114.08203125 C-27.35372328 118.71103178 -28.38674578 123.44088301 -29.19921875 128.328125 C-30.17086823 131.57011643 -31.31776652 132.96053598 -34 135 C-36.877862 135.55084077 -39.27256303 135.02278886 -42 134 C-44.80825249 131.40236644 -45.82651054 129.4141626 -46.29370117 125.60595703 C-46.4817358 117.12581832 -44.69377024 109.48409157 -42.42944336 101.39233398 C-41.81735293 99.2048434 -41.22610813 97.01258489 -40.63867188 94.81835938 C-38.4098014 86.58292083 -35.89363393 78.48381613 -33.1496582 70.40649414 C-31.55333696 65.6765153 -30.09142703 60.91517473 -28.6875 56.125 C-28.3982666 55.14466797 -28.1090332 54.16433594 -27.81103516 53.15429688 C-26.01830307 46.93847354 -24.4201065 40.69645062 -22.94921875 34.3984375 C-22.77615707 33.66190948 -22.6030954 32.92538147 -22.42478943 32.16653442 C-21.57103664 28.52189374 -20.73576563 24.87444798 -19.9284668 21.21923828 C-16.24484712 4.98042457 -16.24484712 4.98042457 -9.0625 -0.0625 C-5.52093405 -1.14665284 -3.51956824 -1.11986262 0 0 Z M59.33984375 76.99609375 C52.56292991 87.13182786 49.76547939 97.41637141 49.625 109.5 C49.61106201 110.29019531 49.59712402 111.08039063 49.58276367 111.89453125 C49.49832567 116.16680954 49.49832567 116.16680954 51.52490234 119.74023438 C52.01168457 120.15595703 52.4984668 120.57167969 53 121 C63.46381199 116.91656118 68.03667308 106.87092658 72.8125 97.375 C73.38419922 96.26898438 73.95589844 95.16296875 74.54492188 94.0234375 C79.6055084 84.37357531 79.6055084 84.37357531 81.25 73.75 C81.25515625 72.89921875 81.2603125 72.0484375 81.265625 71.171875 C81.20063772 68.78994711 81.20063772 68.78994711 79 67 C71.0817852 65.64810967 63.9969693 71.02310447 59.33984375 76.99609375 Z M-19 81 C-18 83 -18 83 -18 83 Z M147 116 C148 118 148 118 148 118 Z M145 119 C142.69 121.31 140.38 123.62 138 126 C141.90838866 126 143.11594107 124.49432124 146 122 C145.67 121.01 145.34 120.02 145 119 Z " fill="#F6F6F6" transform="translate(637,14)"/>
<path d="M0 0 C2.79574543 2.29049023 2.97668655 2.80683144 3.4375 6.625 C3.01336126 18.53944267 -1.37540906 30.56037935 -4.78515625 41.90234375 C-6.26282745 46.83829617 -7.57634298 51.81421158 -8.88671875 56.796875 C-10.30651012 62.18645132 -11.78106498 67.5611548 -13.25 72.9375 C-13.52062256 73.92838623 -13.79124512 74.91927246 -14.07006836 75.94018555 C-14.71302556 78.29355385 -15.35632054 80.64682916 -16 83 C-9.24971743 77.13255116 -2.99867808 71.16979488 2.48046875 64.0859375 C5.97097143 59.68771696 9.51693031 56.61010777 15 55 C18.5 55.25 18.5 55.25 21 56 C21 56.66 21 57.32 21 58 C21.66 58 22.32 58 23 58 C25.3939746 62.59643122 26.57544958 65.89443352 25.63671875 71.0625 C24.44594892 74.68594686 22.90371437 76.48344755 20 79 C16.09332162 79.15945626 14.56988014 78.49489592 11.625 75.9375 C10.820625 74.9784375 10.820625 74.9784375 10 74 C4.453957 77.05454653 -0.74902998 80.40923149 -4 86 C-5.34707132 90.86860294 -4.68889797 94.27138683 -3.25 99.0625 C-2.90453125 100.24972656 -2.5590625 101.43695313 -2.203125 102.66015625 C-1.09014104 105.74977081 0.27775875 108.22362833 2 111 C2 111.66 2 112.32 2 113 C2.66 113 3.32 113 4 113 C4.4125 113.78375 4.825 114.5675 5.25 115.375 C6.83780704 118.19081525 6.83780704 118.19081525 9.8125 119.5625 C13.06612263 120.27336671 13.06612263 120.27336671 16.1875 118.75 C19.55098305 115.46126102 20.29199893 112.92595323 21.359375 108.4375 C21.9810047 106.07227478 22.83118037 104.13953424 24 102 C24.66 102 25.32 102 26 102 C26 101.34 26 100.68 26 100 C29 98 29 98 31.6875 98.375 C32.450625 98.58125 33.21375 98.7875 34 99 C33.96519531 100.08539063 33.93039062 101.17078125 33.89453125 102.2890625 C33.86637612 103.73435942 33.83907781 105.17967321 33.8125 106.625 C33.78736328 107.33785156 33.76222656 108.05070312 33.73632812 108.78515625 C33.67007936 113.59923324 34.31903794 116.83794702 37 121 C40.8503105 123.56687367 42.58569763 122.83288724 47 122 C49.62431068 111.94014239 43.01660877 102.74725866 38.73071289 93.88916016 C38.39289795 93.18581543 38.05508301 92.4824707 37.70703125 91.7578125 C37.4025708 91.1302002 37.09811035 90.50258789 36.78442383 89.85595703 C34.21330751 83.77266221 34.06753153 77.05263319 36.1875 70.8125 C38.84494546 64.56626136 43.07794146 60.25132626 49 57 C53.83468229 55.20758272 57.96529523 54.46769855 63 56 C68.47462289 59.06578882 72.19767167 62.16510658 73.9375 68.3125 C74.01272143 72.75056425 73.04498967 76.08118721 71 80 C70.34 80.66 69.68 81.32 69 82 C66.9375 81.8125 66.9375 81.8125 65 81 C63.88231816 77.64695447 63.60326597 74.56051742 63.28125 71.05859375 C63.1044164 68.94048003 63.1044164 68.94048003 62 67 C58.97065509 66.34227572 58.97065509 66.34227572 56 66 C53.64668247 69.67705864 53.77716566 72.70821053 54 77 C56.26003017 85.42011239 60.00076662 93.29982638 63.70703125 101.16015625 C66.45731894 107.20081834 68.49173386 113.40867543 66.34765625 120.0078125 C63.47255419 126.49838625 58.78803411 130.1413106 53 134 C44.94939471 136.08274366 36.4072137 135.9807475 29 132 C24.37704918 128.75409836 24.37704918 128.75409836 23 126 C19.41475637 126.5803166 17.75377814 127.92348822 15.1875 130.4375 C11.60672697 133.65356467 8.91959595 135.46331681 4 136 C-2.64594081 134.76927022 -5.94823642 130.28895161 -9.77734375 124.94921875 C-14.42722401 117.32098382 -19 106.00884113 -19 97 C-19.66 97 -20.32 97 -21 97 C-21.36351562 98.56234375 -21.36351562 98.56234375 -21.734375 100.15625 C-22.4352041 103.16197317 -23.14508709 106.16541735 -23.859375 109.16796875 C-24.60183825 112.29071886 -25.31889274 115.41753529 -26.015625 118.55078125 C-26.34332476 119.97145232 -26.67143316 121.39202921 -27 122.8125 C-27.28875 124.09769531 -27.5775 125.38289063 -27.875 126.70703125 C-29.06662546 130.19501828 -30.10277528 131.76798247 -33 134 C-35.9375 134.5625 -35.9375 134.5625 -39 134 C-41.88787018 131.94640342 -43.64913309 130.39572793 -44.53125 126.88671875 C-44.78095426 124.93417015 -44.90003843 122.96591097 -45 121 C-45.64066406 121.67546875 -46.28132813 122.3509375 -46.94140625 123.046875 C-58.50960104 134.97711464 -58.50960104 134.97711464 -66.0625 135.5625 C-71.09546506 134.84350499 -72.49545765 133.58798384 -76 130 C-78.18975773 126.71536341 -78.99806563 123.79303725 -80 120 C-80.46148437 120.50789063 -80.92296875 121.01578125 -81.3984375 121.5390625 C-87.05671677 127.51044813 -94.68914805 134.59147293 -103.25 135.25 C-108.05172907 134.92988473 -111.03551255 134.0174386 -114.44921875 130.51171875 C-119.03639281 124.37358039 -119.4921254 117.45644548 -119 110 C-115.95419509 92.24827277 -107.01955018 71.97490951 -92.1484375 61.3671875 C-86.12339707 57.53307087 -80.12988813 55.7832514 -73 56 C-70.27684135 56.68448291 -68.4733823 57.57912081 -66 59 C-65.67 59.66 -65.34 60.32 -65 61 C-64.4225 60.71125 -63.845 60.4225 -63.25 60.125 C-62.5075 59.75375 -61.765 59.3825 -61 59 C-60.34 58.608125 -59.68 58.21625 -59 57.8125 C-57 57 -57 57 -54.9375 57.125 C-52.37658513 58.2815422 -51.51392722 59.64866889 -50 62 C-47.38205028 71.1462547 -50.35961548 80.28801914 -53.9375 88.75 C-58.40967046 99.49011594 -60.79366366 110.35959958 -60 122 C-53.13754688 120.64242775 -48.89785238 115.24133327 -44.875 109.875 C-39.9785803 102.28460421 -38.4236715 94.00357649 -36.52050781 85.27539062 C-35.86366264 82.40400365 -35.0266601 79.61598098 -34.125 76.8125 C-31.74529687 69.36383573 -29.69954215 61.8239412 -27.63720703 54.2824707 C-25.90389887 48.00726235 -23.97966146 41.83278693 -21.89331055 35.66625977 C-20.36616977 31.1082099 -19.09352808 26.54532809 -18.10546875 21.84375 C-17.95400391 21.13089844 -17.80253906 20.41804688 -17.64648438 19.68359375 C-17.34098154 18.23018027 -17.04665791 16.77437115 -16.76367188 15.31640625 C-15.3656684 8.90067247 -12.73169024 4.18535219 -7.5 0 C-4.45125815 -1.21949674 -3.06385848 -1.12878997 0 0 Z M-91.53515625 79.52734375 C-97.67855992 89.89740914 -100.50253779 104.00179383 -99 116 C-98.05588048 118.21851595 -98.05588048 118.21851595 -97 120 C-92.20640254 119.57703552 -89.30849131 117.30355163 -86 114 C-83.91226617 111.05439781 -83.91226617 111.05439781 -82.1875 107.75 C-81.86128662 107.15662842 -81.53507324 106.56325684 -81.19897461 105.9519043 C-80.1185075 103.97525356 -79.05867856 101.9883976 -78 100 C-77.17467605 98.46994587 -76.34914948 96.94000101 -75.5234375 95.41015625 C-69.75935431 85.23053823 -69.75935431 85.23053823 -67.875 73.875 C-67.87242187 72.79992187 -67.86984375 71.72484375 -67.8671875 70.6171875 C-67.70311025 68.07343604 -67.70311025 68.07343604 -69 67 C-78.62706244 65.56618219 -86.21923973 72.03502847 -91.53515625 79.52734375 Z " fill="#F7F6F6" transform="translate(518,14)"/>
<path d="M0 0 C0 0.66 0 1.32 0 2 C0.66 2 1.32 2 2 2 C6.35503463 9.44570437 7.93987316 16.70525825 6.5 25.3125 C4.14582682 34.16867529 -0.30900519 42.76641819 -7 49 C-7.53625 49.60585938 -8.0725 50.21171875 -8.625 50.8359375 C-10 52.375 -10 52.375 -13 55 C-15.75 55.125 -15.75 55.125 -18 54 C-19.3359375 52.2734375 -19.3359375 52.2734375 -20 50 C-18.8046875 47.40625 -18.8046875 47.40625 -16.875 44.5 C-10.45972515 34.04828988 -7.63077589 24.35485939 -9 12 C-10.21125747 8.79270645 -10.21125747 8.79270645 -13 7 C-17.00745067 6.73864452 -19.57306168 6.90201217 -23 9 C-37.45702849 24.51670597 -40.84578706 53.90556495 -44.296875 73.921875 C-45.01161151 77.05083259 -46.03945431 79.86169292 -47.20166016 82.84423828 C-48.6232549 86.68297884 -49.68415653 90.62976724 -50.8125 94.5625 C-53.3636269 103.28738652 -56.42857654 111.64134935 -60 120 C-59.195625 120.185625 -59.195625 120.185625 -58.375 120.375 C-47.64462281 123.19878347 -37.90464877 128.67403032 -28.39208984 134.26928711 C-21.06554727 138.55082406 -13.53625574 142.18757414 -5.75 145.5625 C-4.76837891 146.0044873 -3.78675781 146.44647461 -2.77539062 146.90185547 C4.32052127 149.88779428 10.33613835 150.54053064 18 150 C19.203125 154.6171875 19.203125 154.6171875 17.375 158.0625 C13.7983677 162.48622942 10.59700303 165.4213231 4.86328125 166.34375 C-10.63515638 167.29311831 -24.46888457 156.51546103 -36.82568359 148.421875 C-50.90761957 138.89800315 -50.90761957 138.89800315 -66.75 133.25 C-70.90754253 134.20943289 -72.31697307 136.08284922 -75.1171875 139.171875 C-79.28601504 143.21961627 -84.00416034 144.96673601 -89.75 145.0625 C-93.69327463 143.77335253 -95.52953758 142.31968387 -98 139 C-98 137.0625 -98 137.0625 -97 135 C-96.54625 134.030625 -96.0925 133.06125 -95.625 132.0625 C-95.08875 131.051875 -94.5525 130.04125 -94 129 C-93.608125 128.13375 -93.21625 127.2675 -92.8125 126.375 C-89.94065155 122.61188824 -85.66903459 120.60526828 -81.06323242 119.56079102 C-77.76673265 118.68508136 -75.61451792 118.05301488 -73.8425293 115.01660156 C-72.94984256 112.42589506 -72.28885115 109.86084724 -71.6875 107.1875 C-71.44805664 106.24567871 -71.20861328 105.30385742 -70.96191406 104.33349609 C-70.2687496 101.56320238 -69.62496905 98.78638465 -69 96 C-68.83129395 95.25991699 -68.66258789 94.51983398 -68.48876953 93.75732422 C-67.8325482 90.84777023 -67.21287178 87.9350749 -66.640625 85.0078125 C-66 82 -66 82 -65.06640625 78.8515625 C-63.64093408 73.70315384 -62.68950883 68.49468423 -61.6875 63.25 C-60.11978892 55.26397792 -58.46860782 47.31969635 -56.4375 39.4375 C-56.2521167 38.6959668 -56.0667334 37.95443359 -55.87573242 37.19042969 C-54.54537483 32.18970541 -52.78693163 27.39012563 -50 23 C-49.34 22.67 -48.68 22.34 -48 22 C-47.731875 21.319375 -47.46375 20.63875 -47.1875 19.9375 C-43.17332612 10.00770146 -36.22931102 3.63835817 -26.6171875 -1.19921875 C-24.5625 -2 -24.5625 -2 -21 -3 C-20.195625 -3.2475 -19.39125 -3.495 -18.5625 -3.75 C-11.77846304 -4.41185726 -6.05917265 -2.96512704 0 0 Z " fill="#F7F6F6" transform="translate(418,9)"/>
<path d="M0 0 C8.10200669 -0.31772575 8.10200669 -0.31772575 12 2 C14.75928305 5.20673436 15.89986676 7.29906735 16.5 11.5 C15.74576453 16.77964828 13.33731767 19.62653861 9.6875 23.375 C6.14958594 25.51420385 4.0721789 25.58173984 0 25 C-3.22618733 22.9209015 -4.8669302 21.19960471 -7 18 C-7.77661745 13.25902139 -7.40221179 9.77668484 -5.1875 5.5 C-3 3 -3 3 0 2 C0 1.34 0 0.68 0 0 Z " fill="#F8F7F7" transform="translate(37,42)"/>
<path d="M0 0 C1.32 0.66 2.64 1.32 4 2 C4.49348023 7.88493589 3.49946514 10.4973996 -0.1875 15.0625 C-0.60241699 15.58344238 -1.01733398 16.10438477 -1.44482422 16.64111328 C-2.61615642 18.10516383 -3.80743989 19.5531885 -5 21 C-5.48339844 21.62519531 -5.96679688 22.25039062 -6.46484375 22.89453125 C-10.86748073 28.5127111 -16.2906332 33.40774465 -23 36 C-23.99 35.67 -24.98 35.34 -26 35 C-22.375 32 -22.375 32 -19 32 C-19.185625 31.236875 -19.37125 30.47375 -19.5625 29.6875 C-20 27 -20 27 -19 24 C-20.65 23.67 -22.3 23.34 -24 23 C-24 22.34 -24 21.68 -24 21 C-22.824375 21.12375 -21.64875 21.2475 -20.4375 21.375 C-16.15205309 21.30733505 -13.95850513 20.26564377 -10.875 17.33203125 C-6.59414786 12.0077214 -3.33498037 5.94397862 0 0 Z " fill="#EFEEEC" transform="translate(52,112)"/>
<path d="M0 0 C0.33 0 0.66 0 1 0 C1.33 2.97 1.66 5.94 2 9 C5.60992379 8.34414811 5.60992379 8.34414811 9 7 C9.33 7.66 9.66 8.32 10 9 C13.40739705 6.75421558 16.76478258 4.48862878 20 2 C21 3 21 3 21.0625 6.5625 C21.041875 7.696875 21.02125 8.83125 21 10 C20.34 9.01 19.68 8.02 19 7 C18.3709375 7.66386719 17.741875 8.32773438 17.09375 9.01171875 C9.62387825 16.71783644 3.9930739 22.41108533 -7 23 C-6.4225 22.773125 -5.845 22.54625 -5.25 22.3125 C-2.43572387 20.67083893 -0.97262267 18.56440947 1 16 C1.66 15.67 2.32 15.34 3 15 C3 14.34 3 13.68 3 13 C2.195625 12.7525 1.39125 12.505 0.5625 12.25 C-2 11 -2 11 -2.8125 8.875 C-2.874375 8.25625 -2.93625 7.6375 -3 7 C-2.01 6.67 -1.02 6.34 0 6 C0 4.02 0 2.04 0 0 Z " fill="#EEECEB" transform="translate(724,126)"/>
<path d="M0 0 C1.32 0.66 2.64 1.32 4 2 C4.53026387 8.01470729 3.36253585 10.69423743 -0.375 15.375 C-1.18710937 16.41398437 -1.99921875 17.45296875 -2.8359375 18.5234375 C-5 21 -5 21 -7 22 C-7.33 21.01 -7.66 20.02 -8 19 C-7.01 18.01 -6.02 17.02 -5 16 C-6.65 16.33 -8.3 16.66 -10 17 C-8.70966095 14.72840311 -7.41778598 12.45770375 -6.125 10.1875 C-5.76019531 9.54490234 -5.39539062 8.90230469 -5.01953125 8.24023438 C-3.41916099 5.43231202 -1.79357134 2.69035702 0 0 Z " fill="#F5F2F2" transform="translate(52,112)"/>
<path d="M0 0 C0.66 0 1.32 0 2 0 C2.103125 0.639375 2.20625 1.27875 2.3125 1.9375 C2.6528125 2.9584375 2.6528125 2.9584375 3 4 C3.99 4.33 4.98 4.66 6 5 C5.175 5.763125 4.35 6.52625 3.5 7.3125 C0.65944803 9.75434142 0.65944803 9.75434142 1 13 C0.67 13.99 0.34 14.98 0 16 C0.99 16.33 1.98 16.66 3 17 C-1.1196377 18.29243536 -4.66831683 19.26252625 -9 19 C-9.33 18.01 -9.66 17.02 -10 16 C-8.7934375 15.319375 -8.7934375 15.319375 -7.5625 14.625 C-4.91143428 13.25274335 -4.91143428 13.25274335 -4 11 C-4.66 11 -5.32 11 -6 11 C-5.67 9.02 -5.34 7.04 -5 5 C-3.68 4.67 -2.36 4.34 -1 4 C-0.67 2.68 -0.34 1.36 0 0 Z " fill="#F1EDEE" transform="translate(775,130)"/>
<path d="M0 0 C0.66 0 1.32 0 2 0 C2 0.66 2 1.32 2 2 C2.66 2 3.32 2 4 2 C3.84402344 2.79921875 3.68804687 3.5984375 3.52734375 4.421875 C2.14595051 12.21622628 1.95437023 19.15777671 3 27 C2.34 27 1.68 27 1 27 C0.67 27.66 0.34 28.32 0 29 C-2.37402517 19.03301831 -1.94931483 10.02504771 0 0 Z " fill="#F3F1F0" transform="translate(201,113)"/>
<path d="M0 0 C0.66 0.33 1.32 0.66 2 1 C1.18619792 2.69270833 0.37239583 4.38541667 -0.44140625 6.078125 C-1.11761944 8.40467666 -0.75753907 9.73239959 0 12 C-5.68971855 14.43845081 -9.80472699 15.52502314 -16 15 C-16.99 14.34 -17.98 13.68 -19 13 C-16.06639034 11.61947781 -14.15309102 10.99693818 -10.875 11.0625 C-8.01127662 11.26655842 -8.01127662 11.26655842 -6.125 9.6875 C-4.7226499 7.92199528 -4.7226499 7.92199528 -5 5 C-4.34 5 -3.68 5 -3 5 C-3 4.01 -3 3.02 -3 2 C-2.01 1.34 -1.02 0.68 0 0 Z " fill="#EEEBEB" transform="translate(168,134)"/>
<path d="M0 0 C2 1 2 1 3.3125 3.3125 C4 6 4 6 3.0625 8.25 C0.136101 10.73300521 -2.21979011 10.8649925 -6 11 C-6.99 10.34 -7.98 9.68 -9 9 C-9.1875 6.375 -9.1875 6.375 -9 4 C-7.54618103 3.30300448 -6.08677047 2.61766134 -4.625 1.9375 C-3.40683594 1.36322266 -3.40683594 1.36322266 -2.1640625 0.77734375 C-1.44992187 0.52082031 -0.73578125 0.26429687 0 0 Z " fill="#F1EEF0" transform="translate(304,103)"/>
<path d="M0 0 C1.77889572 3.55779143 0.18161876 7.35828972 -1 11 C-2.625 13.625 -2.625 13.625 -5 15 C-7.84445898 15.21446318 -10.30741221 14.95486043 -13 14 C-14.5 11.9375 -14.5 11.9375 -15 10 C-13.80375 10.185625 -12.6075 10.37125 -11.375 10.5625 C-9.15357118 10.69559629 -9.15357118 10.69559629 -7 10 C-4.47024522 7.28145755 -2.77304479 4.24546953 -1 1 C-0.67 0.67 -0.34 0.34 0 0 Z " fill="#ECEAE9" transform="translate(608,134)"/>
<path d="M0 0 C1.125 1.625 1.125 1.625 2 4 C1.1875 7.0625 1.1875 7.0625 0 10 C-0.33 10.99 -0.66 11.98 -1 13 C-1.99 13 -2.98 13 -4 13 C-4.33 10.36 -4.66 7.72 -5 5 C-5.99 5.495 -5.99 5.495 -7 6 C-9.01927511 5.39421747 -11.02253397 4.73080266 -13 4 C-12.67 3.34 -12.34 2.68 -12 2 C-9.03 2.495 -9.03 2.495 -6 3 C-6 2.34 -6 1.68 -6 1 C-4.02 0.67 -2.04 0.34 0 0 Z " fill="#F2F1EF" transform="translate(478,130)"/>
<path d="M0 0 C0.33 0 0.66 0 1 0 C0.85691406 1.22589844 0.71382813 2.45179687 0.56640625 3.71484375 C-0.09354841 9.65443568 -0.57783182 15.60646663 -1.0625 21.5625 C-1.15337891 22.66658203 -1.24425781 23.77066406 -1.33789062 24.90820312 C-1.55973611 27.60537717 -1.78041409 30.30264122 -2 33 C-2.66 32.67 -3.32 32.34 -4 32 C-4.5928401 9.58186158 -4.5928401 9.58186158 -1 1 C-0.67 0.67 -0.34 0.34 0 0 Z " fill="#F6F4F1" transform="translate(421,102)"/>
<path d="M0 0 C1.30062431 3.81516464 0.89369853 7.27561763 0.5625 11.25 C0.46066406 12.51328125 0.35882813 13.7765625 0.25390625 15.078125 C0.17011719 16.04234375 0.08632813 17.0065625 0 18 C0.99 18 1.98 18 3 18 C3 18.66 3 19.32 3 20 C4.32 20.66 5.64 21.32 7 22 C6.34 23.32 5.68 24.64 5 26 C5.66 26.33 6.32 26.66 7 27 C7 27.66 7 28.32 7 29 C3.40055356 27.84303507 1.58134471 25.69348314 -0.17578125 22.39453125 C-2.69389952 15.07886063 -2.81651725 7.17229392 0 0 Z " fill="#E3E1E0" transform="translate(401,118)"/>
<path d="M0 0 C0.66 0 1.32 0 2 0 C2 2.97 2 5.94 2 9 C2.66 9.33 3.32 9.66 4 10 C3.34 10 2.68 10 2 10 C1.67 10.99 1.34 11.98 1 13 C0.34 10.69 -0.32 8.38 -1 6 C-1.5775 6.309375 -2.155 6.61875 -2.75 6.9375 C-4.84294184 7.92583364 -6.74535275 8.5168613 -9 9 C-9.33 8.01 -9.66 7.02 -10 6 C-9.34 5.01 -8.68 4.02 -8 3 C-6.68 3 -5.36 3 -4 3 C-3.34 2.34 -2.68 1.68 -2 1 C-1.34 1.33 -0.68 1.66 0 2 C0 1.34 0 0.68 0 0 Z " fill="#EAE7E5" transform="translate(707,128)"/>
<path d="M0 0 C0.52207031 0.22816406 1.04414062 0.45632812 1.58203125 0.69140625 C7.82072291 3.12788303 13.43431386 3.55935046 20 2 C20.33 1.34 20.66 0.68 21 0 C21.66 0 22.32 0 23 0 C23 0.99 23 1.98 23 3 C17.55037377 6.53489269 12.30118721 6.86816357 6 6 C3.40956777 4.94500561 2.09861693 3.9284588 0 2 C0 1.34 0 0.68 0 0 Z " fill="#EFECEB" transform="translate(634,142)"/>
<path d="M0 0 C0.33 0 0.66 0 1 0 C0.34 9.24 -0.32 18.48 -1 28 C-1.66 27.67 -2.32 27.34 -3 27 C-3.08166849 23.99943916 -3.14081551 21.0011461 -3.1875 18 C-3.21263672 17.16082031 -3.23777344 16.32164063 -3.26367188 15.45703125 C-3.33182365 9.59597871 -2.36728835 5.36833894 0 0 Z " fill="#F1F0EE" transform="translate(688,105)"/>
<path d="M0 0 C0.86625 0.3403125 0.86625 0.3403125 1.75 0.6875 C1.564375 1.450625 1.37875 2.21375 1.1875 3 C0.52180827 5.77717375 0.52180827 5.77717375 1.75 8.6875 C0.1 9.3475 -1.55 10.0075 -3.25 10.6875 C-5.1951 7.76985 -5.70276317 6.06212715 -6.25 2.6875 C-2.80384615 -0.38942308 -2.80384615 -0.38942308 0 0 Z " fill="#EFECEB" transform="translate(539.25,130.3125)"/>
<path d="M0 0 C0.66 0.33 1.32 0.66 2 1 C1.34 2.32 0.68 3.64 0 5 C0.99 5.33 1.98 5.66 3 6 C-1.1196377 7.29243536 -4.66831683 8.26252625 -9 8 C-9.33 7.01 -9.66 6.02 -10 5 C-8.38007835 4.13624104 -6.75388139 3.28424146 -5.125 2.4375 C-4.22007812 1.96183594 -3.31515625 1.48617187 -2.3828125 0.99609375 C-1.20332031 0.50302734 -1.20332031 0.50302734 0 0 Z " fill="#D3D0D1" transform="translate(775,141)"/>
<path d="M0 0 C0.66 0 1.32 0 2 0 C1.93489583 2.01822917 1.86979167 4.03645833 1.8046875 6.0546875 C1.81668311 8.23863645 1.81668311 8.23863645 4 10 C3.625 12.125 3.625 12.125 3 14 C1.35 14 -0.3 14 -2 14 C-1.855625 13.175 -1.71125 12.35 -1.5625 11.5 C-0.94746848 7.67313722 -0.46439363 3.84783293 0 0 Z " fill="#E6E4E5" transform="translate(778,145)"/>
<path d="M0 0 C0.598125 0.309375 1.19625 0.61875 1.8125 0.9375 C4.08956772 2.10209704 4.08956772 2.10209704 7 3 C7 3.66 7 4.32 7 5 C11.455 4.505 11.455 4.505 16 4 C15.67 4.99 15.34 5.98 15 7 C11.52666191 8.15777936 9.93912156 7.98110669 6.375 6.875 C2.83628526 4.90904737 1.66245111 3.61827595 0 0 Z " fill="#EDEBEA" transform="translate(512,142)"/>
<path d="M0 0 C1.33333333 0.66666667 2.66666667 1.33333333 4 2 C6.70443914 2.54088783 9.24103859 3 12 3 C12 3.99 12 4.98 12 6 C2.26004228 6.57293869 2.26004228 6.57293869 -2 3 C-2 2.34 -2 1.68 -2 1 C-1.34 0.67 -0.68 0.34 0 0 Z " fill="#EEEBEA" transform="translate(674,144)"/>
<path d="M0 0 C0.99 0.33 1.98 0.66 3 1 C-1.75 5 -1.75 5 -4 5 C-3.67 5.99 -3.34 6.98 -3 8 C-3.33 8.66 -3.66 9.32 -4 10 C-3.34 10 -2.68 10 -2 10 C-2 10.99 -2 11.98 -2 13 C-2.66 13 -3.32 13 -4 13 C-4.33 13.66 -4.66 14.32 -5 15 C-5.33 12.69 -5.66 10.38 -6 8 C-6.99 7.67 -7.98 7.34 -9 7 C-9 6.34 -9 5.68 -9 5 C-6.03 4.01 -3.06 3.02 0 2 C0 1.34 0 0.68 0 0 Z " fill="#EBE9EA" transform="translate(118,137)"/>
<path d="M0 0 C-1.06186374 3.42156094 -2.06057448 4.03200161 -5.3125 5.75 C-8.55488708 6.84911426 -10.64158092 7.30531083 -14 7 C-13.13375 6.6596875 -13.13375 6.6596875 -12.25 6.3125 C-9.79914625 5.06925793 -9.79914625 5.06925793 -8 2.4375 C-6 0 -6 0 -3.875 -0.875 C-2 -1 -2 -1 0 0 Z " fill="#EFEDED" transform="translate(731,142)"/>
<path d="M0 0 C0.66 0 1.32 0 2 0 C1.88630789 2.45933991 1.75957349 4.9167909 1.625 7.375 C1.5940625 8.07367188 1.563125 8.77234375 1.53125 9.4921875 C1.2265625 14.7734375 1.2265625 14.7734375 -1 17 C-1.93213141 10.73960391 -2.20927172 5.97802937 0 0 Z " fill="#EDEBEA" transform="translate(734,171)"/>
<path d="M0 0 C6.93 0.495 6.93 0.495 14 1 C13.01 2.485 13.01 2.485 12 4 C9.94140625 4.328125 9.94140625 4.328125 7.5625 4.25 C6.78003906 4.23453125 5.99757813 4.2190625 5.19140625 4.203125 C3 4 3 4 0 3 C0 2.01 0 1.02 0 0 Z " fill="#EBE8E9" transform="translate(752,144)"/>
<path d="M0 0 C1.258125 -0.01675781 2.51625 -0.03351563 3.8125 -0.05078125 C4.864375 0.06910156 5.91625 0.18898437 7 0.3125 C7.66 1.3025 8.32 2.2925 9 3.3125 C2.41276707 4.35809253 -2.59233959 4.14542414 -9 2.3125 C-6.12699457 -0.56050543 -3.9965678 0.01228453 0 0 Z " fill="#EDE9E8" transform="translate(293,144.6875)"/>
<path d="M0 0 C0.66 0.33 1.32 0.66 2 1 C1.34 1.66 0.68 2.32 0 3 C0 3.99 0 4.98 0 6 C0.66 6 1.32 6 2 6 C1.61402985 8.79828356 1.19863427 9.8205884 -0.9375 11.75 C-3 13 -3 13 -5 13 C-5.33 11.68 -5.66 10.36 -6 9 C-4.68 9.33 -3.36 9.66 -2 10 C-2.20625 9.443125 -2.4125 8.88625 -2.625 8.3125 C-3.11049375 5.31862185 -2.30889514 3.69050668 -1 1 C-0.67 0.67 -0.34 0.34 0 0 Z " fill="#F0EDED" transform="translate(463,134)"/>
<path d="M0 0 C1.5625 1.6875 1.5625 1.6875 3 4 C2.6875 6.75 2.6875 6.75 2 9 C1.34 8.67 0.68 8.34 0 8 C-0.99 8.99 -1.98 9.98 -3 11 C-3 3 -3 3 -1.5 1.3125 C-0.7575 0.6628125 -0.7575 0.6628125 0 0 Z " fill="#F1EFEE" transform="translate(581,128)"/>
<path d="M0 0 C-0.99 0.33 -1.98 0.66 -3 1 C-3 2.98 -3 4.96 -3 7 C-6.75 8.125 -6.75 8.125 -9 7 C-7.53913043 1.4 -7.53913043 1.4 -5.0625 -0.4375 C-3 -1 -3 -1 0 0 Z " fill="#FBF8F7" transform="translate(48,128)"/>
<path d="M0 0 C0.99 0.33 1.98 0.66 3 1 C4.3442623 6.37704918 4.3442623 6.37704918 2.6875 9.375 C1 11 1 11 -1 11 C-1.14285714 3.57142857 -1.14285714 3.57142857 0 0 Z " fill="#F0ECEB" transform="translate(57,95)"/>
<path d="M0 0 C0 0.99 0 1.98 0 3 C-0.99 3.495 -0.99 3.495 -2 4 C-1.34 2.68 -0.68 1.36 0 0 Z M-3 4 C-2.67 4.66 -2.34 5.32 -2 6 C-0.02 5.67 1.96 5.34 4 5 C4 6.98 4 8.96 4 11 C3.67 10.34 3.34 9.68 3 9 C2.01 9.33 1.02 9.66 0 10 C-0.99 9.67 -1.98 9.34 -3 9 C-3.99 9 -4.98 9 -6 9 C-4.125 5.125 -4.125 5.125 -3 4 Z " fill="#EAE8E6" transform="translate(271,125)"/>
<path d="M0 0 C0.66 0.33 1.32 0.66 2 1 C2 3.31 2 5.62 2 8 C1.34 7.01 0.68 6.02 0 5 C-1.65 6.32 -3.3 7.64 -5 9 C-5 5 -5 5 -2.5 2.25 C-1.675 1.5075 -0.85 0.765 0 0 Z " fill="#D5D0CF" transform="translate(743,128)"/>
<path d="M0 0 C0.33 0 0.66 0 1 0 C1 2.97 1 5.94 1 9 C0.01 9.33 -0.98 9.66 -2 10 C-2 11.65 -2 13.3 -2 15 C-2.33 15 -2.66 15 -3 15 C-3.02698189 13.37509046 -3.04638757 11.75005367 -3.0625 10.125 C-3.07410156 9.22007813 -3.08570313 8.31515625 -3.09765625 7.3828125 C-3 5 -3 5 -2 3 C-1.34 3 -0.68 3 0 3 C0 2.01 0 1.02 0 0 Z " fill="#F2EDE5" transform="translate(218,112)"/>
<path d="M0 0 C0.66 0 1.32 0 2 0 C2 1.65 2 3.3 2 5 C2.99 5.33 3.98 5.66 5 6 C4.67 7.65 4.34 9.3 4 11 C3.01 11 2.02 11 1 11 C-1.43769218 7.34346173 -1.23944439 5.30999899 -1 1 C-0.67 0.67 -0.34 0.34 0 0 Z " fill="#E0D9D7" transform="translate(474,132)"/>
<path d="M0 0 C0.33 0 0.66 0 1 0 C0.38273804 5.67355671 -0.27945952 11.33861055 -1 17 C-1.33 17 -1.66 17 -2 17 C-3.11477625 10.32477353 -3.26584133 6.00914805 0 0 Z " fill="#E6E3E2" transform="translate(421,102)"/>
<path d="M0 0 C0.99 0 1.98 0 3 0 C2.67 3.3 2.34 6.6 2 10 C1.34 9.01 0.68 8.02 0 7 C-0.66 7 -1.32 7 -2 7 C-2.33 5.68 -2.66 4.36 -3 3 C-2.01 2.34 -1.02 1.68 0 1 C0 0.67 0 0.34 0 0 Z " fill="#F2EFEF" transform="translate(724,112)"/>
<path d="M0 0 C0.33 0 0.66 0 1 0 C1.83796731 4.65537393 2.0161692 8.37078475 1 13 C0.34 12.67 -0.32 12.34 -1 12 C-1.66 13.32 -2.32 14.64 -3 16 C-2.30834212 10.58201328 -1.24200752 5.3177215 0 0 Z " fill="#E5E2E1" transform="translate(13,112)"/>
<path d="M0 0 C0.33 0.99 0.66 1.98 1 3 C1.66 3.33 2.32 3.66 3 4 C2.34 4 1.68 4 1 4 C1 4.66 1 5.32 1 6 C1.66 6 2.32 6 3 6 C2.67 7.65 2.34 9.3 2 11 C0.68 11 -0.64 11 -2 11 C-1.34 7.37 -0.68 3.74 0 0 Z " fill="#EBE8E9" transform="translate(348,108)"/>
<path d="M0 0 C-0.28359887 1.4391134 -0.57721399 2.87625518 -0.875 4.3125 C-1.11863281 5.51326172 -1.11863281 5.51326172 -1.3671875 6.73828125 C-2 9 -2 9 -4 12 C-4.83220851 8.02389268 -5.23098442 4.9167686 -4 1 C-2 0 -2 0 0 0 Z " fill="#E8E6E6" transform="translate(367,102)"/>
<path d="M0 0 C0.99 0 1.98 0 3 0 C3.375 2.75 3.375 2.75 3 6 C0.03744762 8.61806955 -1.91034621 9.9052475 -5.875 10.25 C-6.57625 10.1675 -7.2775 10.085 -8 10 C-7.401875 9.731875 -6.80375 9.46375 -6.1875 9.1875 C-3.93395607 7.96414758 -2.57141964 7.02039668 -1 5 C-0.27802838 2.39388923 -0.27802838 2.39388923 0 0 Z " fill="#EAE8E9" transform="translate(567,129)"/>
<path d="M0 0 C0.66 0.33 1.32 0.66 2 1 C1.85795259 2.58367747 1.71119847 4.16693318 1.5625 5.75 C1.48128906 6.63171875 1.40007812 7.5134375 1.31640625 8.421875 C1.03761535 10.69350452 0.61209423 12.79851823 0 15 C-2.44959258 11.32561113 -2.07735068 9.33163807 -2 5 C-2.33 4.01 -2.66 3.02 -3 2 C-2.01 1.34 -1.02 0.68 0 0 Z " fill="#DFDBD9" transform="translate(290,115)"/>
<path d="M0 0 C0.95465783 2.16967689 1.14401212 3.56328793 0.3984375 5.82421875 C-0.35870385 7.5684743 -1.17609198 9.28627131 -2 11 C-2.66 11 -3.32 11 -4 11 C-4.33 9.35 -4.66 7.7 -5 6 C-4.01 6 -3.02 6 -2 6 C-1.855625 5.195625 -1.71125 4.39125 -1.5625 3.5625 C-1 1 -1 1 0 0 Z " fill="#EEEBEA" transform="translate(768,99)"/>
<path d="M0 0 C3.625 0.375 3.625 0.375 7 1 C7.33 1.99 7.66 2.98 8 4 C4.52674819 5.1577506 1.63932552 5.06866652 -2 5 C-2 2 -2 2 0 0 Z " fill="#E8E8E6" transform="translate(250,144)"/>
<path d="M0 0 C1.32 0.66 2.64 1.32 4 2 C3.67 3.65 3.34 5.3 3 7 C2.34 7 1.68 7 1 7 C0.67 7.66 0.34 8.32 0 9 C-0.84454356 5.62182575 -1.10844919 3.32534757 0 0 Z " fill="#F1EFEE" transform="translate(746,131)"/>
<path d="M0 0 C1.32 0.99 2.64 1.98 4 3 C3.34 5.31 2.68 7.62 2 10 C0.68 9.67 -0.64 9.34 -2 9 C-1.34 6.03 -0.68 3.06 0 0 Z " fill="#ECE9E7" transform="translate(274,114)"/>
<path d="M0 0 C2.10827055 3.16240582 2.33817465 4.50657469 2.625 8.1875 C2.69976563 9.08855469 2.77453125 9.98960938 2.8515625 10.91796875 C2.90054688 11.60503906 2.94953125 12.29210937 3 13 C-0.06368776 9.18969926 -1.3944535 5.58727572 -3 1 C-2.01 0.67 -1.02 0.34 0 0 Z " fill="#EAEAE8" transform="translate(582,118)"/>
<path d="M0 0 C1.32 0 2.64 0 4 0 C5.32 2.31 6.64 4.62 8 7 C4.66272214 5.82744291 2.22562513 4.81131596 0 2 C0 1.34 0 0.68 0 0 Z " fill="#F0EEEE" transform="translate(202,142)"/>
<path d="M0 0 C0 3 0 3 -1.53125 4.60546875 C-2.1809375 5.12753906 -2.830625 5.64960938 -3.5 6.1875 C-4.1496875 6.71730469 -4.799375 7.24710938 -5.46875 7.79296875 C-5.9740625 8.19128906 -6.479375 8.58960938 -7 9 C-7 6 -7 6 -4.625 3.375 C-2 1 -2 1 0 0 Z " fill="#F9F8F9" transform="translate(702,135)"/>
<path d="M0 0 C0.33 0 0.66 0 1 0 C1.66 3.63 2.32 7.26 3 11 C0.525 10.01 0.525 10.01 -2 9 C-1.34 6.03 -0.68 3.06 0 0 Z " fill="#EFEEED" transform="translate(76,117)"/>
<path d="M0 0 C1.32 0.66 2.64 1.32 4 2 C4 4.31 4 6.62 4 9 C3.01 9.495 3.01 9.495 2 10 C2.33 7.69 2.66 5.38 3 3 C2.67 3.66 2.34 4.32 2 5 C0.68 4.67 -0.64 4.34 -2 4 C-1.34 2.68 -0.68 1.36 0 0 Z " fill="#D2CDCD" transform="translate(52,112)"/>
<path d="M0 0 C1.65 0 3.3 0 5 0 C5 0.99 5 1.98 5 3 C1.85069107 4.04976964 -0.38814456 4.10131595 -3.6875 4.0625 C-4.68136719 4.05347656 -5.67523437 4.04445312 -6.69921875 4.03515625 C-7.83810547 4.01775391 -7.83810547 4.01775391 -9 4 C-9 3.67 -9 3.34 -9 3 C-4.545 2.505 -4.545 2.505 0 2 C0 1.34 0 0.68 0 0 Z " fill="#DDD9D7" transform="translate(564,145)"/>
<path d="M0 0 C-1.15173355 2.46800047 -2.04783565 4.04783565 -4 6 C-6.625 6.125 -6.625 6.125 -9 6 C-8 3 -8 3 -5.0625 1.3125 C-2 0 -2 0 0 0 Z " fill="#EAE6E7" transform="translate(489,142)"/>
<path d="M0 0 C2.64 0.33 5.28 0.66 8 1 C7.67 2.32 7.34 3.64 7 5 C6.01 5 5.02 5 4 5 C4 4.34 4 3.68 4 3 C2.35 2.67 0.7 2.34 -1 2 C-0.67 1.34 -0.34 0.68 0 0 Z " fill="#ECECEB" transform="translate(525,133)"/>
<path d="M0 0 C0.66 0.33 1.32 0.66 2 1 C-0.97 3.97 -3.94 6.94 -7 10 C-7.33 9.34 -7.66 8.68 -8 8 C-5.33333333 5.33333333 -2.66666667 2.66666667 0 0 Z " fill="#E9E7E8" transform="translate(383,13)"/>
<path d="M0 0 C1.9375 0.1875 1.9375 0.1875 4 1 C4.66 2.32 5.32 3.64 6 5 C2.7 5 -0.6 5 -4 5 C-4 4.01 -4 3.02 -4 2 C-3.01 1.67 -2.02 1.34 -1 1 C-0.67 0.67 -0.34 0.34 0 0 Z " fill="#ECE9E9" transform="translate(351,138)"/>
<path d="M0 0 C0.66 0 1.32 0 2 0 C2 0.66 2 1.32 2 2 C2.66 2 3.32 2 4 2 C4 2.99 4 3.98 4 5 C3.01 5.66 2.02 6.32 1 7 C0.34 7.99 -0.32 8.98 -1 10 C-0.67 6.7 -0.34 3.4 0 0 Z " fill="#E5E3E2" transform="translate(201,113)"/>
<path d="M0 0 C2.31 0.33 4.62 0.66 7 1 C6.01 2.32 5.02 3.64 4 5 C2.35 4.01 0.7 3.02 -1 2 C-0.67 1.34 -0.34 0.68 0 0 Z " fill="#EFEEEC" transform="translate(393,162)"/>
<path d="M0 0 C0.33 0.66 0.66 1.32 1 2 C-2.63 1.67 -6.26 1.34 -10 1 C-5.67161176 -1.16419412 -4.50257649 -1.20068706 0 0 Z " fill="#F0E6E6" transform="translate(93,155)"/>
<path d="M0 0 C0.99 0.33 1.98 0.66 3 1 C3 1.66 3 2.32 3 3 C1.25 4.5078125 1.25 4.5078125 -1 6.125 C-1.7425 6.66382813 -2.485 7.20265625 -3.25 7.7578125 C-3.8275 8.16773438 -4.405 8.57765625 -5 9 C-5.66 8.67 -6.32 8.34 -7 8 C-6.21625 7.4225 -5.4325 6.845 -4.625 6.25 C-2.19952756 4.17102363 -1.14305583 2.90959667 0 0 Z " fill="#DED9D9" transform="translate(784,132)"/>
<path d="M0 0 C0.99 0.99 1.98 1.98 3 3 C2.54625 3.7425 2.0925 4.485 1.625 5.25 C0.31359204 7.46930578 -0.88280803 9.67967822 -2 12 C-1 3.42857143 -1 3.42857143 0 0 Z " fill="#E4E3E2" transform="translate(140,106)"/>
<path d="M0 0 C0.33 0.99 0.66 1.98 1 3 C-0.65 4.65 -2.3 6.3 -4 8 C-4.33 7.01 -4.66 6.02 -5 5 C-3.35 3.35 -1.7 1.7 0 0 Z " fill="#CDC9C7" transform="translate(786,126)"/>
<path d="M0 0 C0.33 0.99 0.66 1.98 1 3 C0.34 3 -0.32 3 -1 3 C-1 3.99 -1 4.98 -1 6 C-2.65 6.66 -4.3 7.32 -6 8 C-2.25 1.125 -2.25 1.125 0 0 Z " fill="#E8E5E6" transform="translate(48,121)"/>
<path d="M0 0 C0.66 0.99 1.32 1.98 2 3 C1 6 1 6 -1 9 C-1.625 6.1875 -1.625 6.1875 -2 3 C-1.34 2.01 -0.68 1.02 0 0 Z " fill="#E5E2E0" transform="translate(57,120)"/>
<path d="M0 0 C1.88391785 3.26545761 2.49287967 6.28111761 3 10 C2.01 9.67 1.02 9.34 0 9 C-0.84454356 5.62182575 -1.10844919 3.32534757 0 0 Z " fill="#E6E3E0" transform="translate(512,106)"/>
<path d="M0 0 C1.65 0 3.3 0 5 0 C5 1.98 5 3.96 5 6 C4.34 6 3.68 6 3 6 C0 2.53846154 0 2.53846154 0 0 Z " fill="#E1DCDB" transform="translate(161,98)"/>
<path d="M0 0 C1.09651823 3.41139003 0.94215473 6.20655581 0.5625 9.75 C0.40974609 11.22726563 0.40974609 11.22726563 0.25390625 12.734375 C0.12822266 13.85585937 0.12822266 13.85585937 0 15 C-0.33 15 -0.66 15 -1 15 C-1.22211116 13.06403108 -1.42722992 11.12610672 -1.625 9.1875 C-1.74101563 8.10855469 -1.85703125 7.02960938 -1.9765625 5.91796875 C-2 3 -2 3 0 0 Z " fill="#DCD7D0" transform="translate(76,97)"/>
<path d="M0 0 C3.3 0.99 6.6 1.98 10 3 C6 5 6 5 3.3125 4.3125 C1 3 1 3 0 0 Z " fill="#E7E6E4" transform="translate(405,152)"/>
<path d="M0 0 C0.99 0.66 1.98 1.32 3 2 C2.67 2.99 2.34 3.98 2 5 C-0.0625 5.6875 -0.0625 5.6875 -2 6 C-2.33 5.01 -2.66 4.02 -3 3 C-2.01 2.01 -1.02 1.02 0 0 Z " fill="#F2F1EF" transform="translate(244,139)"/>
<path d="M0 0 C-1.75 3.875 -1.75 3.875 -4 5 C-4 4.34 -4 3.68 -4 3 C-4.99 2.67 -5.98 2.34 -7 2 C-4 0 -4 0 0 0 Z " fill="#E3E2E0" transform="translate(430,132)"/>
<path d="M0 0 C0.33 0.99 0.66 1.98 1 3 C-0.98 3.66 -2.96 4.32 -5 5 C-4.67 4.01 -4.34 3.02 -4 2 C-4.66 1.67 -5.32 1.34 -6 1 C-3 0 -3 0 0 0 Z " fill="#EEEBEB" transform="translate(338,129)"/>
<path d="M0 0 C0.66 0 1.32 0 2 0 C1.50351065 4.46840411 1.31012244 5.68987756 -2 9 C-1.34 6.03 -0.68 3.06 0 0 Z " fill="#EDECEC" transform="translate(540,120)"/>
<path d="M0 0 C0.97608217 2.92824652 1.08226668 4.95613276 1 8 C-0.32 7.67 -1.64 7.34 -3 7 C-1.125 1.125 -1.125 1.125 0 0 Z " fill="#EEEDED" transform="translate(789,153)"/>
<path d="M0 0 C0.33 0.66 0.66 1.32 1 2 C1.66 2 2.32 2 3 2 C3.33 3.65 3.66 5.3 4 7 C3.34 7 2.68 7 2 7 C2 6.34 2 5.68 2 5 C1.01 4.67 0.02 4.34 -1 4 C-0.67 2.68 -0.34 1.36 0 0 Z " fill="#F1E7E8" transform="translate(70,145)"/>
<path d="M0 0 C0.99 0 1.98 0 3 0 C4.75 1.8125 4.75 1.8125 6 4 C5.67 4.99 5.34 5.98 5 7 C0 1.125 0 1.125 0 0 Z " fill="#F1EEEA" transform="translate(275,137)"/>
<path d="M0 0 C1.32 1.32 2.64 2.64 4 4 C3.34 4 2.68 4 2 4 C1.67 4.66 1.34 5.32 1 6 C0.01 5.34 -0.98 4.68 -2 4 C-2 3.34 -2 2.68 -2 2 C-1.34 2 -0.68 2 0 2 C0 1.34 0 0.68 0 0 Z " fill="#E2E0DF" transform="translate(796,132)"/>
<path d="" fill="#000000" transform="translate(0,0)"/>
<path d="" fill="#000000" transform="translate(0,0)"/>
<path d="" fill="#000000" transform="translate(0,0)"/>
<path d="" fill="#000000" transform="translate(0,0)"/>
<path d="" fill="#000000" transform="translate(0,0)"/>
<path d="" fill="#000000" transform="translate(0,0)"/>
<path d="" fill="#000000" transform="translate(0,0)"/>
<path d="" fill="#000000" transform="translate(0,0)"/>
<path d="" fill="#000000" transform="translate(0,0)"/>
<path d="" fill="#000000" transform="translate(0,0)"/>
<path d="" fill="#000000" transform="translate(0,0)"/>
<path d="" fill="#000000" transform="translate(0,0)"/>
<path d="" fill="#000000" transform="translate(0,0)"/>
<path d="" fill="#000000" transform="translate(0,0)"/>
<path d="" fill="#000000" transform="translate(0,0)"/>
<path d="" fill="#000000" transform="translate(0,0)"/>
<path d="" fill="#000000" transform="translate(0,0)"/>
<path d="" fill="#000000" transform="translate(0,0)"/>
<path d="" fill="#000000" transform="translate(0,0)"/>
<path d="" fill="#000000" transform="translate(0,0)"/>
<path d="" fill="#000000" transform="translate(0,0)"/>
<path d="" fill="#000000" transform="translate(0,0)"/>
<path d="" fill="#000000" transform="translate(0,0)"/>
<path d="" fill="#000000" transform="translate(0,0)"/>
<path d="" fill="#000000" transform="translate(0,0)"/>
<path d="" fill="#000000" transform="translate(0,0)"/>
<path d="" fill="#000000" transform="translate(0,0)"/>
<path d="" fill="#000000" transform="translate(0,0)"/>
<path d="" fill="#000000" transform="translate(0,0)"/>
<path d="" fill="#000000" transform="translate(0,0)"/>
<path d="" fill="#000000" transform="translate(0,0)"/>
<path d="" fill="#000000" transform="translate(0,0)"/>
<path d="" fill="#000000" transform="translate(0,0)"/>
<path d="" fill="#000000" transform="translate(0,0)"/>
<path d="" fill="#000000" transform="translate(0,0)"/>
<path d="" fill="#000000" transform="translate(0,0)"/>
<path d="" fill="#000000" transform="translate(0,0)"/>
<path d="" fill="#000000" transform="translate(0,0)"/>
<path d="" fill="#000000" transform="translate(0,0)"/>
<path d="" fill="#000000" transform="translate(0,0)"/>
<path d="" fill="#000000" transform="translate(0,0)"/>
<path d="" fill="#000000" transform="translate(0,0)"/>
<path d="" fill="#000000" transform="translate(0,0)"/>
<path d="" fill="#000000" transform="translate(0,0)"/>
<path d="" fill="#000000" transform="translate(0,0)"/>
<path d="" fill="#000000" transform="translate(0,0)"/>
<path d="" fill="#000000" transform="translate(0,0)"/>
<path d="" fill="#000000" transform="translate(0,0)"/>
<path d="" fill="#000000" transform="translate(0,0)"/>
<path d="" fill="#000000" transform="translate(0,0)"/>
<path d="" fill="#000000" transform="translate(0,0)"/>
<path d="" fill="#000000" transform="translate(0,0)"/>
<path d="" fill="#000000" transform="translate(0,0)"/>
<path d="" fill="#000000" transform="translate(0,0)"/>
<path d="" fill="#000000" transform="translate(0,0)"/>
<path d="" fill="#000000" transform="translate(0,0)"/>
<path d="" fill="#000000" transform="translate(0,0)"/>
<path d="" fill="#000000" transform="translate(0,0)"/>
<path d="" fill="#000000" transform="translate(0,0)"/>
<path d="" fill="#000000" transform="translate(0,0)"/>
<path d="" fill="#000000" transform="translate(0,0)"/>
<path d="" fill="#000000" transform="translate(0,0)"/>
<path d="" fill="#000000" transform="translate(0,0)"/>
</svg>
