<?xml version="1.0" encoding="UTF-8"?>
<svg version="1.1" xmlns="http://www.w3.org/2000/svg" width="463" height="396">
<path d="M0 0 C0.75934341 -0.00761353 1.51868683 -0.01522705 2.30104065 -0.02307129 C3.90386677 -0.03385565 5.50676307 -0.03673213 7.10961914 -0.03222656 C9.55539722 -0.03125438 11.99803427 -0.07288367 14.44335938 -0.1171875 C16.00389973 -0.12239514 17.56445095 -0.12508268 19.125 -0.125 C19.85222763 -0.14139526 20.57945526 -0.15779053 21.32872009 -0.17468262 C24.97608862 -0.12531045 26.88981911 0.28805512 29.82168961 2.50387478 C32.70544031 6.20962171 32.82974228 9.01368279 32.76141357 13.52198792 C32.76906368 14.32789759 32.7767138 15.13380727 32.78459573 15.96413845 C32.80418695 18.66218156 32.78823721 21.35883401 32.77246094 24.05688477 C32.77927652 25.992003 32.7882983 27.92711453 32.79936218 29.86221313 C32.82327414 35.11628336 32.81664181 40.36992983 32.80487347 45.62402463 C32.79802994 51.11951588 32.82012475 56.61488573 32.8394165 62.1103363 C32.87173726 72.52127192 32.87953107 82.93206896 32.87784219 93.34304899 C32.87638234 108.6295174 32.90987969 123.91591761 32.94557571 139.20233822 C32.95080073 141.45585059 32.95602307 143.70936298 32.96124268 145.96287537 C32.96515011 147.61289855 32.96515011 147.61289855 32.96913648 149.29625553 C32.98379108 155.84413539 32.99071961 162.39196739 32.99089098 168.93986332 C32.99153707 173.00881351 32.9958825 177.07775489 33.00086403 181.14670181 C33.00222741 183.03655516 33.00184778 184.92641067 32.99961662 186.8162632 C32.99671657 189.39169987 32.99981837 191.967063 33.0043335 194.54249573 C33.001901 195.29395058 32.99946851 196.04540543 32.99696231 196.81963164 C33.00857777 200.17710702 33.07895351 203.25923584 34.12890625 206.46875 C37.02952884 207.2979208 39.6094485 207.59672449 42.62244606 207.60576439 C43.52295932 207.61083893 44.42347259 207.61591347 45.35127413 207.62114179 C46.82936228 207.62188843 46.82936228 207.62188843 48.33731079 207.62265015 C49.38722934 207.6270324 50.43714789 207.63141465 51.51888216 207.6359297 C55.04855996 207.64931926 58.57821279 207.65549695 62.10791016 207.66162109 C64.63411573 207.66952192 67.16032018 207.67779086 69.68652344 207.68640137 C77.27562054 207.71035921 84.8647164 207.72554927 92.45383936 207.73846143 C94.59819888 207.74217491 96.74255776 207.74614801 98.88691664 207.7502141 C112.21006405 207.77545195 125.53321252 207.79749972 138.85637856 207.80994225 C141.94119902 207.81287182 145.02601946 207.8158335 148.11083984 207.81884766 C149.26088009 207.81996673 149.26088009 207.81996673 150.43415348 207.82110842 C162.84941097 207.83375748 175.26452509 207.86697582 187.67971559 207.90864949 C200.43321141 207.95110696 213.18663391 207.97464166 225.94020021 207.97986281 C233.09800426 207.98327259 240.25558427 207.99497639 247.41331863 208.02796555 C254.14881426 208.05895827 260.88385174 208.06436161 267.61943054 208.05258179 C270.08891123 208.05236097 272.55840997 208.06067299 275.02782822 208.07823563 C278.40522048 208.1009446 281.78119953 208.09262256 285.15859985 208.07675171 C286.13060762 208.0906338 287.10261539 208.10451588 288.10407794 208.11881864 C295.70656907 208.03109039 302.2929468 205.95075582 308.01329958 200.75823438 C312.43892144 196.00193129 316.35207086 190.12392687 316.37890625 183.46875 C316.29640625 182.47875 316.21390625 181.48875 316.12890625 180.46875 C316.78890625 180.46875 317.44890625 180.46875 318.12890625 180.46875 C317.66484375 178.73625 317.66484375 178.73625 317.19140625 176.96875 C316.4411205 174.05947873 316.07509937 171.63474344 315.87890625 168.59375 C315.16495511 162.45861055 311.83012618 156.85807649 307.234375 152.79296875 C299.44870092 147.58716301 291.1915877 147.17599394 282.1015625 147.21337891 C281.0239415 147.20975845 279.9463205 147.206138 278.83604431 147.20240784 C276.50569502 147.19553811 274.17532973 147.19300383 271.8449707 147.19435501 C268.14328271 147.19532511 264.44188125 147.18231833 260.74023438 147.16537476 C250.21860545 147.11926402 239.69701489 147.09452546 229.17529297 147.08789062 C222.72739556 147.08284559 216.27979664 147.05844169 209.83200073 147.02256393 C207.38908693 147.01283248 204.9461317 147.01039718 202.50320435 147.01573563 C179.43281269 147.06376702 158.6779585 144.55751555 141.33984375 127.82421875 C137.6565292 123.90012215 134.29804377 119.81743198 131.12890625 115.46875 C130.42121094 114.50195312 130.42121094 114.50195312 129.69921875 113.515625 C118.06583525 96.31844939 116.53852275 73.08407878 120.12890625 53.09375 C124.64624022 35.81546799 134.31589972 19.59036009 149.625 9.859375 C159.78424233 4.21711249 169.23336445 1.23632093 180.81640625 0.83618164 C181.8307373 0.79815209 182.84506836 0.76012255 183.89013672 0.72094059 C201.5630919 0.16639462 219.26055065 0.45137627 236.93853378 0.56928515 C242.33961507 0.60408944 247.74073082 0.63236813 253.1418457 0.66139221 C263.33025006 0.71710619 273.51861127 0.77853625 283.70696926 0.84211355 C295.32275743 0.91431296 306.93857972 0.9799976 318.55440903 1.04518402 C342.41261908 1.17921638 366.27077579 1.32127076 390.12890625 1.46875 C389.2018955 7.03081451 386.89964745 9.82345541 382.78292847 13.64852905 C380.25327391 16.33659425 378.57541028 18.86684568 376.70337296 22.0054512 C369.39639541 33.83675668 358.97187592 46.10582386 345.12792778 50.03694725 C321.2937637 55.40546582 294.98226336 52.94922018 270.7690022 52.12138963 C260.01347257 51.75948321 249.25635281 51.60775168 238.49609375 51.4609375 C234.71369304 51.40869512 230.93131367 51.35525131 227.1489563 51.29995728 C225.77530747 51.27996687 225.77530747 51.27996687 224.37390816 51.25957263 C218.09330456 51.16218253 211.81597679 51.0050322 205.537323 50.82284546 C203.05357871 50.75653221 200.56980636 50.69140499 198.08601952 50.62670708 C196.53747665 50.58290134 194.98908106 50.53346008 193.44091606 50.47788048 C191.32361946 50.40191725 189.20656937 50.34509875 187.08859253 50.29208374 C185.90639067 50.25383169 184.7241888 50.21557964 183.50616264 50.17616844 C178.63336238 50.59831332 174.87489952 52.20775486 170.87890625 55.09375 C166.00485495 61.70853391 165.28592434 69.47728152 166.12890625 77.46875 C167.57473755 84.38316772 169.28908328 90.48087392 175.25390625 94.65625 C180.18445061 97.24740842 185.5756277 98.46875 191.12890625 98.46875 C192.67578378 98.48012925 194.22265851 98.49189259 195.76953125 98.50390625 C197.63932196 98.51321531 199.50911368 98.52232193 201.37890625 98.53125 C202.77302734 98.54381836 202.77302734 98.54381836 204.1953125 98.55664062 C209.30058927 98.57469323 214.09088 98.26282301 219.12890625 97.46875 C219.76828125 97.63375 220.40765625 97.79875 221.06640625 97.96875 C224.47428667 98.79490283 227.6846017 97.98539568 231.12890625 97.46875 C231.12890625 98.12875 231.12890625 98.78875 231.12890625 99.46875 C232.24265625 99.30375 233.35640625 99.13875 234.50390625 98.96875 C239.79417581 98.38003376 245.04904293 98.43729573 250.36157227 98.49267578 C256.12744678 98.52857138 261.85239869 98.30856297 267.61010742 98.01025391 C293.51032867 96.71571738 316.9888625 98.13812009 337.31640625 115.84375 C352.75661141 130.33115769 362.73873449 147.46225762 363.46484375 168.97265625 C363.79876478 194.74990799 359.41875753 214.04513001 343.12890625 234.46875 C342.39994141 235.42587891 342.39994141 235.42587891 341.65625 236.40234375 C339.34304969 239.3522047 337.44074752 240.85066235 334.12890625 242.46875 C332.18942126 243.73655187 330.2521754 245.00778174 328.31640625 246.28125 C318.83351253 252.31220596 307.51883828 256.46425097 296.20751953 256.67407227 C295.22551071 256.69400742 294.24350189 256.71394257 293.23173523 256.73448181 C291.60688957 256.75956566 291.60688957 256.75956566 289.94921875 256.78515625 C288.77482742 256.80602798 287.6004361 256.82689972 286.39045715 256.84840393 C282.34501581 256.91644877 278.29952452 256.97503004 274.25390625 257.03125 C273.5369521 257.04159019 272.81999794 257.05193039 272.0813179 257.06258392 C221.51409396 257.79067448 170.93789619 257.63043373 120.36714739 257.48571056 C115.42083458 257.47178936 110.47451943 257.46031328 105.52819824 257.4498291 C89.65336164 257.41568334 73.77873903 257.3674017 57.90408802 257.28163338 C56.51053185 257.27414099 55.11697557 257.26666856 53.72341919 257.25921631 C53.03762502 257.25554814 52.35183084 257.25187997 51.64525503 257.24810064 C46.8297428 257.22334744 42.01426273 257.20866894 37.19869995 257.19830322 C30.74452338 257.18424852 24.29066656 257.14953262 17.83665848 257.10056686 C15.4608244 257.08573349 13.08493708 257.07770143 10.70905685 257.07683182 C7.46747133 257.07449446 4.22699151 257.04775242 0.9855957 257.01464844 C0.03650802 257.01967943 -0.91257967 257.02471043 -1.89042759 257.02989388 C-8.23575083 256.9282042 -8.23575083 256.9282042 -11.42463684 254.62213135 C-13.51594793 251.50873733 -13.99618819 249.00953682 -13.9997282 245.34978676 C-14.00295265 244.50739877 -14.0061771 243.66501079 -14.00949925 242.79709589 C-14.00795065 241.87152648 -14.00640205 240.94595706 -14.00480652 239.99234009 C-14.00707208 239.00916852 -14.00933763 238.02599696 -14.01167184 237.01303232 C-14.01802511 233.70350064 -14.01718163 230.39400977 -14.01635742 227.08447266 C-14.01934808 224.71778815 -14.02275039 222.35110414 -14.02653503 219.98442078 C-14.03446817 214.21393525 -14.0375901 208.44346221 -14.03814741 202.6729715 C-14.03862235 197.98296193 -14.04067598 193.29295574 -14.04384804 188.60294724 C-14.05265605 175.30965394 -14.0572672 162.01636872 -14.05651756 148.72307248 C-14.05647761 148.00621638 -14.05643765 147.28936027 -14.05639648 146.55078125 C-14.0563556 145.83305115 -14.05631472 145.11532104 -14.0562726 144.37584154 C-14.05586612 132.74288183 -14.06543593 121.10995448 -14.07953485 109.47700413 C-14.09389303 97.53604166 -14.10080534 85.59509498 -14.09994107 73.65412366 C-14.09960891 66.94870918 -14.10236467 60.24332862 -14.11311913 53.53792191 C-14.12277801 47.23264355 -14.12289448 40.92743698 -14.11560249 34.62215614 C-14.1145539 32.30539534 -14.11693573 29.98863011 -14.12296295 27.67187691 C-14.13064702 24.51420842 -14.12606178 21.35679006 -14.11833191 18.1991272 C-14.12347547 17.27801922 -14.12861904 16.35691125 -14.13391846 15.40789092 C-14.10520427 10.11558177 -13.98429428 5.7762424 -10.23803711 1.68554688 C-6.88453706 -0.0384185 -3.68765249 0.00101851 0 0 Z " fill="#F9F9F9" transform="translate(67.87109375,45.53125)"/>
<path d="M0 0 C0.97087372 -0.0039821 1.94174744 -0.00796419 2.94204158 -0.01206696 C4.54562281 -0.00332844 4.54562281 -0.00332844 6.18159962 0.00558662 C7.3153069 0.00387777 8.44901417 0.00216892 9.61707622 0.00040829 C13.43583252 -0.00289969 17.25441514 0.0081387 21.0731554 0.01904488 C23.80262838 0.02072086 26.53209791 0.01938115 29.26157093 0.01815987 C35.14816764 0.01711016 41.03472008 0.02339567 46.92130566 0.03463554 C55.4323581 0.05087603 63.94338909 0.05609706 72.45445535 0.05861153 C86.2624261 0.06299091 100.07037325 0.07630662 113.87833118 0.09521675 C127.29304352 0.11356925 140.70774945 0.12772884 154.12247181 0.13623238 C154.94908141 0.13675782 155.77569102 0.13728327 156.6273494 0.13782464 C160.77412519 0.14043468 164.92090103 0.1429621 169.0676769 0.14544845 C203.48008321 0.16618853 237.89246149 0.20142069 272.30484486 0.24609566 C271.53874323 5.23409478 269.87616261 7.07881968 266.17984486 10.55859566 C263.00272079 13.57290311 259.9726156 16.57297882 257.11343861 19.89062691 C252.87479535 24.79061463 248.44917146 29.50168934 243.92667103 34.13916206 C242.96765086 35.13001354 242.01678906 36.12882453 241.07413197 37.13525581 C235.81631621 42.74128935 231.41199283 47.25137972 223.48965931 48.27978706 C221.26938402 48.24554883 219.42525612 47.88520638 217.30484486 47.24609566 C216.97484486 47.90609566 216.64484486 48.56609566 216.30484486 49.24609566 C214.65484486 49.24609566 213.00484486 49.24609566 211.30484486 49.24609566 C211.30484486 48.91609566 211.30484486 48.58609566 211.30484486 48.24609566 C205.36484486 47.91609566 199.42484486 47.58609566 193.30484486 47.24609566 C192.97484486 47.90609566 192.64484486 48.56609566 192.30484486 49.24609566 C192.30484486 48.58609566 192.30484486 47.92609566 192.30484486 47.24609566 C189.99484486 47.24609566 187.68484486 47.24609566 185.30484486 47.24609566 C184.97484486 48.23609566 184.64484486 49.22609566 184.30484486 50.24609566 C179.55484486 49.49609566 179.55484486 49.49609566 177.30484486 47.24609566 C177.30484486 47.90609566 177.30484486 48.56609566 177.30484486 49.24609566 C174.66484486 48.58609566 172.02484486 47.92609566 169.30484486 47.24609566 C168.97484486 47.90609566 168.64484486 48.56609566 168.30484486 49.24609566 C168.30484486 48.58609566 168.30484486 47.92609566 168.30484486 47.24609566 C164.9277886 47.78335461 161.60815886 48.35674189 158.30484486 49.24609566 C158.30484486 48.58609566 158.30484486 47.92609566 158.30484486 47.24609566 C156.65484486 47.24609566 155.00484486 47.24609566 153.30484486 47.24609566 C152.97484486 47.90609566 152.64484486 48.56609566 152.30484486 49.24609566 C152.30484486 48.58609566 152.30484486 47.92609566 152.30484486 47.24609566 C142.07484486 47.24609566 131.84484486 47.24609566 121.30484486 47.24609566 C120.97484486 47.90609566 120.64484486 48.56609566 120.30484486 49.24609566 C120.30484486 48.58609566 120.30484486 47.92609566 120.30484486 47.24609566 C117.99484486 47.24609566 115.68484486 47.24609566 113.30484486 47.24609566 C112.97484486 47.90609566 112.64484486 48.56609566 112.30484486 49.24609566 C112.30484486 48.58609566 112.30484486 47.92609566 112.30484486 47.24609566 C105.04484486 47.57609566 97.78484486 47.90609566 90.30484486 48.24609566 C90.30484486 48.57609566 90.30484486 48.90609566 90.30484486 49.24609566 C87.99484486 49.24609566 85.68484486 49.24609566 83.30484486 49.24609566 C83.30484486 48.91609566 83.30484486 48.58609566 83.30484486 48.24609566 C77.36484486 47.91609566 71.42484486 47.58609566 65.30484486 47.24609566 C64.80984486 48.23609566 64.80984486 48.23609566 64.30484486 49.24609566 C63.64484486 48.91609566 62.98484486 48.58609566 62.30484486 48.24609566 C60.10048086 48.01659246 57.89092313 47.83533632 55.67984486 47.68359566 C54.49132923 47.59980659 53.30281361 47.51601753 52.07828236 47.42968941 C50.70543079 47.3388105 50.70543079 47.3388105 49.30484486 47.24609566 C48.80984486 48.23609566 48.80984486 48.23609566 48.30484486 49.24609566 C47.64484486 48.91609566 46.98484486 48.58609566 46.30484486 48.24609566 C44.2968403 48.5272163 42.29470435 48.85677532 40.30484486 49.24609566 C40.30484486 48.58609566 40.30484486 47.92609566 40.30484486 47.24609566 C24.79484486 47.24609566 9.28484486 47.24609566 -6.69515514 47.24609566 C-6.69515514 47.90609566 -6.69515514 48.56609566 -6.69515514 49.24609566 C-8.67515514 49.24609566 -10.65515514 49.24609566 -12.69515514 49.24609566 C-12.69515514 48.91609566 -12.69515514 48.58609566 -12.69515514 48.24609566 C-13.59347057 48.22103951 -14.491786 48.19598335 -15.41732311 48.17016792 C-18.74590383 48.07510873 -22.07430508 47.97587145 -25.40267467 47.8737812 C-26.84403135 47.83043335 -28.28543932 47.78875814 -29.72689342 47.7487812 C-31.79720055 47.69107478 -33.86724946 47.62738195 -35.93734264 47.56250191 C-37.18370495 47.52584419 -38.43006725 47.48918648 -39.71419811 47.45141792 C-42.69515514 47.24609566 -42.69515514 47.24609566 -44.69515514 46.24609566 C-43.40591534 43.45786329 -42.00895984 41.25612963 -39.97249889 38.96093941 C-39.43794079 38.35258247 -38.90338268 37.74422554 -38.35262585 37.11743355 C-37.50124035 36.16018379 -37.50124035 36.16018379 -36.63265514 35.18359566 C-31.72488795 29.61300372 -26.98573781 23.96711661 -22.40218639 18.12500191 C-21.83886608 17.50496284 -21.27554577 16.88492378 -20.69515514 16.24609566 C-20.03515514 16.24609566 -19.37515514 16.24609566 -18.69515514 16.24609566 C-18.3374403 15.41465034 -18.3374403 15.41465034 -17.97249889 14.56640816 C-16.39870169 11.70758389 -14.45165721 9.53485819 -12.25765514 7.12109566 C-11.47519421 6.25226753 -10.69273327 5.38343941 -9.88656139 4.48828316 C-6.59879234 1.12432695 -4.61634291 -0.00417202 0 0 Z " fill="#F9F9F9" transform="translate(75.6951551437378,331.75390434265137)"/>
<path d="M0 0 C0.33 0 0.66 0 1 0 C1.00808685 0.97274872 1.01617371 1.94549744 1.02450562 2.94772339 C1.10188279 12.10066004 1.18960041 21.2534465 1.28752708 30.40618706 C1.33754143 35.11206979 1.38387083 39.81792951 1.421875 44.52392578 C1.45866313 49.06275093 1.50500504 53.60138588 1.55806351 58.14004898 C1.57664199 59.87441813 1.59173709 61.60882809 1.60334396 63.3432579 C1.62014765 65.76663577 1.64916748 68.18957473 1.68115234 70.61279297 C1.68331253 71.33496002 1.68547272 72.05712708 1.68769836 72.80117798 C1.64495889 76.84930805 1.64495889 76.84930805 4 80 C6.33413831 80.30704537 6.33413831 80.30704537 9.08963966 80.26006222 C10.17405739 80.26712781 11.25847512 80.2741934 12.375754 80.2814731 C13.57688122 80.27905802 14.77800843 80.27664293 16.01553345 80.27415466 C17.91839098 80.28200968 17.91839098 80.28200968 19.85969007 80.29002339 C23.3929952 80.30425318 26.92621259 80.30586573 30.45954227 80.30542648 C34.26627498 80.30707052 38.07297109 80.32013001 41.87968445 80.33161926 C50.21301862 80.35450935 58.54632739 80.36239553 66.87968874 80.36744571 C72.08636511 80.37070087 77.29303408 80.37722263 82.49970627 80.3844471 C96.92169012 80.40402544 111.34366706 80.42042002 125.76566505 80.42332363 C126.68943214 80.4235112 127.61319922 80.42369877 128.56495925 80.42389202 C130.43765442 80.42425827 132.31034958 80.42462197 134.18304475 80.42498314 C135.5774376 80.42525735 135.5774376 80.42525735 137 80.42553711 C138.39610168 80.42580793 138.39610168 80.42580793 139.82040744 80.42608423 C154.87330908 80.42961943 169.92606708 80.45659523 184.97891898 80.494035 C200.44215692 80.53218638 215.90532377 80.55148165 231.36860979 80.55178314 C240.04685347 80.55236651 248.72492624 80.56077886 257.40312576 80.58978081 C264.80020124 80.61438724 272.1970436 80.62151617 279.59414901 80.60653328 C283.36331161 80.59939956 287.13201485 80.60006634 290.90112495 80.62294388 C317.3806454 80.77785275 317.3806454 80.77785275 341.1796875 70.0390625 C341.78039062 69.69617188 342.38109375 69.35328125 343 69 C343.66 69.33 344.32 69.66 345 70 C332.23399728 79.59924236 318.15032445 83.24301677 302.4296875 83.4140625 C301.26095596 83.43351929 300.09222443 83.45297607 298.88807678 83.47302246 C295.59196811 83.52402526 292.29602812 83.56548125 288.99973679 83.60129547 C286.8402942 83.62538719 284.68091034 83.65261944 282.52151489 83.68060303 C232.76448856 84.31537684 182.99783765 84.15936378 133.23824137 84.0169605 C128.29192849 84.00303944 123.34561326 83.99156328 118.39929199 83.9810791 C102.52445539 83.94693334 86.64983278 83.8986517 70.77518177 83.81288338 C69.3816256 83.80539099 67.98806932 83.79791856 66.59451294 83.79046631 C65.56582168 83.78496405 65.56582168 83.78496405 64.51634878 83.77935064 C59.70083655 83.75459744 54.88535648 83.73991894 50.0697937 83.72955322 C43.61561713 83.71549852 37.16176031 83.68078262 30.70775223 83.63181686 C28.33191815 83.61698349 25.95603083 83.60895143 23.5801506 83.60808182 C20.33856508 83.60574446 17.09808526 83.57900242 13.85668945 83.54589844 C12.43305792 83.55344493 12.43305792 83.55344493 10.98066616 83.56114388 C4.63534292 83.4594542 4.63534292 83.4594542 1.44645691 81.15338135 C-1.27454973 77.10254173 -1.12648259 73.66328397 -1.12939453 68.89819336 C-1.13114685 68.17920364 -1.13289917 67.46021393 -1.13470459 66.71943665 C-1.13910591 64.34288113 -1.13619147 61.96640002 -1.1328125 59.58984375 C-1.13348596 57.93982428 -1.13445634 56.2898049 -1.13571167 54.63978577 C-1.13718625 51.18229223 -1.13504149 47.72482452 -1.13037109 44.26733398 C-1.12466948 39.82954576 -1.12795706 35.39181796 -1.13394356 30.95403194 C-1.13755182 27.54748578 -1.13640944 24.14095401 -1.13381577 20.73440742 C-1.13314746 19.09769242 -1.13397156 17.46097611 -1.13629532 15.82426262 C-1.13882666 13.54027705 -1.13497464 11.25639029 -1.12939453 8.97241211 C-1.12859894 7.6712999 -1.12780334 6.37018768 -1.12698364 5.02964783 C-1 2 -1 2 0 0 Z " fill="#AFB0B1" transform="translate(55,219)"/>
<path d="M0 0 C5.43178392 0.03477803 10.86360186 0.06307401 16.29541898 0.09210706 C26.54406342 0.14784565 36.79266526 0.20927179 47.04126388 0.2728284 C58.72474249 0.34499996 70.40825484 0.41069847 82.09177411 0.47589886 C106.0911723 0.6099712 130.09051778 0.75202425 154.08983731 0.89946485 C153.75983731 2.21946485 153.42983731 3.53946485 153.08983731 4.89946485 C153.08983731 4.23946485 153.08983731 3.57946485 153.08983731 2.89946485 C125.1954862 2.87610396 97.30113655 2.85846997 69.40677762 2.84765267 C56.45493612 2.84249651 43.50310069 2.83546672 30.55126309 2.82402539 C19.26238557 2.81405784 7.97351244 2.80760647 -3.31536937 2.80537635 C-9.2926514 2.80407277 -15.26992083 2.80100917 -21.24719882 2.79373479 C-26.87446753 2.78694193 -32.50171847 2.78485455 -38.12899089 2.78635716 C-40.19293001 2.78608231 -42.25686974 2.78409658 -44.32080531 2.78025937 C-47.14252363 2.77527113 -49.96417519 2.77648548 -52.78589511 2.77921033 C-53.59914626 2.77629749 -54.41239741 2.77338465 -55.25029254 2.77038354 C-60.22144869 2.78332425 -64.98810709 3.19269441 -69.91016269 3.89946485 C-69.58016269 3.23946485 -69.25016269 2.57946485 -68.91016269 1.89946485 C-49.04259402 -4.69435484 -20.72691688 -0.13732875 0 0 Z " fill="#AAADAE" transform="translate(303.91016268730164,46.10053515434265)"/>
<path d="M0 0 C0.84108053 0.00037972 1.68216106 0.00075944 2.54872888 0.00115067 C3.99906632 -0.00183591 3.99906632 -0.00183591 5.4787035 -0.00488281 C6.55358334 -0.00196997 7.62846317 0.00094287 8.73591512 0.00394398 C10.43391277 0.00266234 10.43391277 0.00266234 12.16621339 0.00135481 C15.99113433 -0.00030328 19.81601221 0.00522675 23.64092916 0.01067311 C26.37010629 0.01151049 29.09928255 0.01084145 31.82845968 0.0102306 C37.72053442 0.00970517 43.61259812 0.01285399 49.50467008 0.01846844 C58.02371262 0.02658082 66.54274979 0.02919839 75.06179576 0.03045643 C88.88195914 0.03264736 102.70211664 0.03930856 116.52227682 0.04875904 C129.95066193 0.0579321 143.37904545 0.06501345 156.80743307 0.06926686 C157.63456812 0.06952958 158.46170317 0.0697923 159.31390292 0.07006299 C163.46322002 0.07136798 167.61253712 0.0726317 171.76185423 0.07387489 C206.20779686 0.08424879 240.65373249 0.10186822 275.0996694 0.1241985 C274.35243236 5.16897789 272.16945308 7.5402185 268.5371694 10.9366985 C267.75696432 11.68983326 267.75696432 11.68983326 266.96099752 12.45818287 C265.68278369 13.68948977 264.39239793 14.9081392 263.0996694 16.1241985 C263.0996694 13.1241985 263.0996694 13.1241985 265.03326315 10.9679485 C265.85955221 10.194511 266.68584127 9.4210735 267.5371694 8.6241985 C271.0945432 5.38461828 271.0945432 5.38461828 273.0996694 1.1241985 C238.58456898 1.09151815 204.06968798 1.09559636 169.55461451 1.14892346 C165.47913839 1.15518874 161.40366187 1.16114992 157.32818502 1.16692311 C156.11116192 1.16865477 156.11116192 1.16865477 154.86955249 1.17042141 C141.73493379 1.18838514 128.60043734 1.18171699 115.46582079 1.16593433 C101.98691248 1.15028669 88.50821299 1.16113618 75.02934116 1.19654608 C66.71306191 1.21755947 58.39730836 1.21794322 50.08104122 1.19187867 C44.37703866 1.17598195 38.67344143 1.18584 32.9694972 1.21585865 C29.6790686 1.23241772 26.38985545 1.23388912 23.09942526 1.21238476 C19.52795284 1.19083073 15.95921188 1.21229032 12.3878774 1.24445301 C10.8353246 1.2197046 10.8353246 1.2197046 9.25140709 1.19445622 C2.68102566 1.31326403 -0.65092422 2.7221763 -5.29998928 7.40758371 C-5.82810192 7.97406659 -6.35621455 8.54054947 -6.9003306 9.1241985 C-9.56699727 11.45753183 -12.23366394 13.79086516 -14.9003306 16.1241985 C-14.9003306 13.1241985 -14.9003306 13.1241985 -13.54486185 11.475761 C-12.94029154 10.90599537 -12.33572123 10.33622975 -11.7128306 9.7491985 C-11.07732279 9.140761 -10.44181498 8.5323235 -9.78704935 7.9054485 C-8.85312357 7.02372975 -8.85312357 7.02372975 -7.9003306 6.1241985 C-6.93835115 5.16952521 -5.97945771 4.21171968 -5.0253306 3.2491985 C-1.9003306 0.1241985 -1.9003306 0.1241985 0 0 Z " fill="#999B9F" transform="translate(72.90033060312271,331.8758015036583)"/>
<path d="M0 0 C0.83144531 0.144375 1.66289062 0.28875 2.51953125 0.4375 C3.60621094 0.623125 4.69289062 0.80875 5.8125 1 C6.89144531 1.185625 7.97039062 1.37125 9.08203125 1.5625 C12.00270898 2.07413786 12.00270898 2.07413786 15 2 C16.54687753 2.01137925 18.09375226 2.02314259 19.640625 2.03515625 C21.51041571 2.04446531 23.38020743 2.05357193 25.25 2.0625 C26.64412109 2.07506836 26.64412109 2.07506836 28.06640625 2.08789062 C33.17168302 2.10594323 37.96197375 1.79407301 43 1 C43.639375 1.165 44.27875 1.33 44.9375 1.5 C48.34538042 2.32615283 51.55569545 1.51664568 55 1 C55 1.66 55 2.32 55 3 C56.670625 2.7525 56.670625 2.7525 58.375 2.5 C63.66526956 1.91128376 68.92013668 1.96854573 74.23266602 2.02392578 C79.99900882 2.05982429 85.72445461 1.83933435 91.48266602 1.54199219 C100.88802089 1.07031078 110.11386371 0.87215378 119.5 1.75 C120.31702393 1.82395996 121.13404785 1.89791992 121.97583008 1.97412109 C127.8852507 2.6236151 133.36287143 4.13778735 139 6 C135.71243793 7.09585402 134.81127568 6.88584307 131.55924988 6.07945251 C125.68646081 4.81667568 120.04144583 4.71441288 114.05200195 4.72875977 C112.90111084 4.72353302 111.75021973 4.71830627 110.56445312 4.71292114 C108.08242965 4.70273225 105.60038512 4.69690973 103.11834145 4.69503975 C99.18793999 4.69135911 95.257787 4.67458793 91.32743835 4.65428162 C81.57222231 4.60533808 71.8169603 4.57420186 62.06164551 4.55297852 C53.8024557 4.53499028 45.54349564 4.50560183 37.28441429 4.45893669 C34.68055308 4.44729546 32.07665983 4.44135642 29.4727726 4.44125557 C25.83492904 4.44106348 22.19758102 4.4227956 18.55981445 4.40063477 C17.48795395 4.40521194 16.41609344 4.40978912 15.31175232 4.414505 C9.42743231 4.35753216 5.22017363 3.77210328 0 1 C0 0.67 0 0.34 0 0 Z " fill="#BBBDBE" transform="translate(244,142)"/>
<path d="M0 0 C1.09920273 0.00222061 2.19840546 0.00444122 3.33091736 0.00672913 C4.57212845 0.00680466 5.81333954 0.00688019 7.09216309 0.00695801 C8.45682311 0.01206541 9.82148274 0.01728142 11.18614197 0.02259827 C12.57476755 0.02446251 13.96339379 0.02588638 15.35202026 0.02688599 C19.01319686 0.03071065 22.67433402 0.04054048 26.335495 0.05158997 C30.06890835 0.06180519 33.80232805 0.06638384 37.53575134 0.07142639 C44.86584748 0.08216281 52.19591108 0.0992386 59.52598572 0.12025452 C59.52598572 0.45025452 59.52598572 0.78025452 59.52598572 1.12025452 C58.80459412 1.11723831 58.08320251 1.11422211 57.33995056 1.1111145 C50.51383565 1.08879268 43.68850319 1.10020278 36.86254883 1.14872074 C33.35374124 1.17249211 29.8458797 1.18359585 26.33702087 1.16493225 C22.29508071 1.14400488 18.25530223 1.17964406 14.21348572 1.21791077 C12.33959167 1.19652794 12.33959167 1.19652794 10.42784119 1.17471313 C4.42909273 1.27375246 0.46383353 1.50902392 -4.17127991 5.53822327 C-5.29443607 6.71133329 -6.39867126 7.90316606 -7.47401428 9.12025452 C-10.14068095 11.45358785 -12.80734762 13.78692118 -15.47401428 16.12025452 C-15.47401428 13.12025452 -15.47401428 13.12025452 -14.11854553 11.47181702 C-13.51397522 10.90205139 -12.90940491 10.33228577 -12.28651428 9.74525452 C-11.65100647 9.13681702 -11.01549866 8.52837952 -10.36073303 7.90150452 C-9.42680725 7.01978577 -9.42680725 7.01978577 -8.47401428 6.12025452 C-7.51203483 5.16558123 -6.55314138 4.2077757 -5.59901428 3.24525452 C-2.47401428 0.12025452 -2.47401428 0.12025452 0 0 Z " fill="#9B9CA1" transform="translate(73.47401428222656,331.87974548339844)"/>
<path d="M0 0 C0.83144531 0.144375 1.66289062 0.28875 2.51953125 0.4375 C3.60621094 0.623125 4.69289062 0.80875 5.8125 1 C6.89144531 1.185625 7.97039062 1.37125 9.08203125 1.5625 C12.00270898 2.07413786 12.00270898 2.07413786 15 2 C16.54687753 2.01137925 18.09375226 2.02314259 19.640625 2.03515625 C21.51041571 2.04446531 23.38020743 2.05357193 25.25 2.0625 C26.64412109 2.07506836 26.64412109 2.07506836 28.06640625 2.08789062 C33.17168302 2.10594323 37.96197375 1.79407301 43 1 C43.639375 1.165 44.27875 1.33 44.9375 1.5 C48.34538042 2.32615283 51.55569545 1.51664568 55 1 C55 1.66 55 2.32 55 3 C57.64 2.67 60.28 2.34 63 2 C60.44062357 4.55937643 59.48052326 4.2571241 55.92700195 4.2746582 C54.86862625 4.28419022 53.81025055 4.29372223 52.71980286 4.30354309 C50.99644966 4.30217598 50.99644966 4.30217598 49.23828125 4.30078125 C48.05912643 4.30506638 46.87997162 4.3093515 45.66508484 4.31376648 C43.16418094 4.31951996 40.66326029 4.3200026 38.16235352 4.31567383 C34.34557205 4.31252726 30.5295754 4.33591481 26.71289062 4.36132812 C24.28385514 4.36360242 21.85481758 4.36430401 19.42578125 4.36328125 C17.71760979 4.37709587 17.71760979 4.37709587 15.97492981 4.39118958 C9.8656286 4.35576246 5.40156351 3.93006372 0 1 C0 0.67 0 0.34 0 0 Z " fill="#B9BBBC" transform="translate(244,142)"/>
<path d="M0 0 C0.83144531 0.144375 1.66289062 0.28875 2.51953125 0.4375 C3.60621094 0.623125 4.69289062 0.80875 5.8125 1 C6.89144531 1.185625 7.97039062 1.37125 9.08203125 1.5625 C12.00270898 2.07413786 12.00270898 2.07413786 15 2 C17.33564933 2.31669821 19.6693782 2.64820803 22 3 C22 3.33 22 3.66 22 4 C6.07061503 4.55353075 6.07061503 4.55353075 0 1 C0 0.67 0 0.34 0 0 Z " fill="#A7A8AB" transform="translate(244,142)"/>
<path d="M0 0 C0.66 0.33 1.32 0.66 2 1 C-2.35842441 5.59687924 -6.74276241 9.45941142 -12 13 C-10.44997253 9.11602311 -7.99523379 6.97020381 -4.875 4.25 C-3.96492188 3.45078125 -3.05484375 2.6515625 -2.1171875 1.828125 C-1.06917969 0.92320312 -1.06917969 0.92320312 0 0 Z " fill="#BFC1C3" transform="translate(69,335)"/>
<path d="M0 0 C2.31 0 4.62 0 7 0 C7 0.33 7 0.66 7 1 C4.69 1 2.38 1 0 1 C0 0.67 0 0.34 0 0 Z " fill="#FFFFFF" transform="translate(151,380)"/>
<path d="M0 0 C2.31 0 4.62 0 7 0 C7 0.33 7 0.66 7 1 C4.69 1 2.38 1 0 1 C0 0.67 0 0.34 0 0 Z " fill="#FFFFFF" transform="translate(103,380)"/>
<path d="M0 0 C1.98 0 3.96 0 6 0 C5.34 0.66 4.68 1.32 4 2 C2.68 1.34 1.36 0.68 0 0 Z " fill="#DFDFDF" transform="translate(32,380)"/>
<path d="M0 0 C1.32 0.33 2.64 0.66 4 1 C3.01 1.66 2.02 2.32 1 3 C0.67 2.01 0.34 1.02 0 0 Z " fill="#FFFFFF" transform="translate(379,300)"/>
<path d="M0 0 C1.98 0 3.96 0 6 0 C6 0.33 6 0.66 6 1 C4.02 1 2.04 1 0 1 C0 0.67 0 0.34 0 0 Z " fill="#FFFFFF" transform="translate(71,380)"/>
<path d="M0 0 C0.99 1.485 0.99 1.485 2 3 C1.01 3.495 1.01 3.495 0 4 C0 2.68 0 1.36 0 0 Z " fill="#FFFFFF" transform="translate(428,251)"/>
<path d="M0 0 C1.65 0 3.3 0 5 0 C5 0.33 5 0.66 5 1 C3.35 1 1.7 1 0 1 C0 0.67 0 0.34 0 0 Z " fill="#FFFFFF" transform="translate(184,252)"/>
<path d="M0 0 C4 1 4 1 4 1 Z " fill="#FFFFFF" transform="translate(279,380)"/>
<path d="M0 0 C4 1 4 1 4 1 Z " fill="#FFFFFF" transform="translate(215,380)"/>
<path d="M0 0 C4 1 4 1 4 1 Z " fill="#FFFFFF" transform="translate(207,380)"/>
<path d="M0 0 C4 1 4 1 4 1 Z " fill="#FFFFFF" transform="translate(190,380)"/>
<path d="M0 0 C4 1 4 1 4 1 Z " fill="#FFFFFF" transform="translate(183,380)"/>
<path d="M0 0 C4 1 4 1 4 1 Z " fill="#FFFFFF" transform="translate(143,380)"/>
<path d="M0 0 C4 1 4 1 4 1 Z " fill="#FFFFFF" transform="translate(127,380)"/>
<path d="M0 0 C4 1 4 1 4 1 Z " fill="#FFFFFF" transform="translate(95,380)"/>
<path d="M0 0 C4 1 4 1 4 1 Z " fill="#FFFFFF" transform="translate(87,380)"/>
<path d="M0 0 C4 1 4 1 4 1 Z " fill="#FFFFFF" transform="translate(79,380)"/>
<path d="M0 0 C4 1 4 1 4 1 Z " fill="#FFFFFF" transform="translate(241,252)"/>
<path d="M0 0 C4 1 4 1 4 1 Z " fill="#FFFFFF" transform="translate(152,252)"/>
<path d="M0 0 C1 4 1 4 1 4 Z " fill="#FFFFFF" transform="translate(185,122)"/>
<path d="M0 0 C3 1 3 1 3 1 Z " fill="#FFFFFF" transform="translate(271,380)"/>
<path d="M0 0 C3 1 3 1 3 1 Z " fill="#FFFFFF" transform="translate(247,380)"/>
<path d="M0 0 C3 1 3 1 3 1 Z " fill="#FFFFFF" transform="translate(239,380)"/>
<path d="M0 0 C3 1 3 1 3 1 Z " fill="#FFFFFF" transform="translate(199,380)"/>
<path d="M0 0 C3 1 3 1 3 1 Z " fill="#FFFFFF" transform="translate(167,380)"/>
<path d="M0 0 C3 1 3 1 3 1 Z " fill="#FFFFFF" transform="translate(119,380)"/>
<path d="M0 0 C3 1 3 1 3 1 Z " fill="#FFFFFF" transform="translate(111,380)"/>
<path d="M0 0 C3 1 3 1 3 1 Z " fill="#FFFFFF" transform="translate(39,380)"/>
<path d="M0 0 C3 1 3 1 3 1 Z " fill="#FFFFFF" transform="translate(274,252)"/>
<path d="M0 0 C3 1 3 1 3 1 Z " fill="#FFFFFF" transform="translate(234,252)"/>
<path d="M0 0 C0.66 0.66 1.32 1.32 2 2 C1.34 2 0.68 2 0 2 C0 1.34 0 0.68 0 0 Z " fill="#FFFFFF" transform="translate(376,201)"/>
<path d="M0 0 C0.66 0.66 1.32 1.32 2 2 C1.34 2 0.68 2 0 2 C0 1.34 0 0.68 0 0 Z " fill="#FFFFFF" transform="translate(204,169)"/>
<path d="" fill="#FFFFFF" transform="translate(0,0)"/>
<path d="M0 0 C2 1 2 1 2 1 Z " fill="#FFFFFF" transform="translate(263,380)"/>
<path d="M0 0 C2 1 2 1 2 1 Z " fill="#FFFFFF" transform="translate(231,380)"/>
<path d="M0 0 C2 1 2 1 2 1 Z " fill="#FFFFFF" transform="translate(203,380)"/>
<path d="M0 0 C2 1 2 1 2 1 Z " fill="#FFFFFF" transform="translate(177,380)"/>
<path d="M0 0 C2 1 2 1 2 1 Z " fill="#FFFFFF" transform="translate(135,380)"/>
<path d="M0 0 C2 1 2 1 2 1 Z " fill="#FFFFFF" transform="translate(55,380)"/>
<path d="M0 0 C2 1 2 1 2 1 Z " fill="#FFFFFF" transform="translate(345,330)"/>
<path d="M0 0 C2 1 2 1 2 1 Z " fill="#FFFFFF" transform="translate(354,252)"/>
<path d="M0 0 C2 1 2 1 2 1 Z " fill="#FFFFFF" transform="translate(297,252)"/>
<path d="M0 0 C2 1 2 1 2 1 Z " fill="#FFFFFF" transform="translate(225,252)"/>
<path d="M0 0 C2 1 2 1 2 1 Z " fill="#FFFFFF" transform="translate(191,252)"/>
<path d="M0 0 C2 1 2 1 2 1 Z " fill="#FFFFFF" transform="translate(194,157)"/>
<path d="" fill="#FFFFFF" transform="translate(0,0)"/>
<path d="" fill="#FFFFFF" transform="translate(0,0)"/>
<path d="" fill="#FFFFFF" transform="translate(0,0)"/>
<path d="" fill="#FFFFFF" transform="translate(0,0)"/>
<path d="" fill="#FFFFFF" transform="translate(0,0)"/>
<path d="" fill="#FFFFFF" transform="translate(0,0)"/>
<path d="" fill="#FFFFFF" transform="translate(0,0)"/>
<path d="M0 0 C2 1 2 1 2 1 Z " fill="#FFFFFF" transform="translate(233,47)"/>
<path d="" fill="#FFFFFF" transform="translate(0,0)"/>
<path d="" fill="#FFFFFF" transform="translate(0,0)"/>
<path d="" fill="#FFFFFF" transform="translate(0,0)"/>
<path d="" fill="#FFFFFF" transform="translate(0,0)"/>
<path d="" fill="#FFFFFF" transform="translate(0,0)"/>
<path d="" fill="#FFFFFF" transform="translate(0,0)"/>
<path d="" fill="#FFFFFF" transform="translate(0,0)"/>
<path d="" fill="#FFFFFF" transform="translate(0,0)"/>
<path d="" fill="#FFFFFF" transform="translate(0,0)"/>
<path d="" fill="#FFFFFF" transform="translate(0,0)"/>
<path d="" fill="#FFFFFF" transform="translate(0,0)"/>
<path d="" fill="#FFFFFF" transform="translate(0,0)"/>
<path d="" fill="#FFFFFF" transform="translate(0,0)"/>
<path d="" fill="#FFFFFF" transform="translate(0,0)"/>
<path d="" fill="#FFFFFF" transform="translate(0,0)"/>
<path d="" fill="#FFFFFF" transform="translate(0,0)"/>
<path d="" fill="#FFFFFF" transform="translate(0,0)"/>
<path d="" fill="#FFFFFF" transform="translate(0,0)"/>
<path d="" fill="#FFFFFF" transform="translate(0,0)"/>
<path d="" fill="#FFFFFF" transform="translate(0,0)"/>
<path d="" fill="#FFFFFF" transform="translate(0,0)"/>
<path d="" fill="#FFFFFF" transform="translate(0,0)"/>
<path d="" fill="#FFFFFF" transform="translate(0,0)"/>
<path d="" fill="#FFFFFF" transform="translate(0,0)"/>
<path d="" fill="#FFFFFF" transform="translate(0,0)"/>
<path d="" fill="#FFFFFF" transform="translate(0,0)"/>
<path d="" fill="#FFFFFF" transform="translate(0,0)"/>
<path d="" fill="#FFFFFF" transform="translate(0,0)"/>
<path d="" fill="#FFFFFF" transform="translate(0,0)"/>
<path d="" fill="#FFFFFF" transform="translate(0,0)"/>
<path d="" fill="#FFFFFF" transform="translate(0,0)"/>
<path d="" fill="#FFFFFF" transform="translate(0,0)"/>
<path d="" fill="#FFFFFF" transform="translate(0,0)"/>
<path d="" fill="#FFFFFF" transform="translate(0,0)"/>
<path d="" fill="#FFFFFF" transform="translate(0,0)"/>
<path d="" fill="#FFFFFF" transform="translate(0,0)"/>
<path d="" fill="#FFFFFF" transform="translate(0,0)"/>
<path d="" fill="#FFFFFF" transform="translate(0,0)"/>
<path d="" fill="#FFFFFF" transform="translate(0,0)"/>
<path d="" fill="#FFFFFF" transform="translate(0,0)"/>
<path d="" fill="#FFFFFF" transform="translate(0,0)"/>
<path d="" fill="#FFFFFF" transform="translate(0,0)"/>
<path d="" fill="#FFFFFF" transform="translate(0,0)"/>
<path d="" fill="#FFFFFF" transform="translate(0,0)"/>
<path d="" fill="#FFFFFF" transform="translate(0,0)"/>
<path d="" fill="#FFFFFF" transform="translate(0,0)"/>
<path d="" fill="#FFFFFF" transform="translate(0,0)"/>
<path d="" fill="#FFFFFF" transform="translate(0,0)"/>
<path d="" fill="#FFFFFF" transform="translate(0,0)"/>
<path d="" fill="#FFFFFF" transform="translate(0,0)"/>
<path d="" fill="#FFFFFF" transform="translate(0,0)"/>
<path d="" fill="#FFFFFF" transform="translate(0,0)"/>
<path d="" fill="#FFFFFF" transform="translate(0,0)"/>
<path d="" fill="#FFFFFF" transform="translate(0,0)"/>
<path d="" fill="#FFFFFF" transform="translate(0,0)"/>
<path d="" fill="#FFFFFF" transform="translate(0,0)"/>
<path d="" fill="#FFFFFF" transform="translate(0,0)"/>
<path d="" fill="#FFFFFF" transform="translate(0,0)"/>
<path d="" fill="#FFFFFF" transform="translate(0,0)"/>
<path d="" fill="#FFFFFF" transform="translate(0,0)"/>
<path d="" fill="#FFFFFF" transform="translate(0,0)"/>
<path d="" fill="#FFFFFF" transform="translate(0,0)"/>
<path d="" fill="#FFFFFF" transform="translate(0,0)"/>
<path d="" fill="#FFFFFF" transform="translate(0,0)"/>
<path d="" fill="#FFFFFF" transform="translate(0,0)"/>
<path d="" fill="#FFFFFF" transform="translate(0,0)"/>
<path d="" fill="#FFFFFF" transform="translate(0,0)"/>
<path d="" fill="#FFFFFF" transform="translate(0,0)"/>
<path d="" fill="#FFFFFF" transform="translate(0,0)"/>
<path d="" fill="#FFFFFF" transform="translate(0,0)"/>
<path d="" fill="#FFFFFF" transform="translate(0,0)"/>
<path d="" fill="#FFFFFF" transform="translate(0,0)"/>
<path d="" fill="#FFFFFF" transform="translate(0,0)"/>
<path d="" fill="#FFFFFF" transform="translate(0,0)"/>
<path d="" fill="#FFFFFF" transform="translate(0,0)"/>
<path d="" fill="#FFFFFF" transform="translate(0,0)"/>
<path d="" fill="#FFFFFF" transform="translate(0,0)"/>
<path d="" fill="#FFFFFF" transform="translate(0,0)"/>
<path d="" fill="#FFFFFF" transform="translate(0,0)"/>
<path d="" fill="#FFFFFF" transform="translate(0,0)"/>
<path d="" fill="#FFFFFF" transform="translate(0,0)"/>
<path d="" fill="#FFFFFF" transform="translate(0,0)"/>
<path d="" fill="#FFFFFF" transform="translate(0,0)"/>
<path d="" fill="#FFFFFF" transform="translate(0,0)"/>
<path d="" fill="#FFFFFF" transform="translate(0,0)"/>
<path d="" fill="#FFFFFF" transform="translate(0,0)"/>
<path d="" fill="#FFFFFF" transform="translate(0,0)"/>
<path d="" fill="#FFFFFF" transform="translate(0,0)"/>
<path d="" fill="#FFFFFF" transform="translate(0,0)"/>
<path d="" fill="#FFFFFF" transform="translate(0,0)"/>
<path d="" fill="#FFFFFF" transform="translate(0,0)"/>
<path d="" fill="#FFFFFF" transform="translate(0,0)"/>
<path d="" fill="#FFFFFF" transform="translate(0,0)"/>
<path d="" fill="#FFFFFF" transform="translate(0,0)"/>
<path d="" fill="#FFFFFF" transform="translate(0,0)"/>
<path d="" fill="#FFFFFF" transform="translate(0,0)"/>
<path d="" fill="#FFFFFF" transform="translate(0,0)"/>
<path d="" fill="#FFFFFF" transform="translate(0,0)"/>
<path d="" fill="#FFFFFF" transform="translate(0,0)"/>
<path d="" fill="#FFFFFF" transform="translate(0,0)"/>
<path d="" fill="#FFFFFF" transform="translate(0,0)"/>
<path d="" fill="#FFFFFF" transform="translate(0,0)"/>
<path d="" fill="#FFFFFF" transform="translate(0,0)"/>
<path d="" fill="#FFFFFF" transform="translate(0,0)"/>
<path d="" fill="#FFFFFF" transform="translate(0,0)"/>
<path d="" fill="#FFFFFF" transform="translate(0,0)"/>
<path d="" fill="#FFFFFF" transform="translate(0,0)"/>
<path d="" fill="#FFFFFF" transform="translate(0,0)"/>
<path d="" fill="#FFFFFF" transform="translate(0,0)"/>
<path d="" fill="#FFFFFF" transform="translate(0,0)"/>
<path d="" fill="#FFFFFF" transform="translate(0,0)"/>
<path d="" fill="#FFFFFF" transform="translate(0,0)"/>
<path d="" fill="#FFFFFF" transform="translate(0,0)"/>
<path d="" fill="#FFFFFF" transform="translate(0,0)"/>
<path d="" fill="#FFFFFF" transform="translate(0,0)"/>
<path d="" fill="#FFFFFF" transform="translate(0,0)"/>
<path d="" fill="#FFFFFF" transform="translate(0,0)"/>
<path d="" fill="#FFFFFF" transform="translate(0,0)"/>
<path d="" fill="#FFFFFF" transform="translate(0,0)"/>
<path d="" fill="#FFFFFF" transform="translate(0,0)"/>
<path d="" fill="#FFFFFF" transform="translate(0,0)"/>
</svg>
